%TF.GenerationSoftware,KiCad,Pcbnew,7.0.5*%
%TF.CreationDate,2023-06-04T15:55:19-04:00*%
%TF.ProjectId,epsilon-kb,65707369-6c6f-46e2-9d6b-622e6b696361,rev?*%
%TF.SameCoordinates,Original*%
%TF.FileFunction,AssemblyDrawing,Top*%
%FSLAX46Y46*%
G04 Gerber Fmt 4.6, Leading zero omitted, Abs format (unit mm)*
G04 Created by KiCad (PCBNEW 7.0.5) date 2023-06-04 15:55:19*
%MOMM*%
%LPD*%
G01*
G04 APERTURE LIST*
%ADD10C,0.150000*%
%ADD11C,0.100000*%
G04 APERTURE END LIST*
D10*
%TO.C,REF\u002A\u002A*%
X123380952Y-84904819D02*
X123380952Y-83904819D01*
X123380952Y-83904819D02*
X123714285Y-84619104D01*
X123714285Y-84619104D02*
X124047618Y-83904819D01*
X124047618Y-83904819D02*
X124047618Y-84904819D01*
X124666666Y-84904819D02*
X124571428Y-84857200D01*
X124571428Y-84857200D02*
X124523809Y-84809580D01*
X124523809Y-84809580D02*
X124476190Y-84714342D01*
X124476190Y-84714342D02*
X124476190Y-84428628D01*
X124476190Y-84428628D02*
X124523809Y-84333390D01*
X124523809Y-84333390D02*
X124571428Y-84285771D01*
X124571428Y-84285771D02*
X124666666Y-84238152D01*
X124666666Y-84238152D02*
X124809523Y-84238152D01*
X124809523Y-84238152D02*
X124904761Y-84285771D01*
X124904761Y-84285771D02*
X124952380Y-84333390D01*
X124952380Y-84333390D02*
X124999999Y-84428628D01*
X124999999Y-84428628D02*
X124999999Y-84714342D01*
X124999999Y-84714342D02*
X124952380Y-84809580D01*
X124952380Y-84809580D02*
X124904761Y-84857200D01*
X124904761Y-84857200D02*
X124809523Y-84904819D01*
X124809523Y-84904819D02*
X124666666Y-84904819D01*
X125857142Y-84238152D02*
X125857142Y-84904819D01*
X125428571Y-84238152D02*
X125428571Y-84761961D01*
X125428571Y-84761961D02*
X125476190Y-84857200D01*
X125476190Y-84857200D02*
X125571428Y-84904819D01*
X125571428Y-84904819D02*
X125714285Y-84904819D01*
X125714285Y-84904819D02*
X125809523Y-84857200D01*
X125809523Y-84857200D02*
X125857142Y-84809580D01*
X126333333Y-84238152D02*
X126333333Y-84904819D01*
X126333333Y-84333390D02*
X126380952Y-84285771D01*
X126380952Y-84285771D02*
X126476190Y-84238152D01*
X126476190Y-84238152D02*
X126619047Y-84238152D01*
X126619047Y-84238152D02*
X126714285Y-84285771D01*
X126714285Y-84285771D02*
X126761904Y-84381009D01*
X126761904Y-84381009D02*
X126761904Y-84904819D01*
X127095238Y-84238152D02*
X127476190Y-84238152D01*
X127238095Y-83904819D02*
X127238095Y-84761961D01*
X127238095Y-84761961D02*
X127285714Y-84857200D01*
X127285714Y-84857200D02*
X127380952Y-84904819D01*
X127380952Y-84904819D02*
X127476190Y-84904819D01*
X127809524Y-84904819D02*
X127809524Y-84238152D01*
X127809524Y-83904819D02*
X127761905Y-83952438D01*
X127761905Y-83952438D02*
X127809524Y-84000057D01*
X127809524Y-84000057D02*
X127857143Y-83952438D01*
X127857143Y-83952438D02*
X127809524Y-83904819D01*
X127809524Y-83904819D02*
X127809524Y-84000057D01*
X128285714Y-84238152D02*
X128285714Y-84904819D01*
X128285714Y-84333390D02*
X128333333Y-84285771D01*
X128333333Y-84285771D02*
X128428571Y-84238152D01*
X128428571Y-84238152D02*
X128571428Y-84238152D01*
X128571428Y-84238152D02*
X128666666Y-84285771D01*
X128666666Y-84285771D02*
X128714285Y-84381009D01*
X128714285Y-84381009D02*
X128714285Y-84904819D01*
X129619047Y-84238152D02*
X129619047Y-85047676D01*
X129619047Y-85047676D02*
X129571428Y-85142914D01*
X129571428Y-85142914D02*
X129523809Y-85190533D01*
X129523809Y-85190533D02*
X129428571Y-85238152D01*
X129428571Y-85238152D02*
X129285714Y-85238152D01*
X129285714Y-85238152D02*
X129190476Y-85190533D01*
X129619047Y-84857200D02*
X129523809Y-84904819D01*
X129523809Y-84904819D02*
X129333333Y-84904819D01*
X129333333Y-84904819D02*
X129238095Y-84857200D01*
X129238095Y-84857200D02*
X129190476Y-84809580D01*
X129190476Y-84809580D02*
X129142857Y-84714342D01*
X129142857Y-84714342D02*
X129142857Y-84428628D01*
X129142857Y-84428628D02*
X129190476Y-84333390D01*
X129190476Y-84333390D02*
X129238095Y-84285771D01*
X129238095Y-84285771D02*
X129333333Y-84238152D01*
X129333333Y-84238152D02*
X129523809Y-84238152D01*
X129523809Y-84238152D02*
X129619047Y-84285771D01*
X130095238Y-84904819D02*
X130095238Y-83904819D01*
X130095238Y-84381009D02*
X130666666Y-84381009D01*
X130666666Y-84904819D02*
X130666666Y-83904819D01*
X131285714Y-84904819D02*
X131190476Y-84857200D01*
X131190476Y-84857200D02*
X131142857Y-84809580D01*
X131142857Y-84809580D02*
X131095238Y-84714342D01*
X131095238Y-84714342D02*
X131095238Y-84428628D01*
X131095238Y-84428628D02*
X131142857Y-84333390D01*
X131142857Y-84333390D02*
X131190476Y-84285771D01*
X131190476Y-84285771D02*
X131285714Y-84238152D01*
X131285714Y-84238152D02*
X131428571Y-84238152D01*
X131428571Y-84238152D02*
X131523809Y-84285771D01*
X131523809Y-84285771D02*
X131571428Y-84333390D01*
X131571428Y-84333390D02*
X131619047Y-84428628D01*
X131619047Y-84428628D02*
X131619047Y-84714342D01*
X131619047Y-84714342D02*
X131571428Y-84809580D01*
X131571428Y-84809580D02*
X131523809Y-84857200D01*
X131523809Y-84857200D02*
X131428571Y-84904819D01*
X131428571Y-84904819D02*
X131285714Y-84904819D01*
X132190476Y-84904819D02*
X132095238Y-84857200D01*
X132095238Y-84857200D02*
X132047619Y-84761961D01*
X132047619Y-84761961D02*
X132047619Y-83904819D01*
X132952381Y-84857200D02*
X132857143Y-84904819D01*
X132857143Y-84904819D02*
X132666667Y-84904819D01*
X132666667Y-84904819D02*
X132571429Y-84857200D01*
X132571429Y-84857200D02*
X132523810Y-84761961D01*
X132523810Y-84761961D02*
X132523810Y-84381009D01*
X132523810Y-84381009D02*
X132571429Y-84285771D01*
X132571429Y-84285771D02*
X132666667Y-84238152D01*
X132666667Y-84238152D02*
X132857143Y-84238152D01*
X132857143Y-84238152D02*
X132952381Y-84285771D01*
X132952381Y-84285771D02*
X133000000Y-84381009D01*
X133000000Y-84381009D02*
X133000000Y-84476247D01*
X133000000Y-84476247D02*
X132523810Y-84571485D01*
X133190477Y-85000057D02*
X133952381Y-85000057D01*
X134142858Y-84000057D02*
X134190477Y-83952438D01*
X134190477Y-83952438D02*
X134285715Y-83904819D01*
X134285715Y-83904819D02*
X134523810Y-83904819D01*
X134523810Y-83904819D02*
X134619048Y-83952438D01*
X134619048Y-83952438D02*
X134666667Y-84000057D01*
X134666667Y-84000057D02*
X134714286Y-84095295D01*
X134714286Y-84095295D02*
X134714286Y-84190533D01*
X134714286Y-84190533D02*
X134666667Y-84333390D01*
X134666667Y-84333390D02*
X134095239Y-84904819D01*
X134095239Y-84904819D02*
X134714286Y-84904819D01*
X135142858Y-84809580D02*
X135190477Y-84857200D01*
X135190477Y-84857200D02*
X135142858Y-84904819D01*
X135142858Y-84904819D02*
X135095239Y-84857200D01*
X135095239Y-84857200D02*
X135142858Y-84809580D01*
X135142858Y-84809580D02*
X135142858Y-84904819D01*
X135571429Y-84000057D02*
X135619048Y-83952438D01*
X135619048Y-83952438D02*
X135714286Y-83904819D01*
X135714286Y-83904819D02*
X135952381Y-83904819D01*
X135952381Y-83904819D02*
X136047619Y-83952438D01*
X136047619Y-83952438D02*
X136095238Y-84000057D01*
X136095238Y-84000057D02*
X136142857Y-84095295D01*
X136142857Y-84095295D02*
X136142857Y-84190533D01*
X136142857Y-84190533D02*
X136095238Y-84333390D01*
X136095238Y-84333390D02*
X135523810Y-84904819D01*
X135523810Y-84904819D02*
X136142857Y-84904819D01*
X136571429Y-84904819D02*
X136571429Y-84238152D01*
X136571429Y-84333390D02*
X136619048Y-84285771D01*
X136619048Y-84285771D02*
X136714286Y-84238152D01*
X136714286Y-84238152D02*
X136857143Y-84238152D01*
X136857143Y-84238152D02*
X136952381Y-84285771D01*
X136952381Y-84285771D02*
X137000000Y-84381009D01*
X137000000Y-84381009D02*
X137000000Y-84904819D01*
X137000000Y-84381009D02*
X137047619Y-84285771D01*
X137047619Y-84285771D02*
X137142857Y-84238152D01*
X137142857Y-84238152D02*
X137285714Y-84238152D01*
X137285714Y-84238152D02*
X137380953Y-84285771D01*
X137380953Y-84285771D02*
X137428572Y-84381009D01*
X137428572Y-84381009D02*
X137428572Y-84904819D01*
X137904762Y-84904819D02*
X137904762Y-84238152D01*
X137904762Y-84333390D02*
X137952381Y-84285771D01*
X137952381Y-84285771D02*
X138047619Y-84238152D01*
X138047619Y-84238152D02*
X138190476Y-84238152D01*
X138190476Y-84238152D02*
X138285714Y-84285771D01*
X138285714Y-84285771D02*
X138333333Y-84381009D01*
X138333333Y-84381009D02*
X138333333Y-84904819D01*
X138333333Y-84381009D02*
X138380952Y-84285771D01*
X138380952Y-84285771D02*
X138476190Y-84238152D01*
X138476190Y-84238152D02*
X138619047Y-84238152D01*
X138619047Y-84238152D02*
X138714286Y-84285771D01*
X138714286Y-84285771D02*
X138761905Y-84381009D01*
X138761905Y-84381009D02*
X138761905Y-84904819D01*
X139000000Y-85000057D02*
X139761904Y-85000057D01*
X140000000Y-84904819D02*
X140000000Y-83904819D01*
X140000000Y-83904819D02*
X140333333Y-84619104D01*
X140333333Y-84619104D02*
X140666666Y-83904819D01*
X140666666Y-83904819D02*
X140666666Y-84904819D01*
X141095238Y-84000057D02*
X141142857Y-83952438D01*
X141142857Y-83952438D02*
X141238095Y-83904819D01*
X141238095Y-83904819D02*
X141476190Y-83904819D01*
X141476190Y-83904819D02*
X141571428Y-83952438D01*
X141571428Y-83952438D02*
X141619047Y-84000057D01*
X141619047Y-84000057D02*
X141666666Y-84095295D01*
X141666666Y-84095295D02*
X141666666Y-84190533D01*
X141666666Y-84190533D02*
X141619047Y-84333390D01*
X141619047Y-84333390D02*
X141047619Y-84904819D01*
X141047619Y-84904819D02*
X141666666Y-84904819D01*
X131166666Y-81704819D02*
X130833333Y-81228628D01*
X130595238Y-81704819D02*
X130595238Y-80704819D01*
X130595238Y-80704819D02*
X130976190Y-80704819D01*
X130976190Y-80704819D02*
X131071428Y-80752438D01*
X131071428Y-80752438D02*
X131119047Y-80800057D01*
X131119047Y-80800057D02*
X131166666Y-80895295D01*
X131166666Y-80895295D02*
X131166666Y-81038152D01*
X131166666Y-81038152D02*
X131119047Y-81133390D01*
X131119047Y-81133390D02*
X131071428Y-81181009D01*
X131071428Y-81181009D02*
X130976190Y-81228628D01*
X130976190Y-81228628D02*
X130595238Y-81228628D01*
X131595238Y-81181009D02*
X131928571Y-81181009D01*
X132071428Y-81704819D02*
X131595238Y-81704819D01*
X131595238Y-81704819D02*
X131595238Y-80704819D01*
X131595238Y-80704819D02*
X132071428Y-80704819D01*
X132833333Y-81181009D02*
X132500000Y-81181009D01*
X132500000Y-81704819D02*
X132500000Y-80704819D01*
X132500000Y-80704819D02*
X132976190Y-80704819D01*
X133500000Y-80704819D02*
X133500000Y-80942914D01*
X133261905Y-80847676D02*
X133500000Y-80942914D01*
X133500000Y-80942914D02*
X133738095Y-80847676D01*
X133357143Y-81133390D02*
X133500000Y-80942914D01*
X133500000Y-80942914D02*
X133642857Y-81133390D01*
X134261905Y-80704819D02*
X134261905Y-80942914D01*
X134023810Y-80847676D02*
X134261905Y-80942914D01*
X134261905Y-80942914D02*
X134500000Y-80847676D01*
X134119048Y-81133390D02*
X134261905Y-80942914D01*
X134261905Y-80942914D02*
X134404762Y-81133390D01*
%TO.C,SW11*%
X146904764Y-124359700D02*
X147047621Y-124407319D01*
X147047621Y-124407319D02*
X147285716Y-124407319D01*
X147285716Y-124407319D02*
X147380954Y-124359700D01*
X147380954Y-124359700D02*
X147428573Y-124312080D01*
X147428573Y-124312080D02*
X147476192Y-124216842D01*
X147476192Y-124216842D02*
X147476192Y-124121604D01*
X147476192Y-124121604D02*
X147428573Y-124026366D01*
X147428573Y-124026366D02*
X147380954Y-123978747D01*
X147380954Y-123978747D02*
X147285716Y-123931128D01*
X147285716Y-123931128D02*
X147095240Y-123883509D01*
X147095240Y-123883509D02*
X147000002Y-123835890D01*
X147000002Y-123835890D02*
X146952383Y-123788271D01*
X146952383Y-123788271D02*
X146904764Y-123693033D01*
X146904764Y-123693033D02*
X146904764Y-123597795D01*
X146904764Y-123597795D02*
X146952383Y-123502557D01*
X146952383Y-123502557D02*
X147000002Y-123454938D01*
X147000002Y-123454938D02*
X147095240Y-123407319D01*
X147095240Y-123407319D02*
X147333335Y-123407319D01*
X147333335Y-123407319D02*
X147476192Y-123454938D01*
X147809526Y-123407319D02*
X148047621Y-124407319D01*
X148047621Y-124407319D02*
X148238097Y-123693033D01*
X148238097Y-123693033D02*
X148428573Y-124407319D01*
X148428573Y-124407319D02*
X148666669Y-123407319D01*
X148809526Y-124502557D02*
X149571430Y-124502557D01*
X149761907Y-124359700D02*
X149904764Y-124407319D01*
X149904764Y-124407319D02*
X150142859Y-124407319D01*
X150142859Y-124407319D02*
X150238097Y-124359700D01*
X150238097Y-124359700D02*
X150285716Y-124312080D01*
X150285716Y-124312080D02*
X150333335Y-124216842D01*
X150333335Y-124216842D02*
X150333335Y-124121604D01*
X150333335Y-124121604D02*
X150285716Y-124026366D01*
X150285716Y-124026366D02*
X150238097Y-123978747D01*
X150238097Y-123978747D02*
X150142859Y-123931128D01*
X150142859Y-123931128D02*
X149952383Y-123883509D01*
X149952383Y-123883509D02*
X149857145Y-123835890D01*
X149857145Y-123835890D02*
X149809526Y-123788271D01*
X149809526Y-123788271D02*
X149761907Y-123693033D01*
X149761907Y-123693033D02*
X149761907Y-123597795D01*
X149761907Y-123597795D02*
X149809526Y-123502557D01*
X149809526Y-123502557D02*
X149857145Y-123454938D01*
X149857145Y-123454938D02*
X149952383Y-123407319D01*
X149952383Y-123407319D02*
X150190478Y-123407319D01*
X150190478Y-123407319D02*
X150333335Y-123454938D01*
X150761907Y-124407319D02*
X150761907Y-123407319D01*
X150761907Y-123407319D02*
X151142859Y-123407319D01*
X151142859Y-123407319D02*
X151238097Y-123454938D01*
X151238097Y-123454938D02*
X151285716Y-123502557D01*
X151285716Y-123502557D02*
X151333335Y-123597795D01*
X151333335Y-123597795D02*
X151333335Y-123740652D01*
X151333335Y-123740652D02*
X151285716Y-123835890D01*
X151285716Y-123835890D02*
X151238097Y-123883509D01*
X151238097Y-123883509D02*
X151142859Y-123931128D01*
X151142859Y-123931128D02*
X150761907Y-123931128D01*
X151761907Y-124407319D02*
X151761907Y-123407319D01*
X151761907Y-123407319D02*
X152000002Y-123407319D01*
X152000002Y-123407319D02*
X152142859Y-123454938D01*
X152142859Y-123454938D02*
X152238097Y-123550176D01*
X152238097Y-123550176D02*
X152285716Y-123645414D01*
X152285716Y-123645414D02*
X152333335Y-123835890D01*
X152333335Y-123835890D02*
X152333335Y-123978747D01*
X152333335Y-123978747D02*
X152285716Y-124169223D01*
X152285716Y-124169223D02*
X152238097Y-124264461D01*
X152238097Y-124264461D02*
X152142859Y-124359700D01*
X152142859Y-124359700D02*
X152000002Y-124407319D01*
X152000002Y-124407319D02*
X151761907Y-124407319D01*
X152619050Y-123407319D02*
X153190478Y-123407319D01*
X152904764Y-124407319D02*
X152904764Y-123407319D01*
X146200478Y-130349700D02*
X146343335Y-130397319D01*
X146343335Y-130397319D02*
X146581430Y-130397319D01*
X146581430Y-130397319D02*
X146676668Y-130349700D01*
X146676668Y-130349700D02*
X146724287Y-130302080D01*
X146724287Y-130302080D02*
X146771906Y-130206842D01*
X146771906Y-130206842D02*
X146771906Y-130111604D01*
X146771906Y-130111604D02*
X146724287Y-130016366D01*
X146724287Y-130016366D02*
X146676668Y-129968747D01*
X146676668Y-129968747D02*
X146581430Y-129921128D01*
X146581430Y-129921128D02*
X146390954Y-129873509D01*
X146390954Y-129873509D02*
X146295716Y-129825890D01*
X146295716Y-129825890D02*
X146248097Y-129778271D01*
X146248097Y-129778271D02*
X146200478Y-129683033D01*
X146200478Y-129683033D02*
X146200478Y-129587795D01*
X146200478Y-129587795D02*
X146248097Y-129492557D01*
X146248097Y-129492557D02*
X146295716Y-129444938D01*
X146295716Y-129444938D02*
X146390954Y-129397319D01*
X146390954Y-129397319D02*
X146629049Y-129397319D01*
X146629049Y-129397319D02*
X146771906Y-129444938D01*
X147105240Y-129397319D02*
X147343335Y-130397319D01*
X147343335Y-130397319D02*
X147533811Y-129683033D01*
X147533811Y-129683033D02*
X147724287Y-130397319D01*
X147724287Y-130397319D02*
X147962383Y-129397319D01*
X148867144Y-130397319D02*
X148295716Y-130397319D01*
X148581430Y-130397319D02*
X148581430Y-129397319D01*
X148581430Y-129397319D02*
X148486192Y-129540176D01*
X148486192Y-129540176D02*
X148390954Y-129635414D01*
X148390954Y-129635414D02*
X148295716Y-129683033D01*
X149819525Y-130397319D02*
X149248097Y-130397319D01*
X149533811Y-130397319D02*
X149533811Y-129397319D01*
X149533811Y-129397319D02*
X149438573Y-129540176D01*
X149438573Y-129540176D02*
X149343335Y-129635414D01*
X149343335Y-129635414D02*
X149248097Y-129683033D01*
%TO.C,SW5*%
X174451681Y-80812872D02*
X174601278Y-80795656D01*
X174601278Y-80795656D02*
X174817066Y-80695032D01*
X174817066Y-80695032D02*
X174883256Y-80611626D01*
X174883256Y-80611626D02*
X174906289Y-80548343D01*
X174906289Y-80548343D02*
X174909197Y-80441904D01*
X174909197Y-80441904D02*
X174868948Y-80355589D01*
X174868948Y-80355589D02*
X174785541Y-80289398D01*
X174785541Y-80289398D02*
X174722259Y-80266365D01*
X174722259Y-80266365D02*
X174615819Y-80263457D01*
X174615819Y-80263457D02*
X174423064Y-80300799D01*
X174423064Y-80300799D02*
X174316625Y-80297890D01*
X174316625Y-80297890D02*
X174253342Y-80274858D01*
X174253342Y-80274858D02*
X174169935Y-80208667D01*
X174169935Y-80208667D02*
X174129686Y-80122352D01*
X174129686Y-80122352D02*
X174132594Y-80015912D01*
X174132594Y-80015912D02*
X174155627Y-79952630D01*
X174155627Y-79952630D02*
X174221817Y-79869223D01*
X174221817Y-79869223D02*
X174437605Y-79768600D01*
X174437605Y-79768600D02*
X174587202Y-79751383D01*
X174869180Y-79567353D02*
X175507586Y-80373038D01*
X175507586Y-80373038D02*
X175378346Y-79645176D01*
X175378346Y-79645176D02*
X175852846Y-80212040D01*
X175852846Y-80212040D02*
X175646015Y-79205109D01*
X176238355Y-80137358D02*
X176928876Y-79815363D01*
X177104414Y-79628424D02*
X176681796Y-78722117D01*
X176681796Y-78722117D02*
X177027056Y-78561119D01*
X177027056Y-78561119D02*
X177133496Y-78564027D01*
X177133496Y-78564027D02*
X177196778Y-78587060D01*
X177196778Y-78587060D02*
X177280185Y-78653251D01*
X177280185Y-78653251D02*
X177340559Y-78782723D01*
X177340559Y-78782723D02*
X177337651Y-78889163D01*
X177337651Y-78889163D02*
X177314618Y-78952445D01*
X177314618Y-78952445D02*
X177248427Y-79035852D01*
X177248427Y-79035852D02*
X176903167Y-79196849D01*
X178117394Y-78420479D02*
X178399140Y-79024684D01*
X177728976Y-78601601D02*
X177950348Y-79076334D01*
X177950348Y-79076334D02*
X178033755Y-79142524D01*
X178033755Y-79142524D02*
X178140194Y-79145432D01*
X178140194Y-79145432D02*
X178269667Y-79085058D01*
X178269667Y-79085058D02*
X178335857Y-79001651D01*
X178335857Y-79001651D02*
X178358890Y-78938369D01*
X178767433Y-78800404D02*
X178873872Y-78803313D01*
X178873872Y-78803313D02*
X179046502Y-78722814D01*
X179046502Y-78722814D02*
X179112693Y-78639407D01*
X179112693Y-78639407D02*
X179115601Y-78532967D01*
X179115601Y-78532967D02*
X179095476Y-78489810D01*
X179095476Y-78489810D02*
X179012069Y-78423619D01*
X179012069Y-78423619D02*
X178905630Y-78420711D01*
X178905630Y-78420711D02*
X178776157Y-78481085D01*
X178776157Y-78481085D02*
X178669717Y-78478177D01*
X178669717Y-78478177D02*
X178586310Y-78411987D01*
X178586310Y-78411987D02*
X178566186Y-78368829D01*
X178566186Y-78368829D02*
X178569094Y-78262390D01*
X178569094Y-78262390D02*
X178635284Y-78178983D01*
X178635284Y-78178983D02*
X178764757Y-78118609D01*
X178764757Y-78118609D02*
X178871197Y-78121517D01*
X179564393Y-78481318D02*
X179141774Y-77575010D01*
X179952810Y-78300195D02*
X179731439Y-77825463D01*
X179731439Y-77825463D02*
X179648032Y-77759272D01*
X179648032Y-77759272D02*
X179541592Y-77756364D01*
X179541592Y-77756364D02*
X179412120Y-77816738D01*
X179412120Y-77816738D02*
X179345929Y-77900145D01*
X179345929Y-77900145D02*
X179322897Y-77963427D01*
%TO.C,REF\u002A\u002A*%
X185380952Y-129654819D02*
X185380952Y-128654819D01*
X185380952Y-128654819D02*
X185714285Y-129369104D01*
X185714285Y-129369104D02*
X186047618Y-128654819D01*
X186047618Y-128654819D02*
X186047618Y-129654819D01*
X186666666Y-129654819D02*
X186571428Y-129607200D01*
X186571428Y-129607200D02*
X186523809Y-129559580D01*
X186523809Y-129559580D02*
X186476190Y-129464342D01*
X186476190Y-129464342D02*
X186476190Y-129178628D01*
X186476190Y-129178628D02*
X186523809Y-129083390D01*
X186523809Y-129083390D02*
X186571428Y-129035771D01*
X186571428Y-129035771D02*
X186666666Y-128988152D01*
X186666666Y-128988152D02*
X186809523Y-128988152D01*
X186809523Y-128988152D02*
X186904761Y-129035771D01*
X186904761Y-129035771D02*
X186952380Y-129083390D01*
X186952380Y-129083390D02*
X186999999Y-129178628D01*
X186999999Y-129178628D02*
X186999999Y-129464342D01*
X186999999Y-129464342D02*
X186952380Y-129559580D01*
X186952380Y-129559580D02*
X186904761Y-129607200D01*
X186904761Y-129607200D02*
X186809523Y-129654819D01*
X186809523Y-129654819D02*
X186666666Y-129654819D01*
X187857142Y-128988152D02*
X187857142Y-129654819D01*
X187428571Y-128988152D02*
X187428571Y-129511961D01*
X187428571Y-129511961D02*
X187476190Y-129607200D01*
X187476190Y-129607200D02*
X187571428Y-129654819D01*
X187571428Y-129654819D02*
X187714285Y-129654819D01*
X187714285Y-129654819D02*
X187809523Y-129607200D01*
X187809523Y-129607200D02*
X187857142Y-129559580D01*
X188333333Y-128988152D02*
X188333333Y-129654819D01*
X188333333Y-129083390D02*
X188380952Y-129035771D01*
X188380952Y-129035771D02*
X188476190Y-128988152D01*
X188476190Y-128988152D02*
X188619047Y-128988152D01*
X188619047Y-128988152D02*
X188714285Y-129035771D01*
X188714285Y-129035771D02*
X188761904Y-129131009D01*
X188761904Y-129131009D02*
X188761904Y-129654819D01*
X189095238Y-128988152D02*
X189476190Y-128988152D01*
X189238095Y-128654819D02*
X189238095Y-129511961D01*
X189238095Y-129511961D02*
X189285714Y-129607200D01*
X189285714Y-129607200D02*
X189380952Y-129654819D01*
X189380952Y-129654819D02*
X189476190Y-129654819D01*
X189809524Y-129654819D02*
X189809524Y-128988152D01*
X189809524Y-128654819D02*
X189761905Y-128702438D01*
X189761905Y-128702438D02*
X189809524Y-128750057D01*
X189809524Y-128750057D02*
X189857143Y-128702438D01*
X189857143Y-128702438D02*
X189809524Y-128654819D01*
X189809524Y-128654819D02*
X189809524Y-128750057D01*
X190285714Y-128988152D02*
X190285714Y-129654819D01*
X190285714Y-129083390D02*
X190333333Y-129035771D01*
X190333333Y-129035771D02*
X190428571Y-128988152D01*
X190428571Y-128988152D02*
X190571428Y-128988152D01*
X190571428Y-128988152D02*
X190666666Y-129035771D01*
X190666666Y-129035771D02*
X190714285Y-129131009D01*
X190714285Y-129131009D02*
X190714285Y-129654819D01*
X191619047Y-128988152D02*
X191619047Y-129797676D01*
X191619047Y-129797676D02*
X191571428Y-129892914D01*
X191571428Y-129892914D02*
X191523809Y-129940533D01*
X191523809Y-129940533D02*
X191428571Y-129988152D01*
X191428571Y-129988152D02*
X191285714Y-129988152D01*
X191285714Y-129988152D02*
X191190476Y-129940533D01*
X191619047Y-129607200D02*
X191523809Y-129654819D01*
X191523809Y-129654819D02*
X191333333Y-129654819D01*
X191333333Y-129654819D02*
X191238095Y-129607200D01*
X191238095Y-129607200D02*
X191190476Y-129559580D01*
X191190476Y-129559580D02*
X191142857Y-129464342D01*
X191142857Y-129464342D02*
X191142857Y-129178628D01*
X191142857Y-129178628D02*
X191190476Y-129083390D01*
X191190476Y-129083390D02*
X191238095Y-129035771D01*
X191238095Y-129035771D02*
X191333333Y-128988152D01*
X191333333Y-128988152D02*
X191523809Y-128988152D01*
X191523809Y-128988152D02*
X191619047Y-129035771D01*
X192095238Y-129654819D02*
X192095238Y-128654819D01*
X192095238Y-129131009D02*
X192666666Y-129131009D01*
X192666666Y-129654819D02*
X192666666Y-128654819D01*
X193285714Y-129654819D02*
X193190476Y-129607200D01*
X193190476Y-129607200D02*
X193142857Y-129559580D01*
X193142857Y-129559580D02*
X193095238Y-129464342D01*
X193095238Y-129464342D02*
X193095238Y-129178628D01*
X193095238Y-129178628D02*
X193142857Y-129083390D01*
X193142857Y-129083390D02*
X193190476Y-129035771D01*
X193190476Y-129035771D02*
X193285714Y-128988152D01*
X193285714Y-128988152D02*
X193428571Y-128988152D01*
X193428571Y-128988152D02*
X193523809Y-129035771D01*
X193523809Y-129035771D02*
X193571428Y-129083390D01*
X193571428Y-129083390D02*
X193619047Y-129178628D01*
X193619047Y-129178628D02*
X193619047Y-129464342D01*
X193619047Y-129464342D02*
X193571428Y-129559580D01*
X193571428Y-129559580D02*
X193523809Y-129607200D01*
X193523809Y-129607200D02*
X193428571Y-129654819D01*
X193428571Y-129654819D02*
X193285714Y-129654819D01*
X194190476Y-129654819D02*
X194095238Y-129607200D01*
X194095238Y-129607200D02*
X194047619Y-129511961D01*
X194047619Y-129511961D02*
X194047619Y-128654819D01*
X194952381Y-129607200D02*
X194857143Y-129654819D01*
X194857143Y-129654819D02*
X194666667Y-129654819D01*
X194666667Y-129654819D02*
X194571429Y-129607200D01*
X194571429Y-129607200D02*
X194523810Y-129511961D01*
X194523810Y-129511961D02*
X194523810Y-129131009D01*
X194523810Y-129131009D02*
X194571429Y-129035771D01*
X194571429Y-129035771D02*
X194666667Y-128988152D01*
X194666667Y-128988152D02*
X194857143Y-128988152D01*
X194857143Y-128988152D02*
X194952381Y-129035771D01*
X194952381Y-129035771D02*
X195000000Y-129131009D01*
X195000000Y-129131009D02*
X195000000Y-129226247D01*
X195000000Y-129226247D02*
X194523810Y-129321485D01*
X195190477Y-129750057D02*
X195952381Y-129750057D01*
X196142858Y-128750057D02*
X196190477Y-128702438D01*
X196190477Y-128702438D02*
X196285715Y-128654819D01*
X196285715Y-128654819D02*
X196523810Y-128654819D01*
X196523810Y-128654819D02*
X196619048Y-128702438D01*
X196619048Y-128702438D02*
X196666667Y-128750057D01*
X196666667Y-128750057D02*
X196714286Y-128845295D01*
X196714286Y-128845295D02*
X196714286Y-128940533D01*
X196714286Y-128940533D02*
X196666667Y-129083390D01*
X196666667Y-129083390D02*
X196095239Y-129654819D01*
X196095239Y-129654819D02*
X196714286Y-129654819D01*
X197142858Y-129559580D02*
X197190477Y-129607200D01*
X197190477Y-129607200D02*
X197142858Y-129654819D01*
X197142858Y-129654819D02*
X197095239Y-129607200D01*
X197095239Y-129607200D02*
X197142858Y-129559580D01*
X197142858Y-129559580D02*
X197142858Y-129654819D01*
X197571429Y-128750057D02*
X197619048Y-128702438D01*
X197619048Y-128702438D02*
X197714286Y-128654819D01*
X197714286Y-128654819D02*
X197952381Y-128654819D01*
X197952381Y-128654819D02*
X198047619Y-128702438D01*
X198047619Y-128702438D02*
X198095238Y-128750057D01*
X198095238Y-128750057D02*
X198142857Y-128845295D01*
X198142857Y-128845295D02*
X198142857Y-128940533D01*
X198142857Y-128940533D02*
X198095238Y-129083390D01*
X198095238Y-129083390D02*
X197523810Y-129654819D01*
X197523810Y-129654819D02*
X198142857Y-129654819D01*
X198571429Y-129654819D02*
X198571429Y-128988152D01*
X198571429Y-129083390D02*
X198619048Y-129035771D01*
X198619048Y-129035771D02*
X198714286Y-128988152D01*
X198714286Y-128988152D02*
X198857143Y-128988152D01*
X198857143Y-128988152D02*
X198952381Y-129035771D01*
X198952381Y-129035771D02*
X199000000Y-129131009D01*
X199000000Y-129131009D02*
X199000000Y-129654819D01*
X199000000Y-129131009D02*
X199047619Y-129035771D01*
X199047619Y-129035771D02*
X199142857Y-128988152D01*
X199142857Y-128988152D02*
X199285714Y-128988152D01*
X199285714Y-128988152D02*
X199380953Y-129035771D01*
X199380953Y-129035771D02*
X199428572Y-129131009D01*
X199428572Y-129131009D02*
X199428572Y-129654819D01*
X199904762Y-129654819D02*
X199904762Y-128988152D01*
X199904762Y-129083390D02*
X199952381Y-129035771D01*
X199952381Y-129035771D02*
X200047619Y-128988152D01*
X200047619Y-128988152D02*
X200190476Y-128988152D01*
X200190476Y-128988152D02*
X200285714Y-129035771D01*
X200285714Y-129035771D02*
X200333333Y-129131009D01*
X200333333Y-129131009D02*
X200333333Y-129654819D01*
X200333333Y-129131009D02*
X200380952Y-129035771D01*
X200380952Y-129035771D02*
X200476190Y-128988152D01*
X200476190Y-128988152D02*
X200619047Y-128988152D01*
X200619047Y-128988152D02*
X200714286Y-129035771D01*
X200714286Y-129035771D02*
X200761905Y-129131009D01*
X200761905Y-129131009D02*
X200761905Y-129654819D01*
X201000000Y-129750057D02*
X201761904Y-129750057D01*
X202000000Y-129654819D02*
X202000000Y-128654819D01*
X202000000Y-128654819D02*
X202333333Y-129369104D01*
X202333333Y-129369104D02*
X202666666Y-128654819D01*
X202666666Y-128654819D02*
X202666666Y-129654819D01*
X203095238Y-128750057D02*
X203142857Y-128702438D01*
X203142857Y-128702438D02*
X203238095Y-128654819D01*
X203238095Y-128654819D02*
X203476190Y-128654819D01*
X203476190Y-128654819D02*
X203571428Y-128702438D01*
X203571428Y-128702438D02*
X203619047Y-128750057D01*
X203619047Y-128750057D02*
X203666666Y-128845295D01*
X203666666Y-128845295D02*
X203666666Y-128940533D01*
X203666666Y-128940533D02*
X203619047Y-129083390D01*
X203619047Y-129083390D02*
X203047619Y-129654819D01*
X203047619Y-129654819D02*
X203666666Y-129654819D01*
X193166666Y-126454819D02*
X192833333Y-125978628D01*
X192595238Y-126454819D02*
X192595238Y-125454819D01*
X192595238Y-125454819D02*
X192976190Y-125454819D01*
X192976190Y-125454819D02*
X193071428Y-125502438D01*
X193071428Y-125502438D02*
X193119047Y-125550057D01*
X193119047Y-125550057D02*
X193166666Y-125645295D01*
X193166666Y-125645295D02*
X193166666Y-125788152D01*
X193166666Y-125788152D02*
X193119047Y-125883390D01*
X193119047Y-125883390D02*
X193071428Y-125931009D01*
X193071428Y-125931009D02*
X192976190Y-125978628D01*
X192976190Y-125978628D02*
X192595238Y-125978628D01*
X193595238Y-125931009D02*
X193928571Y-125931009D01*
X194071428Y-126454819D02*
X193595238Y-126454819D01*
X193595238Y-126454819D02*
X193595238Y-125454819D01*
X193595238Y-125454819D02*
X194071428Y-125454819D01*
X194833333Y-125931009D02*
X194500000Y-125931009D01*
X194500000Y-126454819D02*
X194500000Y-125454819D01*
X194500000Y-125454819D02*
X194976190Y-125454819D01*
X195500000Y-125454819D02*
X195500000Y-125692914D01*
X195261905Y-125597676D02*
X195500000Y-125692914D01*
X195500000Y-125692914D02*
X195738095Y-125597676D01*
X195357143Y-125883390D02*
X195500000Y-125692914D01*
X195500000Y-125692914D02*
X195642857Y-125883390D01*
X196261905Y-125454819D02*
X196261905Y-125692914D01*
X196023810Y-125597676D02*
X196261905Y-125692914D01*
X196261905Y-125692914D02*
X196500000Y-125597676D01*
X196119048Y-125883390D02*
X196261905Y-125692914D01*
X196261905Y-125692914D02*
X196404762Y-125883390D01*
%TO.C,SW2*%
X87397077Y-63022657D02*
X87506425Y-63126188D01*
X87506425Y-63126188D02*
X87722212Y-63226812D01*
X87722212Y-63226812D02*
X87828652Y-63223903D01*
X87828652Y-63223903D02*
X87891934Y-63200871D01*
X87891934Y-63200871D02*
X87975341Y-63134680D01*
X87975341Y-63134680D02*
X88015590Y-63048365D01*
X88015590Y-63048365D02*
X88012682Y-62941926D01*
X88012682Y-62941926D02*
X87989649Y-62878643D01*
X87989649Y-62878643D02*
X87923459Y-62795236D01*
X87923459Y-62795236D02*
X87770954Y-62671580D01*
X87770954Y-62671580D02*
X87704763Y-62588173D01*
X87704763Y-62588173D02*
X87681730Y-62524891D01*
X87681730Y-62524891D02*
X87678822Y-62418451D01*
X87678822Y-62418451D02*
X87719072Y-62332136D01*
X87719072Y-62332136D02*
X87802478Y-62265946D01*
X87802478Y-62265946D02*
X87865761Y-62242913D01*
X87865761Y-62242913D02*
X87972200Y-62240005D01*
X87972200Y-62240005D02*
X88187988Y-62340629D01*
X88187988Y-62340629D02*
X88297336Y-62444160D01*
X88619563Y-62541875D02*
X88412732Y-63548807D01*
X88412732Y-63548807D02*
X88887233Y-62981943D01*
X88887233Y-62981943D02*
X88757992Y-63709804D01*
X88757992Y-63709804D02*
X89396398Y-62904120D01*
X89063003Y-63957116D02*
X89753523Y-64279111D01*
X90009560Y-64293420D02*
X90432179Y-63387112D01*
X90432179Y-63387112D02*
X90777439Y-63548109D01*
X90777439Y-63548109D02*
X90843629Y-63631516D01*
X90843629Y-63631516D02*
X90866662Y-63694798D01*
X90866662Y-63694798D02*
X90869570Y-63801238D01*
X90869570Y-63801238D02*
X90809196Y-63930711D01*
X90809196Y-63930711D02*
X90725789Y-63996901D01*
X90725789Y-63996901D02*
X90662507Y-64019934D01*
X90662507Y-64019934D02*
X90556067Y-64022842D01*
X90556067Y-64022842D02*
X90210807Y-63861845D01*
X91586031Y-64292955D02*
X91304286Y-64897160D01*
X91197614Y-64111833D02*
X90976242Y-64586565D01*
X90976242Y-64586565D02*
X90979150Y-64693005D01*
X90979150Y-64693005D02*
X91045341Y-64776412D01*
X91045341Y-64776412D02*
X91174813Y-64836786D01*
X91174813Y-64836786D02*
X91281253Y-64833878D01*
X91281253Y-64833878D02*
X91344535Y-64810845D01*
X91712828Y-65035125D02*
X91779019Y-65118532D01*
X91779019Y-65118532D02*
X91951649Y-65199030D01*
X91951649Y-65199030D02*
X92058088Y-65196122D01*
X92058088Y-65196122D02*
X92141495Y-65129932D01*
X92141495Y-65129932D02*
X92161620Y-65086774D01*
X92161620Y-65086774D02*
X92158712Y-64980335D01*
X92158712Y-64980335D02*
X92092521Y-64896928D01*
X92092521Y-64896928D02*
X91963049Y-64836554D01*
X91963049Y-64836554D02*
X91896859Y-64753147D01*
X91896859Y-64753147D02*
X91893950Y-64646707D01*
X91893950Y-64646707D02*
X91914075Y-64603550D01*
X91914075Y-64603550D02*
X91997482Y-64537359D01*
X91997482Y-64537359D02*
X92103922Y-64534451D01*
X92103922Y-64534451D02*
X92233394Y-64594825D01*
X92233394Y-64594825D02*
X92299585Y-64678232D01*
X92469539Y-65440526D02*
X92892157Y-64534219D01*
X92857957Y-65621649D02*
X93079328Y-65146916D01*
X93079328Y-65146916D02*
X93076420Y-65040476D01*
X93076420Y-65040476D02*
X93010230Y-64957069D01*
X93010230Y-64957069D02*
X92880757Y-64896695D01*
X92880757Y-64896695D02*
X92774317Y-64899604D01*
X92774317Y-64899604D02*
X92711035Y-64922636D01*
%TO.C,REF\u002A\u002A*%
X96380952Y-129654819D02*
X96380952Y-128654819D01*
X96380952Y-128654819D02*
X96714285Y-129369104D01*
X96714285Y-129369104D02*
X97047618Y-128654819D01*
X97047618Y-128654819D02*
X97047618Y-129654819D01*
X97666666Y-129654819D02*
X97571428Y-129607200D01*
X97571428Y-129607200D02*
X97523809Y-129559580D01*
X97523809Y-129559580D02*
X97476190Y-129464342D01*
X97476190Y-129464342D02*
X97476190Y-129178628D01*
X97476190Y-129178628D02*
X97523809Y-129083390D01*
X97523809Y-129083390D02*
X97571428Y-129035771D01*
X97571428Y-129035771D02*
X97666666Y-128988152D01*
X97666666Y-128988152D02*
X97809523Y-128988152D01*
X97809523Y-128988152D02*
X97904761Y-129035771D01*
X97904761Y-129035771D02*
X97952380Y-129083390D01*
X97952380Y-129083390D02*
X97999999Y-129178628D01*
X97999999Y-129178628D02*
X97999999Y-129464342D01*
X97999999Y-129464342D02*
X97952380Y-129559580D01*
X97952380Y-129559580D02*
X97904761Y-129607200D01*
X97904761Y-129607200D02*
X97809523Y-129654819D01*
X97809523Y-129654819D02*
X97666666Y-129654819D01*
X98857142Y-128988152D02*
X98857142Y-129654819D01*
X98428571Y-128988152D02*
X98428571Y-129511961D01*
X98428571Y-129511961D02*
X98476190Y-129607200D01*
X98476190Y-129607200D02*
X98571428Y-129654819D01*
X98571428Y-129654819D02*
X98714285Y-129654819D01*
X98714285Y-129654819D02*
X98809523Y-129607200D01*
X98809523Y-129607200D02*
X98857142Y-129559580D01*
X99333333Y-128988152D02*
X99333333Y-129654819D01*
X99333333Y-129083390D02*
X99380952Y-129035771D01*
X99380952Y-129035771D02*
X99476190Y-128988152D01*
X99476190Y-128988152D02*
X99619047Y-128988152D01*
X99619047Y-128988152D02*
X99714285Y-129035771D01*
X99714285Y-129035771D02*
X99761904Y-129131009D01*
X99761904Y-129131009D02*
X99761904Y-129654819D01*
X100095238Y-128988152D02*
X100476190Y-128988152D01*
X100238095Y-128654819D02*
X100238095Y-129511961D01*
X100238095Y-129511961D02*
X100285714Y-129607200D01*
X100285714Y-129607200D02*
X100380952Y-129654819D01*
X100380952Y-129654819D02*
X100476190Y-129654819D01*
X100809524Y-129654819D02*
X100809524Y-128988152D01*
X100809524Y-128654819D02*
X100761905Y-128702438D01*
X100761905Y-128702438D02*
X100809524Y-128750057D01*
X100809524Y-128750057D02*
X100857143Y-128702438D01*
X100857143Y-128702438D02*
X100809524Y-128654819D01*
X100809524Y-128654819D02*
X100809524Y-128750057D01*
X101285714Y-128988152D02*
X101285714Y-129654819D01*
X101285714Y-129083390D02*
X101333333Y-129035771D01*
X101333333Y-129035771D02*
X101428571Y-128988152D01*
X101428571Y-128988152D02*
X101571428Y-128988152D01*
X101571428Y-128988152D02*
X101666666Y-129035771D01*
X101666666Y-129035771D02*
X101714285Y-129131009D01*
X101714285Y-129131009D02*
X101714285Y-129654819D01*
X102619047Y-128988152D02*
X102619047Y-129797676D01*
X102619047Y-129797676D02*
X102571428Y-129892914D01*
X102571428Y-129892914D02*
X102523809Y-129940533D01*
X102523809Y-129940533D02*
X102428571Y-129988152D01*
X102428571Y-129988152D02*
X102285714Y-129988152D01*
X102285714Y-129988152D02*
X102190476Y-129940533D01*
X102619047Y-129607200D02*
X102523809Y-129654819D01*
X102523809Y-129654819D02*
X102333333Y-129654819D01*
X102333333Y-129654819D02*
X102238095Y-129607200D01*
X102238095Y-129607200D02*
X102190476Y-129559580D01*
X102190476Y-129559580D02*
X102142857Y-129464342D01*
X102142857Y-129464342D02*
X102142857Y-129178628D01*
X102142857Y-129178628D02*
X102190476Y-129083390D01*
X102190476Y-129083390D02*
X102238095Y-129035771D01*
X102238095Y-129035771D02*
X102333333Y-128988152D01*
X102333333Y-128988152D02*
X102523809Y-128988152D01*
X102523809Y-128988152D02*
X102619047Y-129035771D01*
X103095238Y-129654819D02*
X103095238Y-128654819D01*
X103095238Y-129131009D02*
X103666666Y-129131009D01*
X103666666Y-129654819D02*
X103666666Y-128654819D01*
X104285714Y-129654819D02*
X104190476Y-129607200D01*
X104190476Y-129607200D02*
X104142857Y-129559580D01*
X104142857Y-129559580D02*
X104095238Y-129464342D01*
X104095238Y-129464342D02*
X104095238Y-129178628D01*
X104095238Y-129178628D02*
X104142857Y-129083390D01*
X104142857Y-129083390D02*
X104190476Y-129035771D01*
X104190476Y-129035771D02*
X104285714Y-128988152D01*
X104285714Y-128988152D02*
X104428571Y-128988152D01*
X104428571Y-128988152D02*
X104523809Y-129035771D01*
X104523809Y-129035771D02*
X104571428Y-129083390D01*
X104571428Y-129083390D02*
X104619047Y-129178628D01*
X104619047Y-129178628D02*
X104619047Y-129464342D01*
X104619047Y-129464342D02*
X104571428Y-129559580D01*
X104571428Y-129559580D02*
X104523809Y-129607200D01*
X104523809Y-129607200D02*
X104428571Y-129654819D01*
X104428571Y-129654819D02*
X104285714Y-129654819D01*
X105190476Y-129654819D02*
X105095238Y-129607200D01*
X105095238Y-129607200D02*
X105047619Y-129511961D01*
X105047619Y-129511961D02*
X105047619Y-128654819D01*
X105952381Y-129607200D02*
X105857143Y-129654819D01*
X105857143Y-129654819D02*
X105666667Y-129654819D01*
X105666667Y-129654819D02*
X105571429Y-129607200D01*
X105571429Y-129607200D02*
X105523810Y-129511961D01*
X105523810Y-129511961D02*
X105523810Y-129131009D01*
X105523810Y-129131009D02*
X105571429Y-129035771D01*
X105571429Y-129035771D02*
X105666667Y-128988152D01*
X105666667Y-128988152D02*
X105857143Y-128988152D01*
X105857143Y-128988152D02*
X105952381Y-129035771D01*
X105952381Y-129035771D02*
X106000000Y-129131009D01*
X106000000Y-129131009D02*
X106000000Y-129226247D01*
X106000000Y-129226247D02*
X105523810Y-129321485D01*
X106190477Y-129750057D02*
X106952381Y-129750057D01*
X107142858Y-128750057D02*
X107190477Y-128702438D01*
X107190477Y-128702438D02*
X107285715Y-128654819D01*
X107285715Y-128654819D02*
X107523810Y-128654819D01*
X107523810Y-128654819D02*
X107619048Y-128702438D01*
X107619048Y-128702438D02*
X107666667Y-128750057D01*
X107666667Y-128750057D02*
X107714286Y-128845295D01*
X107714286Y-128845295D02*
X107714286Y-128940533D01*
X107714286Y-128940533D02*
X107666667Y-129083390D01*
X107666667Y-129083390D02*
X107095239Y-129654819D01*
X107095239Y-129654819D02*
X107714286Y-129654819D01*
X108142858Y-129559580D02*
X108190477Y-129607200D01*
X108190477Y-129607200D02*
X108142858Y-129654819D01*
X108142858Y-129654819D02*
X108095239Y-129607200D01*
X108095239Y-129607200D02*
X108142858Y-129559580D01*
X108142858Y-129559580D02*
X108142858Y-129654819D01*
X108571429Y-128750057D02*
X108619048Y-128702438D01*
X108619048Y-128702438D02*
X108714286Y-128654819D01*
X108714286Y-128654819D02*
X108952381Y-128654819D01*
X108952381Y-128654819D02*
X109047619Y-128702438D01*
X109047619Y-128702438D02*
X109095238Y-128750057D01*
X109095238Y-128750057D02*
X109142857Y-128845295D01*
X109142857Y-128845295D02*
X109142857Y-128940533D01*
X109142857Y-128940533D02*
X109095238Y-129083390D01*
X109095238Y-129083390D02*
X108523810Y-129654819D01*
X108523810Y-129654819D02*
X109142857Y-129654819D01*
X109571429Y-129654819D02*
X109571429Y-128988152D01*
X109571429Y-129083390D02*
X109619048Y-129035771D01*
X109619048Y-129035771D02*
X109714286Y-128988152D01*
X109714286Y-128988152D02*
X109857143Y-128988152D01*
X109857143Y-128988152D02*
X109952381Y-129035771D01*
X109952381Y-129035771D02*
X110000000Y-129131009D01*
X110000000Y-129131009D02*
X110000000Y-129654819D01*
X110000000Y-129131009D02*
X110047619Y-129035771D01*
X110047619Y-129035771D02*
X110142857Y-128988152D01*
X110142857Y-128988152D02*
X110285714Y-128988152D01*
X110285714Y-128988152D02*
X110380953Y-129035771D01*
X110380953Y-129035771D02*
X110428572Y-129131009D01*
X110428572Y-129131009D02*
X110428572Y-129654819D01*
X110904762Y-129654819D02*
X110904762Y-128988152D01*
X110904762Y-129083390D02*
X110952381Y-129035771D01*
X110952381Y-129035771D02*
X111047619Y-128988152D01*
X111047619Y-128988152D02*
X111190476Y-128988152D01*
X111190476Y-128988152D02*
X111285714Y-129035771D01*
X111285714Y-129035771D02*
X111333333Y-129131009D01*
X111333333Y-129131009D02*
X111333333Y-129654819D01*
X111333333Y-129131009D02*
X111380952Y-129035771D01*
X111380952Y-129035771D02*
X111476190Y-128988152D01*
X111476190Y-128988152D02*
X111619047Y-128988152D01*
X111619047Y-128988152D02*
X111714286Y-129035771D01*
X111714286Y-129035771D02*
X111761905Y-129131009D01*
X111761905Y-129131009D02*
X111761905Y-129654819D01*
X112000000Y-129750057D02*
X112761904Y-129750057D01*
X113000000Y-129654819D02*
X113000000Y-128654819D01*
X113000000Y-128654819D02*
X113333333Y-129369104D01*
X113333333Y-129369104D02*
X113666666Y-128654819D01*
X113666666Y-128654819D02*
X113666666Y-129654819D01*
X114095238Y-128750057D02*
X114142857Y-128702438D01*
X114142857Y-128702438D02*
X114238095Y-128654819D01*
X114238095Y-128654819D02*
X114476190Y-128654819D01*
X114476190Y-128654819D02*
X114571428Y-128702438D01*
X114571428Y-128702438D02*
X114619047Y-128750057D01*
X114619047Y-128750057D02*
X114666666Y-128845295D01*
X114666666Y-128845295D02*
X114666666Y-128940533D01*
X114666666Y-128940533D02*
X114619047Y-129083390D01*
X114619047Y-129083390D02*
X114047619Y-129654819D01*
X114047619Y-129654819D02*
X114666666Y-129654819D01*
X104166666Y-126454819D02*
X103833333Y-125978628D01*
X103595238Y-126454819D02*
X103595238Y-125454819D01*
X103595238Y-125454819D02*
X103976190Y-125454819D01*
X103976190Y-125454819D02*
X104071428Y-125502438D01*
X104071428Y-125502438D02*
X104119047Y-125550057D01*
X104119047Y-125550057D02*
X104166666Y-125645295D01*
X104166666Y-125645295D02*
X104166666Y-125788152D01*
X104166666Y-125788152D02*
X104119047Y-125883390D01*
X104119047Y-125883390D02*
X104071428Y-125931009D01*
X104071428Y-125931009D02*
X103976190Y-125978628D01*
X103976190Y-125978628D02*
X103595238Y-125978628D01*
X104595238Y-125931009D02*
X104928571Y-125931009D01*
X105071428Y-126454819D02*
X104595238Y-126454819D01*
X104595238Y-126454819D02*
X104595238Y-125454819D01*
X104595238Y-125454819D02*
X105071428Y-125454819D01*
X105833333Y-125931009D02*
X105500000Y-125931009D01*
X105500000Y-126454819D02*
X105500000Y-125454819D01*
X105500000Y-125454819D02*
X105976190Y-125454819D01*
X106500000Y-125454819D02*
X106500000Y-125692914D01*
X106261905Y-125597676D02*
X106500000Y-125692914D01*
X106500000Y-125692914D02*
X106738095Y-125597676D01*
X106357143Y-125883390D02*
X106500000Y-125692914D01*
X106500000Y-125692914D02*
X106642857Y-125883390D01*
X107261905Y-125454819D02*
X107261905Y-125692914D01*
X107023810Y-125597676D02*
X107261905Y-125692914D01*
X107261905Y-125692914D02*
X107500000Y-125597676D01*
X107119048Y-125883390D02*
X107261905Y-125692914D01*
X107261905Y-125692914D02*
X107404762Y-125883390D01*
%TO.C,SW4*%
X120024157Y-78236914D02*
X120133505Y-78340445D01*
X120133505Y-78340445D02*
X120349292Y-78441069D01*
X120349292Y-78441069D02*
X120455732Y-78438160D01*
X120455732Y-78438160D02*
X120519014Y-78415128D01*
X120519014Y-78415128D02*
X120602421Y-78348937D01*
X120602421Y-78348937D02*
X120642670Y-78262622D01*
X120642670Y-78262622D02*
X120639762Y-78156183D01*
X120639762Y-78156183D02*
X120616729Y-78092900D01*
X120616729Y-78092900D02*
X120550539Y-78009493D01*
X120550539Y-78009493D02*
X120398034Y-77885837D01*
X120398034Y-77885837D02*
X120331843Y-77802430D01*
X120331843Y-77802430D02*
X120308810Y-77739148D01*
X120308810Y-77739148D02*
X120305902Y-77632708D01*
X120305902Y-77632708D02*
X120346152Y-77546393D01*
X120346152Y-77546393D02*
X120429558Y-77480203D01*
X120429558Y-77480203D02*
X120492841Y-77457170D01*
X120492841Y-77457170D02*
X120599280Y-77454262D01*
X120599280Y-77454262D02*
X120815068Y-77554886D01*
X120815068Y-77554886D02*
X120924416Y-77658417D01*
X121246643Y-77756132D02*
X121039812Y-78763064D01*
X121039812Y-78763064D02*
X121514313Y-78196200D01*
X121514313Y-78196200D02*
X121385072Y-78924061D01*
X121385072Y-78924061D02*
X122023478Y-78118377D01*
X121690083Y-79171373D02*
X122380603Y-79493368D01*
X122636640Y-79507677D02*
X123059259Y-78601369D01*
X123059259Y-78601369D02*
X123404519Y-78762366D01*
X123404519Y-78762366D02*
X123470709Y-78845773D01*
X123470709Y-78845773D02*
X123493742Y-78909055D01*
X123493742Y-78909055D02*
X123496650Y-79015495D01*
X123496650Y-79015495D02*
X123436276Y-79144968D01*
X123436276Y-79144968D02*
X123352869Y-79211158D01*
X123352869Y-79211158D02*
X123289587Y-79234191D01*
X123289587Y-79234191D02*
X123183147Y-79237099D01*
X123183147Y-79237099D02*
X122837887Y-79076102D01*
X124213111Y-79507212D02*
X123931366Y-80111417D01*
X123824694Y-79326090D02*
X123603322Y-79800822D01*
X123603322Y-79800822D02*
X123606230Y-79907262D01*
X123606230Y-79907262D02*
X123672421Y-79990669D01*
X123672421Y-79990669D02*
X123801893Y-80051043D01*
X123801893Y-80051043D02*
X123908333Y-80048135D01*
X123908333Y-80048135D02*
X123971615Y-80025102D01*
X124339908Y-80249382D02*
X124406099Y-80332789D01*
X124406099Y-80332789D02*
X124578729Y-80413287D01*
X124578729Y-80413287D02*
X124685168Y-80410379D01*
X124685168Y-80410379D02*
X124768575Y-80344189D01*
X124768575Y-80344189D02*
X124788700Y-80301031D01*
X124788700Y-80301031D02*
X124785792Y-80194592D01*
X124785792Y-80194592D02*
X124719601Y-80111185D01*
X124719601Y-80111185D02*
X124590129Y-80050811D01*
X124590129Y-80050811D02*
X124523939Y-79967404D01*
X124523939Y-79967404D02*
X124521030Y-79860964D01*
X124521030Y-79860964D02*
X124541155Y-79817807D01*
X124541155Y-79817807D02*
X124624562Y-79751616D01*
X124624562Y-79751616D02*
X124731002Y-79748708D01*
X124731002Y-79748708D02*
X124860474Y-79809082D01*
X124860474Y-79809082D02*
X124926665Y-79892489D01*
X125096619Y-80654783D02*
X125519237Y-79748476D01*
X125485037Y-80835906D02*
X125706408Y-80361173D01*
X125706408Y-80361173D02*
X125703500Y-80254733D01*
X125703500Y-80254733D02*
X125637310Y-80171326D01*
X125637310Y-80171326D02*
X125507837Y-80110952D01*
X125507837Y-80110952D02*
X125401397Y-80113861D01*
X125401397Y-80113861D02*
X125338115Y-80136893D01*
%TO.C,SW10*%
X176585547Y-117332684D02*
X176735144Y-117315468D01*
X176735144Y-117315468D02*
X176950932Y-117214844D01*
X176950932Y-117214844D02*
X177017122Y-117131438D01*
X177017122Y-117131438D02*
X177040155Y-117068155D01*
X177040155Y-117068155D02*
X177043063Y-116961716D01*
X177043063Y-116961716D02*
X177002814Y-116875401D01*
X177002814Y-116875401D02*
X176919407Y-116809210D01*
X176919407Y-116809210D02*
X176856125Y-116786177D01*
X176856125Y-116786177D02*
X176749685Y-116783269D01*
X176749685Y-116783269D02*
X176556930Y-116820611D01*
X176556930Y-116820611D02*
X176450491Y-116817702D01*
X176450491Y-116817702D02*
X176387208Y-116794670D01*
X176387208Y-116794670D02*
X176303801Y-116728479D01*
X176303801Y-116728479D02*
X176263552Y-116642164D01*
X176263552Y-116642164D02*
X176266460Y-116535724D01*
X176266460Y-116535724D02*
X176289493Y-116472442D01*
X176289493Y-116472442D02*
X176355683Y-116389035D01*
X176355683Y-116389035D02*
X176571471Y-116288412D01*
X176571471Y-116288412D02*
X176721068Y-116271195D01*
X177003046Y-116087165D02*
X177641452Y-116892850D01*
X177641452Y-116892850D02*
X177512212Y-116164988D01*
X177512212Y-116164988D02*
X177986712Y-116731852D01*
X177986712Y-116731852D02*
X177779881Y-115724921D01*
X178372221Y-116657170D02*
X179062742Y-116335175D01*
X179238280Y-116148236D02*
X178815662Y-115241929D01*
X178815662Y-115241929D02*
X179160922Y-115080931D01*
X179160922Y-115080931D02*
X179267362Y-115083839D01*
X179267362Y-115083839D02*
X179330644Y-115106872D01*
X179330644Y-115106872D02*
X179414051Y-115173063D01*
X179414051Y-115173063D02*
X179474425Y-115302535D01*
X179474425Y-115302535D02*
X179471517Y-115408975D01*
X179471517Y-115408975D02*
X179448484Y-115472257D01*
X179448484Y-115472257D02*
X179382293Y-115555664D01*
X179382293Y-115555664D02*
X179037033Y-115716661D01*
X180251260Y-114940291D02*
X180533006Y-115544496D01*
X179862842Y-115121413D02*
X180084214Y-115596146D01*
X180084214Y-115596146D02*
X180167621Y-115662336D01*
X180167621Y-115662336D02*
X180274060Y-115665244D01*
X180274060Y-115665244D02*
X180403533Y-115604870D01*
X180403533Y-115604870D02*
X180469723Y-115521463D01*
X180469723Y-115521463D02*
X180492756Y-115458181D01*
X180901299Y-115320216D02*
X181007738Y-115323125D01*
X181007738Y-115323125D02*
X181180368Y-115242626D01*
X181180368Y-115242626D02*
X181246559Y-115159219D01*
X181246559Y-115159219D02*
X181249467Y-115052779D01*
X181249467Y-115052779D02*
X181229342Y-115009622D01*
X181229342Y-115009622D02*
X181145935Y-114943431D01*
X181145935Y-114943431D02*
X181039496Y-114940523D01*
X181039496Y-114940523D02*
X180910023Y-115000897D01*
X180910023Y-115000897D02*
X180803583Y-114997989D01*
X180803583Y-114997989D02*
X180720176Y-114931799D01*
X180720176Y-114931799D02*
X180700052Y-114888641D01*
X180700052Y-114888641D02*
X180702960Y-114782202D01*
X180702960Y-114782202D02*
X180769150Y-114698795D01*
X180769150Y-114698795D02*
X180898623Y-114638421D01*
X180898623Y-114638421D02*
X181005063Y-114641329D01*
X181698259Y-115001130D02*
X181275640Y-114094822D01*
X182086676Y-114820007D02*
X181865305Y-114345275D01*
X181865305Y-114345275D02*
X181781898Y-114279084D01*
X181781898Y-114279084D02*
X181675458Y-114276176D01*
X181675458Y-114276176D02*
X181545986Y-114336550D01*
X181545986Y-114336550D02*
X181479795Y-114419957D01*
X181479795Y-114419957D02*
X181456763Y-114483239D01*
%TO.C,SW12*%
X161452381Y-129357201D02*
X161595238Y-129404820D01*
X161595238Y-129404820D02*
X161833333Y-129404820D01*
X161833333Y-129404820D02*
X161928571Y-129357201D01*
X161928571Y-129357201D02*
X161976190Y-129309581D01*
X161976190Y-129309581D02*
X162023809Y-129214343D01*
X162023809Y-129214343D02*
X162023809Y-129119105D01*
X162023809Y-129119105D02*
X161976190Y-129023867D01*
X161976190Y-129023867D02*
X161928571Y-128976248D01*
X161928571Y-128976248D02*
X161833333Y-128928629D01*
X161833333Y-128928629D02*
X161642857Y-128881010D01*
X161642857Y-128881010D02*
X161547619Y-128833391D01*
X161547619Y-128833391D02*
X161500000Y-128785772D01*
X161500000Y-128785772D02*
X161452381Y-128690534D01*
X161452381Y-128690534D02*
X161452381Y-128595296D01*
X161452381Y-128595296D02*
X161500000Y-128500058D01*
X161500000Y-128500058D02*
X161547619Y-128452439D01*
X161547619Y-128452439D02*
X161642857Y-128404820D01*
X161642857Y-128404820D02*
X161880952Y-128404820D01*
X161880952Y-128404820D02*
X162023809Y-128452439D01*
X162357143Y-128404820D02*
X162595238Y-129404820D01*
X162595238Y-129404820D02*
X162785714Y-128690534D01*
X162785714Y-128690534D02*
X162976190Y-129404820D01*
X162976190Y-129404820D02*
X163214286Y-128404820D01*
X163357143Y-129500058D02*
X164119047Y-129500058D01*
X164357143Y-129404820D02*
X164357143Y-128404820D01*
X164357143Y-128404820D02*
X164738095Y-128404820D01*
X164738095Y-128404820D02*
X164833333Y-128452439D01*
X164833333Y-128452439D02*
X164880952Y-128500058D01*
X164880952Y-128500058D02*
X164928571Y-128595296D01*
X164928571Y-128595296D02*
X164928571Y-128738153D01*
X164928571Y-128738153D02*
X164880952Y-128833391D01*
X164880952Y-128833391D02*
X164833333Y-128881010D01*
X164833333Y-128881010D02*
X164738095Y-128928629D01*
X164738095Y-128928629D02*
X164357143Y-128928629D01*
X165785714Y-128738153D02*
X165785714Y-129404820D01*
X165357143Y-128738153D02*
X165357143Y-129261962D01*
X165357143Y-129261962D02*
X165404762Y-129357201D01*
X165404762Y-129357201D02*
X165500000Y-129404820D01*
X165500000Y-129404820D02*
X165642857Y-129404820D01*
X165642857Y-129404820D02*
X165738095Y-129357201D01*
X165738095Y-129357201D02*
X165785714Y-129309581D01*
X166214286Y-129357201D02*
X166309524Y-129404820D01*
X166309524Y-129404820D02*
X166500000Y-129404820D01*
X166500000Y-129404820D02*
X166595238Y-129357201D01*
X166595238Y-129357201D02*
X166642857Y-129261962D01*
X166642857Y-129261962D02*
X166642857Y-129214343D01*
X166642857Y-129214343D02*
X166595238Y-129119105D01*
X166595238Y-129119105D02*
X166500000Y-129071486D01*
X166500000Y-129071486D02*
X166357143Y-129071486D01*
X166357143Y-129071486D02*
X166261905Y-129023867D01*
X166261905Y-129023867D02*
X166214286Y-128928629D01*
X166214286Y-128928629D02*
X166214286Y-128881010D01*
X166214286Y-128881010D02*
X166261905Y-128785772D01*
X166261905Y-128785772D02*
X166357143Y-128738153D01*
X166357143Y-128738153D02*
X166500000Y-128738153D01*
X166500000Y-128738153D02*
X166595238Y-128785772D01*
X167071429Y-129404820D02*
X167071429Y-128404820D01*
X167500000Y-129404820D02*
X167500000Y-128881010D01*
X167500000Y-128881010D02*
X167452381Y-128785772D01*
X167452381Y-128785772D02*
X167357143Y-128738153D01*
X167357143Y-128738153D02*
X167214286Y-128738153D01*
X167214286Y-128738153D02*
X167119048Y-128785772D01*
X167119048Y-128785772D02*
X167071429Y-128833391D01*
X162190476Y-124907201D02*
X162333333Y-124954820D01*
X162333333Y-124954820D02*
X162571428Y-124954820D01*
X162571428Y-124954820D02*
X162666666Y-124907201D01*
X162666666Y-124907201D02*
X162714285Y-124859581D01*
X162714285Y-124859581D02*
X162761904Y-124764343D01*
X162761904Y-124764343D02*
X162761904Y-124669105D01*
X162761904Y-124669105D02*
X162714285Y-124573867D01*
X162714285Y-124573867D02*
X162666666Y-124526248D01*
X162666666Y-124526248D02*
X162571428Y-124478629D01*
X162571428Y-124478629D02*
X162380952Y-124431010D01*
X162380952Y-124431010D02*
X162285714Y-124383391D01*
X162285714Y-124383391D02*
X162238095Y-124335772D01*
X162238095Y-124335772D02*
X162190476Y-124240534D01*
X162190476Y-124240534D02*
X162190476Y-124145296D01*
X162190476Y-124145296D02*
X162238095Y-124050058D01*
X162238095Y-124050058D02*
X162285714Y-124002439D01*
X162285714Y-124002439D02*
X162380952Y-123954820D01*
X162380952Y-123954820D02*
X162619047Y-123954820D01*
X162619047Y-123954820D02*
X162761904Y-124002439D01*
X163095238Y-123954820D02*
X163333333Y-124954820D01*
X163333333Y-124954820D02*
X163523809Y-124240534D01*
X163523809Y-124240534D02*
X163714285Y-124954820D01*
X163714285Y-124954820D02*
X163952381Y-123954820D01*
X164857142Y-124954820D02*
X164285714Y-124954820D01*
X164571428Y-124954820D02*
X164571428Y-123954820D01*
X164571428Y-123954820D02*
X164476190Y-124097677D01*
X164476190Y-124097677D02*
X164380952Y-124192915D01*
X164380952Y-124192915D02*
X164285714Y-124240534D01*
X165238095Y-124050058D02*
X165285714Y-124002439D01*
X165285714Y-124002439D02*
X165380952Y-123954820D01*
X165380952Y-123954820D02*
X165619047Y-123954820D01*
X165619047Y-123954820D02*
X165714285Y-124002439D01*
X165714285Y-124002439D02*
X165761904Y-124050058D01*
X165761904Y-124050058D02*
X165809523Y-124145296D01*
X165809523Y-124145296D02*
X165809523Y-124240534D01*
X165809523Y-124240534D02*
X165761904Y-124383391D01*
X165761904Y-124383391D02*
X165190476Y-124954820D01*
X165190476Y-124954820D02*
X165809523Y-124954820D01*
%TO.C,REF\u002A\u002A*%
X158380952Y-84904819D02*
X158380952Y-83904819D01*
X158380952Y-83904819D02*
X158714285Y-84619104D01*
X158714285Y-84619104D02*
X159047618Y-83904819D01*
X159047618Y-83904819D02*
X159047618Y-84904819D01*
X159666666Y-84904819D02*
X159571428Y-84857200D01*
X159571428Y-84857200D02*
X159523809Y-84809580D01*
X159523809Y-84809580D02*
X159476190Y-84714342D01*
X159476190Y-84714342D02*
X159476190Y-84428628D01*
X159476190Y-84428628D02*
X159523809Y-84333390D01*
X159523809Y-84333390D02*
X159571428Y-84285771D01*
X159571428Y-84285771D02*
X159666666Y-84238152D01*
X159666666Y-84238152D02*
X159809523Y-84238152D01*
X159809523Y-84238152D02*
X159904761Y-84285771D01*
X159904761Y-84285771D02*
X159952380Y-84333390D01*
X159952380Y-84333390D02*
X159999999Y-84428628D01*
X159999999Y-84428628D02*
X159999999Y-84714342D01*
X159999999Y-84714342D02*
X159952380Y-84809580D01*
X159952380Y-84809580D02*
X159904761Y-84857200D01*
X159904761Y-84857200D02*
X159809523Y-84904819D01*
X159809523Y-84904819D02*
X159666666Y-84904819D01*
X160857142Y-84238152D02*
X160857142Y-84904819D01*
X160428571Y-84238152D02*
X160428571Y-84761961D01*
X160428571Y-84761961D02*
X160476190Y-84857200D01*
X160476190Y-84857200D02*
X160571428Y-84904819D01*
X160571428Y-84904819D02*
X160714285Y-84904819D01*
X160714285Y-84904819D02*
X160809523Y-84857200D01*
X160809523Y-84857200D02*
X160857142Y-84809580D01*
X161333333Y-84238152D02*
X161333333Y-84904819D01*
X161333333Y-84333390D02*
X161380952Y-84285771D01*
X161380952Y-84285771D02*
X161476190Y-84238152D01*
X161476190Y-84238152D02*
X161619047Y-84238152D01*
X161619047Y-84238152D02*
X161714285Y-84285771D01*
X161714285Y-84285771D02*
X161761904Y-84381009D01*
X161761904Y-84381009D02*
X161761904Y-84904819D01*
X162095238Y-84238152D02*
X162476190Y-84238152D01*
X162238095Y-83904819D02*
X162238095Y-84761961D01*
X162238095Y-84761961D02*
X162285714Y-84857200D01*
X162285714Y-84857200D02*
X162380952Y-84904819D01*
X162380952Y-84904819D02*
X162476190Y-84904819D01*
X162809524Y-84904819D02*
X162809524Y-84238152D01*
X162809524Y-83904819D02*
X162761905Y-83952438D01*
X162761905Y-83952438D02*
X162809524Y-84000057D01*
X162809524Y-84000057D02*
X162857143Y-83952438D01*
X162857143Y-83952438D02*
X162809524Y-83904819D01*
X162809524Y-83904819D02*
X162809524Y-84000057D01*
X163285714Y-84238152D02*
X163285714Y-84904819D01*
X163285714Y-84333390D02*
X163333333Y-84285771D01*
X163333333Y-84285771D02*
X163428571Y-84238152D01*
X163428571Y-84238152D02*
X163571428Y-84238152D01*
X163571428Y-84238152D02*
X163666666Y-84285771D01*
X163666666Y-84285771D02*
X163714285Y-84381009D01*
X163714285Y-84381009D02*
X163714285Y-84904819D01*
X164619047Y-84238152D02*
X164619047Y-85047676D01*
X164619047Y-85047676D02*
X164571428Y-85142914D01*
X164571428Y-85142914D02*
X164523809Y-85190533D01*
X164523809Y-85190533D02*
X164428571Y-85238152D01*
X164428571Y-85238152D02*
X164285714Y-85238152D01*
X164285714Y-85238152D02*
X164190476Y-85190533D01*
X164619047Y-84857200D02*
X164523809Y-84904819D01*
X164523809Y-84904819D02*
X164333333Y-84904819D01*
X164333333Y-84904819D02*
X164238095Y-84857200D01*
X164238095Y-84857200D02*
X164190476Y-84809580D01*
X164190476Y-84809580D02*
X164142857Y-84714342D01*
X164142857Y-84714342D02*
X164142857Y-84428628D01*
X164142857Y-84428628D02*
X164190476Y-84333390D01*
X164190476Y-84333390D02*
X164238095Y-84285771D01*
X164238095Y-84285771D02*
X164333333Y-84238152D01*
X164333333Y-84238152D02*
X164523809Y-84238152D01*
X164523809Y-84238152D02*
X164619047Y-84285771D01*
X165095238Y-84904819D02*
X165095238Y-83904819D01*
X165095238Y-84381009D02*
X165666666Y-84381009D01*
X165666666Y-84904819D02*
X165666666Y-83904819D01*
X166285714Y-84904819D02*
X166190476Y-84857200D01*
X166190476Y-84857200D02*
X166142857Y-84809580D01*
X166142857Y-84809580D02*
X166095238Y-84714342D01*
X166095238Y-84714342D02*
X166095238Y-84428628D01*
X166095238Y-84428628D02*
X166142857Y-84333390D01*
X166142857Y-84333390D02*
X166190476Y-84285771D01*
X166190476Y-84285771D02*
X166285714Y-84238152D01*
X166285714Y-84238152D02*
X166428571Y-84238152D01*
X166428571Y-84238152D02*
X166523809Y-84285771D01*
X166523809Y-84285771D02*
X166571428Y-84333390D01*
X166571428Y-84333390D02*
X166619047Y-84428628D01*
X166619047Y-84428628D02*
X166619047Y-84714342D01*
X166619047Y-84714342D02*
X166571428Y-84809580D01*
X166571428Y-84809580D02*
X166523809Y-84857200D01*
X166523809Y-84857200D02*
X166428571Y-84904819D01*
X166428571Y-84904819D02*
X166285714Y-84904819D01*
X167190476Y-84904819D02*
X167095238Y-84857200D01*
X167095238Y-84857200D02*
X167047619Y-84761961D01*
X167047619Y-84761961D02*
X167047619Y-83904819D01*
X167952381Y-84857200D02*
X167857143Y-84904819D01*
X167857143Y-84904819D02*
X167666667Y-84904819D01*
X167666667Y-84904819D02*
X167571429Y-84857200D01*
X167571429Y-84857200D02*
X167523810Y-84761961D01*
X167523810Y-84761961D02*
X167523810Y-84381009D01*
X167523810Y-84381009D02*
X167571429Y-84285771D01*
X167571429Y-84285771D02*
X167666667Y-84238152D01*
X167666667Y-84238152D02*
X167857143Y-84238152D01*
X167857143Y-84238152D02*
X167952381Y-84285771D01*
X167952381Y-84285771D02*
X168000000Y-84381009D01*
X168000000Y-84381009D02*
X168000000Y-84476247D01*
X168000000Y-84476247D02*
X167523810Y-84571485D01*
X168190477Y-85000057D02*
X168952381Y-85000057D01*
X169142858Y-84000057D02*
X169190477Y-83952438D01*
X169190477Y-83952438D02*
X169285715Y-83904819D01*
X169285715Y-83904819D02*
X169523810Y-83904819D01*
X169523810Y-83904819D02*
X169619048Y-83952438D01*
X169619048Y-83952438D02*
X169666667Y-84000057D01*
X169666667Y-84000057D02*
X169714286Y-84095295D01*
X169714286Y-84095295D02*
X169714286Y-84190533D01*
X169714286Y-84190533D02*
X169666667Y-84333390D01*
X169666667Y-84333390D02*
X169095239Y-84904819D01*
X169095239Y-84904819D02*
X169714286Y-84904819D01*
X170142858Y-84809580D02*
X170190477Y-84857200D01*
X170190477Y-84857200D02*
X170142858Y-84904819D01*
X170142858Y-84904819D02*
X170095239Y-84857200D01*
X170095239Y-84857200D02*
X170142858Y-84809580D01*
X170142858Y-84809580D02*
X170142858Y-84904819D01*
X170571429Y-84000057D02*
X170619048Y-83952438D01*
X170619048Y-83952438D02*
X170714286Y-83904819D01*
X170714286Y-83904819D02*
X170952381Y-83904819D01*
X170952381Y-83904819D02*
X171047619Y-83952438D01*
X171047619Y-83952438D02*
X171095238Y-84000057D01*
X171095238Y-84000057D02*
X171142857Y-84095295D01*
X171142857Y-84095295D02*
X171142857Y-84190533D01*
X171142857Y-84190533D02*
X171095238Y-84333390D01*
X171095238Y-84333390D02*
X170523810Y-84904819D01*
X170523810Y-84904819D02*
X171142857Y-84904819D01*
X171571429Y-84904819D02*
X171571429Y-84238152D01*
X171571429Y-84333390D02*
X171619048Y-84285771D01*
X171619048Y-84285771D02*
X171714286Y-84238152D01*
X171714286Y-84238152D02*
X171857143Y-84238152D01*
X171857143Y-84238152D02*
X171952381Y-84285771D01*
X171952381Y-84285771D02*
X172000000Y-84381009D01*
X172000000Y-84381009D02*
X172000000Y-84904819D01*
X172000000Y-84381009D02*
X172047619Y-84285771D01*
X172047619Y-84285771D02*
X172142857Y-84238152D01*
X172142857Y-84238152D02*
X172285714Y-84238152D01*
X172285714Y-84238152D02*
X172380953Y-84285771D01*
X172380953Y-84285771D02*
X172428572Y-84381009D01*
X172428572Y-84381009D02*
X172428572Y-84904819D01*
X172904762Y-84904819D02*
X172904762Y-84238152D01*
X172904762Y-84333390D02*
X172952381Y-84285771D01*
X172952381Y-84285771D02*
X173047619Y-84238152D01*
X173047619Y-84238152D02*
X173190476Y-84238152D01*
X173190476Y-84238152D02*
X173285714Y-84285771D01*
X173285714Y-84285771D02*
X173333333Y-84381009D01*
X173333333Y-84381009D02*
X173333333Y-84904819D01*
X173333333Y-84381009D02*
X173380952Y-84285771D01*
X173380952Y-84285771D02*
X173476190Y-84238152D01*
X173476190Y-84238152D02*
X173619047Y-84238152D01*
X173619047Y-84238152D02*
X173714286Y-84285771D01*
X173714286Y-84285771D02*
X173761905Y-84381009D01*
X173761905Y-84381009D02*
X173761905Y-84904819D01*
X174000000Y-85000057D02*
X174761904Y-85000057D01*
X175000000Y-84904819D02*
X175000000Y-83904819D01*
X175000000Y-83904819D02*
X175333333Y-84619104D01*
X175333333Y-84619104D02*
X175666666Y-83904819D01*
X175666666Y-83904819D02*
X175666666Y-84904819D01*
X176095238Y-84000057D02*
X176142857Y-83952438D01*
X176142857Y-83952438D02*
X176238095Y-83904819D01*
X176238095Y-83904819D02*
X176476190Y-83904819D01*
X176476190Y-83904819D02*
X176571428Y-83952438D01*
X176571428Y-83952438D02*
X176619047Y-84000057D01*
X176619047Y-84000057D02*
X176666666Y-84095295D01*
X176666666Y-84095295D02*
X176666666Y-84190533D01*
X176666666Y-84190533D02*
X176619047Y-84333390D01*
X176619047Y-84333390D02*
X176047619Y-84904819D01*
X176047619Y-84904819D02*
X176666666Y-84904819D01*
X166166666Y-81704819D02*
X165833333Y-81228628D01*
X165595238Y-81704819D02*
X165595238Y-80704819D01*
X165595238Y-80704819D02*
X165976190Y-80704819D01*
X165976190Y-80704819D02*
X166071428Y-80752438D01*
X166071428Y-80752438D02*
X166119047Y-80800057D01*
X166119047Y-80800057D02*
X166166666Y-80895295D01*
X166166666Y-80895295D02*
X166166666Y-81038152D01*
X166166666Y-81038152D02*
X166119047Y-81133390D01*
X166119047Y-81133390D02*
X166071428Y-81181009D01*
X166071428Y-81181009D02*
X165976190Y-81228628D01*
X165976190Y-81228628D02*
X165595238Y-81228628D01*
X166595238Y-81181009D02*
X166928571Y-81181009D01*
X167071428Y-81704819D02*
X166595238Y-81704819D01*
X166595238Y-81704819D02*
X166595238Y-80704819D01*
X166595238Y-80704819D02*
X167071428Y-80704819D01*
X167833333Y-81181009D02*
X167500000Y-81181009D01*
X167500000Y-81704819D02*
X167500000Y-80704819D01*
X167500000Y-80704819D02*
X167976190Y-80704819D01*
X168500000Y-80704819D02*
X168500000Y-80942914D01*
X168261905Y-80847676D02*
X168500000Y-80942914D01*
X168500000Y-80942914D02*
X168738095Y-80847676D01*
X168357143Y-81133390D02*
X168500000Y-80942914D01*
X168500000Y-80942914D02*
X168642857Y-81133390D01*
X169261905Y-80704819D02*
X169261905Y-80942914D01*
X169023810Y-80847676D02*
X169261905Y-80942914D01*
X169261905Y-80942914D02*
X169500000Y-80847676D01*
X169119048Y-81133390D02*
X169261905Y-80942914D01*
X169261905Y-80942914D02*
X169404762Y-81133390D01*
%TO.C,SW7*%
X207078762Y-65598615D02*
X207228359Y-65581399D01*
X207228359Y-65581399D02*
X207444147Y-65480775D01*
X207444147Y-65480775D02*
X207510337Y-65397369D01*
X207510337Y-65397369D02*
X207533370Y-65334086D01*
X207533370Y-65334086D02*
X207536278Y-65227647D01*
X207536278Y-65227647D02*
X207496029Y-65141332D01*
X207496029Y-65141332D02*
X207412622Y-65075141D01*
X207412622Y-65075141D02*
X207349340Y-65052108D01*
X207349340Y-65052108D02*
X207242900Y-65049200D01*
X207242900Y-65049200D02*
X207050145Y-65086542D01*
X207050145Y-65086542D02*
X206943706Y-65083633D01*
X206943706Y-65083633D02*
X206880423Y-65060601D01*
X206880423Y-65060601D02*
X206797016Y-64994410D01*
X206797016Y-64994410D02*
X206756767Y-64908095D01*
X206756767Y-64908095D02*
X206759675Y-64801655D01*
X206759675Y-64801655D02*
X206782708Y-64738373D01*
X206782708Y-64738373D02*
X206848898Y-64654966D01*
X206848898Y-64654966D02*
X207064686Y-64554343D01*
X207064686Y-64554343D02*
X207214283Y-64537126D01*
X207496261Y-64353096D02*
X208134667Y-65158781D01*
X208134667Y-65158781D02*
X208005427Y-64430919D01*
X208005427Y-64430919D02*
X208479927Y-64997783D01*
X208479927Y-64997783D02*
X208273096Y-63990852D01*
X208865436Y-64923101D02*
X209555957Y-64601106D01*
X209731495Y-64414167D02*
X209308877Y-63507860D01*
X209308877Y-63507860D02*
X209654137Y-63346862D01*
X209654137Y-63346862D02*
X209760577Y-63349770D01*
X209760577Y-63349770D02*
X209823859Y-63372803D01*
X209823859Y-63372803D02*
X209907266Y-63438994D01*
X209907266Y-63438994D02*
X209967640Y-63568466D01*
X209967640Y-63568466D02*
X209964732Y-63674906D01*
X209964732Y-63674906D02*
X209941699Y-63738188D01*
X209941699Y-63738188D02*
X209875508Y-63821595D01*
X209875508Y-63821595D02*
X209530248Y-63982592D01*
X210744475Y-63206222D02*
X211026221Y-63810427D01*
X210356057Y-63387344D02*
X210577429Y-63862077D01*
X210577429Y-63862077D02*
X210660836Y-63928267D01*
X210660836Y-63928267D02*
X210767275Y-63931175D01*
X210767275Y-63931175D02*
X210896748Y-63870801D01*
X210896748Y-63870801D02*
X210962938Y-63787394D01*
X210962938Y-63787394D02*
X210985971Y-63724112D01*
X211394514Y-63586147D02*
X211500953Y-63589056D01*
X211500953Y-63589056D02*
X211673583Y-63508557D01*
X211673583Y-63508557D02*
X211739774Y-63425150D01*
X211739774Y-63425150D02*
X211742682Y-63318710D01*
X211742682Y-63318710D02*
X211722557Y-63275553D01*
X211722557Y-63275553D02*
X211639150Y-63209362D01*
X211639150Y-63209362D02*
X211532711Y-63206454D01*
X211532711Y-63206454D02*
X211403238Y-63266828D01*
X211403238Y-63266828D02*
X211296798Y-63263920D01*
X211296798Y-63263920D02*
X211213391Y-63197730D01*
X211213391Y-63197730D02*
X211193267Y-63154572D01*
X211193267Y-63154572D02*
X211196175Y-63048133D01*
X211196175Y-63048133D02*
X211262365Y-62964726D01*
X211262365Y-62964726D02*
X211391838Y-62904352D01*
X211391838Y-62904352D02*
X211498278Y-62907260D01*
X212191474Y-63267061D02*
X211768855Y-62360753D01*
X212579891Y-63085938D02*
X212358520Y-62611206D01*
X212358520Y-62611206D02*
X212275113Y-62545015D01*
X212275113Y-62545015D02*
X212168673Y-62542107D01*
X212168673Y-62542107D02*
X212039201Y-62602481D01*
X212039201Y-62602481D02*
X211973010Y-62685888D01*
X211973010Y-62685888D02*
X211949978Y-62749170D01*
%TO.C,REF\u002A\u002A*%
X229880952Y-65904819D02*
X229880952Y-64904819D01*
X229880952Y-64904819D02*
X230214285Y-65619104D01*
X230214285Y-65619104D02*
X230547618Y-64904819D01*
X230547618Y-64904819D02*
X230547618Y-65904819D01*
X231166666Y-65904819D02*
X231071428Y-65857200D01*
X231071428Y-65857200D02*
X231023809Y-65809580D01*
X231023809Y-65809580D02*
X230976190Y-65714342D01*
X230976190Y-65714342D02*
X230976190Y-65428628D01*
X230976190Y-65428628D02*
X231023809Y-65333390D01*
X231023809Y-65333390D02*
X231071428Y-65285771D01*
X231071428Y-65285771D02*
X231166666Y-65238152D01*
X231166666Y-65238152D02*
X231309523Y-65238152D01*
X231309523Y-65238152D02*
X231404761Y-65285771D01*
X231404761Y-65285771D02*
X231452380Y-65333390D01*
X231452380Y-65333390D02*
X231499999Y-65428628D01*
X231499999Y-65428628D02*
X231499999Y-65714342D01*
X231499999Y-65714342D02*
X231452380Y-65809580D01*
X231452380Y-65809580D02*
X231404761Y-65857200D01*
X231404761Y-65857200D02*
X231309523Y-65904819D01*
X231309523Y-65904819D02*
X231166666Y-65904819D01*
X232357142Y-65238152D02*
X232357142Y-65904819D01*
X231928571Y-65238152D02*
X231928571Y-65761961D01*
X231928571Y-65761961D02*
X231976190Y-65857200D01*
X231976190Y-65857200D02*
X232071428Y-65904819D01*
X232071428Y-65904819D02*
X232214285Y-65904819D01*
X232214285Y-65904819D02*
X232309523Y-65857200D01*
X232309523Y-65857200D02*
X232357142Y-65809580D01*
X232833333Y-65238152D02*
X232833333Y-65904819D01*
X232833333Y-65333390D02*
X232880952Y-65285771D01*
X232880952Y-65285771D02*
X232976190Y-65238152D01*
X232976190Y-65238152D02*
X233119047Y-65238152D01*
X233119047Y-65238152D02*
X233214285Y-65285771D01*
X233214285Y-65285771D02*
X233261904Y-65381009D01*
X233261904Y-65381009D02*
X233261904Y-65904819D01*
X233595238Y-65238152D02*
X233976190Y-65238152D01*
X233738095Y-64904819D02*
X233738095Y-65761961D01*
X233738095Y-65761961D02*
X233785714Y-65857200D01*
X233785714Y-65857200D02*
X233880952Y-65904819D01*
X233880952Y-65904819D02*
X233976190Y-65904819D01*
X234309524Y-65904819D02*
X234309524Y-65238152D01*
X234309524Y-64904819D02*
X234261905Y-64952438D01*
X234261905Y-64952438D02*
X234309524Y-65000057D01*
X234309524Y-65000057D02*
X234357143Y-64952438D01*
X234357143Y-64952438D02*
X234309524Y-64904819D01*
X234309524Y-64904819D02*
X234309524Y-65000057D01*
X234785714Y-65238152D02*
X234785714Y-65904819D01*
X234785714Y-65333390D02*
X234833333Y-65285771D01*
X234833333Y-65285771D02*
X234928571Y-65238152D01*
X234928571Y-65238152D02*
X235071428Y-65238152D01*
X235071428Y-65238152D02*
X235166666Y-65285771D01*
X235166666Y-65285771D02*
X235214285Y-65381009D01*
X235214285Y-65381009D02*
X235214285Y-65904819D01*
X236119047Y-65238152D02*
X236119047Y-66047676D01*
X236119047Y-66047676D02*
X236071428Y-66142914D01*
X236071428Y-66142914D02*
X236023809Y-66190533D01*
X236023809Y-66190533D02*
X235928571Y-66238152D01*
X235928571Y-66238152D02*
X235785714Y-66238152D01*
X235785714Y-66238152D02*
X235690476Y-66190533D01*
X236119047Y-65857200D02*
X236023809Y-65904819D01*
X236023809Y-65904819D02*
X235833333Y-65904819D01*
X235833333Y-65904819D02*
X235738095Y-65857200D01*
X235738095Y-65857200D02*
X235690476Y-65809580D01*
X235690476Y-65809580D02*
X235642857Y-65714342D01*
X235642857Y-65714342D02*
X235642857Y-65428628D01*
X235642857Y-65428628D02*
X235690476Y-65333390D01*
X235690476Y-65333390D02*
X235738095Y-65285771D01*
X235738095Y-65285771D02*
X235833333Y-65238152D01*
X235833333Y-65238152D02*
X236023809Y-65238152D01*
X236023809Y-65238152D02*
X236119047Y-65285771D01*
X236595238Y-65904819D02*
X236595238Y-64904819D01*
X236595238Y-65381009D02*
X237166666Y-65381009D01*
X237166666Y-65904819D02*
X237166666Y-64904819D01*
X237785714Y-65904819D02*
X237690476Y-65857200D01*
X237690476Y-65857200D02*
X237642857Y-65809580D01*
X237642857Y-65809580D02*
X237595238Y-65714342D01*
X237595238Y-65714342D02*
X237595238Y-65428628D01*
X237595238Y-65428628D02*
X237642857Y-65333390D01*
X237642857Y-65333390D02*
X237690476Y-65285771D01*
X237690476Y-65285771D02*
X237785714Y-65238152D01*
X237785714Y-65238152D02*
X237928571Y-65238152D01*
X237928571Y-65238152D02*
X238023809Y-65285771D01*
X238023809Y-65285771D02*
X238071428Y-65333390D01*
X238071428Y-65333390D02*
X238119047Y-65428628D01*
X238119047Y-65428628D02*
X238119047Y-65714342D01*
X238119047Y-65714342D02*
X238071428Y-65809580D01*
X238071428Y-65809580D02*
X238023809Y-65857200D01*
X238023809Y-65857200D02*
X237928571Y-65904819D01*
X237928571Y-65904819D02*
X237785714Y-65904819D01*
X238690476Y-65904819D02*
X238595238Y-65857200D01*
X238595238Y-65857200D02*
X238547619Y-65761961D01*
X238547619Y-65761961D02*
X238547619Y-64904819D01*
X239452381Y-65857200D02*
X239357143Y-65904819D01*
X239357143Y-65904819D02*
X239166667Y-65904819D01*
X239166667Y-65904819D02*
X239071429Y-65857200D01*
X239071429Y-65857200D02*
X239023810Y-65761961D01*
X239023810Y-65761961D02*
X239023810Y-65381009D01*
X239023810Y-65381009D02*
X239071429Y-65285771D01*
X239071429Y-65285771D02*
X239166667Y-65238152D01*
X239166667Y-65238152D02*
X239357143Y-65238152D01*
X239357143Y-65238152D02*
X239452381Y-65285771D01*
X239452381Y-65285771D02*
X239500000Y-65381009D01*
X239500000Y-65381009D02*
X239500000Y-65476247D01*
X239500000Y-65476247D02*
X239023810Y-65571485D01*
X239690477Y-66000057D02*
X240452381Y-66000057D01*
X240642858Y-65000057D02*
X240690477Y-64952438D01*
X240690477Y-64952438D02*
X240785715Y-64904819D01*
X240785715Y-64904819D02*
X241023810Y-64904819D01*
X241023810Y-64904819D02*
X241119048Y-64952438D01*
X241119048Y-64952438D02*
X241166667Y-65000057D01*
X241166667Y-65000057D02*
X241214286Y-65095295D01*
X241214286Y-65095295D02*
X241214286Y-65190533D01*
X241214286Y-65190533D02*
X241166667Y-65333390D01*
X241166667Y-65333390D02*
X240595239Y-65904819D01*
X240595239Y-65904819D02*
X241214286Y-65904819D01*
X241642858Y-65809580D02*
X241690477Y-65857200D01*
X241690477Y-65857200D02*
X241642858Y-65904819D01*
X241642858Y-65904819D02*
X241595239Y-65857200D01*
X241595239Y-65857200D02*
X241642858Y-65809580D01*
X241642858Y-65809580D02*
X241642858Y-65904819D01*
X242071429Y-65000057D02*
X242119048Y-64952438D01*
X242119048Y-64952438D02*
X242214286Y-64904819D01*
X242214286Y-64904819D02*
X242452381Y-64904819D01*
X242452381Y-64904819D02*
X242547619Y-64952438D01*
X242547619Y-64952438D02*
X242595238Y-65000057D01*
X242595238Y-65000057D02*
X242642857Y-65095295D01*
X242642857Y-65095295D02*
X242642857Y-65190533D01*
X242642857Y-65190533D02*
X242595238Y-65333390D01*
X242595238Y-65333390D02*
X242023810Y-65904819D01*
X242023810Y-65904819D02*
X242642857Y-65904819D01*
X243071429Y-65904819D02*
X243071429Y-65238152D01*
X243071429Y-65333390D02*
X243119048Y-65285771D01*
X243119048Y-65285771D02*
X243214286Y-65238152D01*
X243214286Y-65238152D02*
X243357143Y-65238152D01*
X243357143Y-65238152D02*
X243452381Y-65285771D01*
X243452381Y-65285771D02*
X243500000Y-65381009D01*
X243500000Y-65381009D02*
X243500000Y-65904819D01*
X243500000Y-65381009D02*
X243547619Y-65285771D01*
X243547619Y-65285771D02*
X243642857Y-65238152D01*
X243642857Y-65238152D02*
X243785714Y-65238152D01*
X243785714Y-65238152D02*
X243880953Y-65285771D01*
X243880953Y-65285771D02*
X243928572Y-65381009D01*
X243928572Y-65381009D02*
X243928572Y-65904819D01*
X244404762Y-65904819D02*
X244404762Y-65238152D01*
X244404762Y-65333390D02*
X244452381Y-65285771D01*
X244452381Y-65285771D02*
X244547619Y-65238152D01*
X244547619Y-65238152D02*
X244690476Y-65238152D01*
X244690476Y-65238152D02*
X244785714Y-65285771D01*
X244785714Y-65285771D02*
X244833333Y-65381009D01*
X244833333Y-65381009D02*
X244833333Y-65904819D01*
X244833333Y-65381009D02*
X244880952Y-65285771D01*
X244880952Y-65285771D02*
X244976190Y-65238152D01*
X244976190Y-65238152D02*
X245119047Y-65238152D01*
X245119047Y-65238152D02*
X245214286Y-65285771D01*
X245214286Y-65285771D02*
X245261905Y-65381009D01*
X245261905Y-65381009D02*
X245261905Y-65904819D01*
X245500000Y-66000057D02*
X246261904Y-66000057D01*
X246500000Y-65904819D02*
X246500000Y-64904819D01*
X246500000Y-64904819D02*
X246833333Y-65619104D01*
X246833333Y-65619104D02*
X247166666Y-64904819D01*
X247166666Y-64904819D02*
X247166666Y-65904819D01*
X247595238Y-65000057D02*
X247642857Y-64952438D01*
X247642857Y-64952438D02*
X247738095Y-64904819D01*
X247738095Y-64904819D02*
X247976190Y-64904819D01*
X247976190Y-64904819D02*
X248071428Y-64952438D01*
X248071428Y-64952438D02*
X248119047Y-65000057D01*
X248119047Y-65000057D02*
X248166666Y-65095295D01*
X248166666Y-65095295D02*
X248166666Y-65190533D01*
X248166666Y-65190533D02*
X248119047Y-65333390D01*
X248119047Y-65333390D02*
X247547619Y-65904819D01*
X247547619Y-65904819D02*
X248166666Y-65904819D01*
X237666666Y-62704819D02*
X237333333Y-62228628D01*
X237095238Y-62704819D02*
X237095238Y-61704819D01*
X237095238Y-61704819D02*
X237476190Y-61704819D01*
X237476190Y-61704819D02*
X237571428Y-61752438D01*
X237571428Y-61752438D02*
X237619047Y-61800057D01*
X237619047Y-61800057D02*
X237666666Y-61895295D01*
X237666666Y-61895295D02*
X237666666Y-62038152D01*
X237666666Y-62038152D02*
X237619047Y-62133390D01*
X237619047Y-62133390D02*
X237571428Y-62181009D01*
X237571428Y-62181009D02*
X237476190Y-62228628D01*
X237476190Y-62228628D02*
X237095238Y-62228628D01*
X238095238Y-62181009D02*
X238428571Y-62181009D01*
X238571428Y-62704819D02*
X238095238Y-62704819D01*
X238095238Y-62704819D02*
X238095238Y-61704819D01*
X238095238Y-61704819D02*
X238571428Y-61704819D01*
X239333333Y-62181009D02*
X239000000Y-62181009D01*
X239000000Y-62704819D02*
X239000000Y-61704819D01*
X239000000Y-61704819D02*
X239476190Y-61704819D01*
X240000000Y-61704819D02*
X240000000Y-61942914D01*
X239761905Y-61847676D02*
X240000000Y-61942914D01*
X240000000Y-61942914D02*
X240238095Y-61847676D01*
X239857143Y-62133390D02*
X240000000Y-61942914D01*
X240000000Y-61942914D02*
X240142857Y-62133390D01*
X240761905Y-61704819D02*
X240761905Y-61942914D01*
X240523810Y-61847676D02*
X240761905Y-61942914D01*
X240761905Y-61942914D02*
X241000000Y-61847676D01*
X240619048Y-62133390D02*
X240761905Y-61942914D01*
X240761905Y-61942914D02*
X240904762Y-62133390D01*
%TO.C,SW8*%
X228780685Y-69546910D02*
X228930282Y-69529694D01*
X228930282Y-69529694D02*
X229146070Y-69429070D01*
X229146070Y-69429070D02*
X229212260Y-69345664D01*
X229212260Y-69345664D02*
X229235293Y-69282381D01*
X229235293Y-69282381D02*
X229238201Y-69175942D01*
X229238201Y-69175942D02*
X229197952Y-69089627D01*
X229197952Y-69089627D02*
X229114545Y-69023436D01*
X229114545Y-69023436D02*
X229051263Y-69000403D01*
X229051263Y-69000403D02*
X228944823Y-68997495D01*
X228944823Y-68997495D02*
X228752068Y-69034837D01*
X228752068Y-69034837D02*
X228645629Y-69031928D01*
X228645629Y-69031928D02*
X228582346Y-69008896D01*
X228582346Y-69008896D02*
X228498939Y-68942705D01*
X228498939Y-68942705D02*
X228458690Y-68856390D01*
X228458690Y-68856390D02*
X228461598Y-68749950D01*
X228461598Y-68749950D02*
X228484631Y-68686668D01*
X228484631Y-68686668D02*
X228550821Y-68603261D01*
X228550821Y-68603261D02*
X228766609Y-68502638D01*
X228766609Y-68502638D02*
X228916206Y-68485421D01*
X229198184Y-68301391D02*
X229836590Y-69107076D01*
X229836590Y-69107076D02*
X229707350Y-68379214D01*
X229707350Y-68379214D02*
X230181850Y-68946078D01*
X230181850Y-68946078D02*
X229975019Y-67939147D01*
X230567359Y-68871396D02*
X231257880Y-68549401D01*
X231433418Y-68362462D02*
X231010800Y-67456155D01*
X231010800Y-67456155D02*
X231356060Y-67295157D01*
X231356060Y-67295157D02*
X231462500Y-67298065D01*
X231462500Y-67298065D02*
X231525782Y-67321098D01*
X231525782Y-67321098D02*
X231609189Y-67387289D01*
X231609189Y-67387289D02*
X231669563Y-67516761D01*
X231669563Y-67516761D02*
X231666655Y-67623201D01*
X231666655Y-67623201D02*
X231643622Y-67686483D01*
X231643622Y-67686483D02*
X231577431Y-67769890D01*
X231577431Y-67769890D02*
X231232171Y-67930887D01*
X232446398Y-67154517D02*
X232728144Y-67758722D01*
X232057980Y-67335639D02*
X232279352Y-67810372D01*
X232279352Y-67810372D02*
X232362759Y-67876562D01*
X232362759Y-67876562D02*
X232469198Y-67879470D01*
X232469198Y-67879470D02*
X232598671Y-67819096D01*
X232598671Y-67819096D02*
X232664861Y-67735689D01*
X232664861Y-67735689D02*
X232687894Y-67672407D01*
X233096437Y-67534442D02*
X233202876Y-67537351D01*
X233202876Y-67537351D02*
X233375506Y-67456852D01*
X233375506Y-67456852D02*
X233441697Y-67373445D01*
X233441697Y-67373445D02*
X233444605Y-67267005D01*
X233444605Y-67267005D02*
X233424480Y-67223848D01*
X233424480Y-67223848D02*
X233341073Y-67157657D01*
X233341073Y-67157657D02*
X233234634Y-67154749D01*
X233234634Y-67154749D02*
X233105161Y-67215123D01*
X233105161Y-67215123D02*
X232998721Y-67212215D01*
X232998721Y-67212215D02*
X232915314Y-67146025D01*
X232915314Y-67146025D02*
X232895190Y-67102867D01*
X232895190Y-67102867D02*
X232898098Y-66996428D01*
X232898098Y-66996428D02*
X232964288Y-66913021D01*
X232964288Y-66913021D02*
X233093761Y-66852647D01*
X233093761Y-66852647D02*
X233200201Y-66855555D01*
X233893397Y-67215356D02*
X233470778Y-66309048D01*
X234281814Y-67034233D02*
X234060443Y-66559501D01*
X234060443Y-66559501D02*
X233977036Y-66493310D01*
X233977036Y-66493310D02*
X233870596Y-66490402D01*
X233870596Y-66490402D02*
X233741124Y-66550776D01*
X233741124Y-66550776D02*
X233674933Y-66634183D01*
X233674933Y-66634183D02*
X233651901Y-66697465D01*
%TO.C,REF\u002A\u002A*%
X51880952Y-65904819D02*
X51880952Y-64904819D01*
X51880952Y-64904819D02*
X52214285Y-65619104D01*
X52214285Y-65619104D02*
X52547618Y-64904819D01*
X52547618Y-64904819D02*
X52547618Y-65904819D01*
X53166666Y-65904819D02*
X53071428Y-65857200D01*
X53071428Y-65857200D02*
X53023809Y-65809580D01*
X53023809Y-65809580D02*
X52976190Y-65714342D01*
X52976190Y-65714342D02*
X52976190Y-65428628D01*
X52976190Y-65428628D02*
X53023809Y-65333390D01*
X53023809Y-65333390D02*
X53071428Y-65285771D01*
X53071428Y-65285771D02*
X53166666Y-65238152D01*
X53166666Y-65238152D02*
X53309523Y-65238152D01*
X53309523Y-65238152D02*
X53404761Y-65285771D01*
X53404761Y-65285771D02*
X53452380Y-65333390D01*
X53452380Y-65333390D02*
X53499999Y-65428628D01*
X53499999Y-65428628D02*
X53499999Y-65714342D01*
X53499999Y-65714342D02*
X53452380Y-65809580D01*
X53452380Y-65809580D02*
X53404761Y-65857200D01*
X53404761Y-65857200D02*
X53309523Y-65904819D01*
X53309523Y-65904819D02*
X53166666Y-65904819D01*
X54357142Y-65238152D02*
X54357142Y-65904819D01*
X53928571Y-65238152D02*
X53928571Y-65761961D01*
X53928571Y-65761961D02*
X53976190Y-65857200D01*
X53976190Y-65857200D02*
X54071428Y-65904819D01*
X54071428Y-65904819D02*
X54214285Y-65904819D01*
X54214285Y-65904819D02*
X54309523Y-65857200D01*
X54309523Y-65857200D02*
X54357142Y-65809580D01*
X54833333Y-65238152D02*
X54833333Y-65904819D01*
X54833333Y-65333390D02*
X54880952Y-65285771D01*
X54880952Y-65285771D02*
X54976190Y-65238152D01*
X54976190Y-65238152D02*
X55119047Y-65238152D01*
X55119047Y-65238152D02*
X55214285Y-65285771D01*
X55214285Y-65285771D02*
X55261904Y-65381009D01*
X55261904Y-65381009D02*
X55261904Y-65904819D01*
X55595238Y-65238152D02*
X55976190Y-65238152D01*
X55738095Y-64904819D02*
X55738095Y-65761961D01*
X55738095Y-65761961D02*
X55785714Y-65857200D01*
X55785714Y-65857200D02*
X55880952Y-65904819D01*
X55880952Y-65904819D02*
X55976190Y-65904819D01*
X56309524Y-65904819D02*
X56309524Y-65238152D01*
X56309524Y-64904819D02*
X56261905Y-64952438D01*
X56261905Y-64952438D02*
X56309524Y-65000057D01*
X56309524Y-65000057D02*
X56357143Y-64952438D01*
X56357143Y-64952438D02*
X56309524Y-64904819D01*
X56309524Y-64904819D02*
X56309524Y-65000057D01*
X56785714Y-65238152D02*
X56785714Y-65904819D01*
X56785714Y-65333390D02*
X56833333Y-65285771D01*
X56833333Y-65285771D02*
X56928571Y-65238152D01*
X56928571Y-65238152D02*
X57071428Y-65238152D01*
X57071428Y-65238152D02*
X57166666Y-65285771D01*
X57166666Y-65285771D02*
X57214285Y-65381009D01*
X57214285Y-65381009D02*
X57214285Y-65904819D01*
X58119047Y-65238152D02*
X58119047Y-66047676D01*
X58119047Y-66047676D02*
X58071428Y-66142914D01*
X58071428Y-66142914D02*
X58023809Y-66190533D01*
X58023809Y-66190533D02*
X57928571Y-66238152D01*
X57928571Y-66238152D02*
X57785714Y-66238152D01*
X57785714Y-66238152D02*
X57690476Y-66190533D01*
X58119047Y-65857200D02*
X58023809Y-65904819D01*
X58023809Y-65904819D02*
X57833333Y-65904819D01*
X57833333Y-65904819D02*
X57738095Y-65857200D01*
X57738095Y-65857200D02*
X57690476Y-65809580D01*
X57690476Y-65809580D02*
X57642857Y-65714342D01*
X57642857Y-65714342D02*
X57642857Y-65428628D01*
X57642857Y-65428628D02*
X57690476Y-65333390D01*
X57690476Y-65333390D02*
X57738095Y-65285771D01*
X57738095Y-65285771D02*
X57833333Y-65238152D01*
X57833333Y-65238152D02*
X58023809Y-65238152D01*
X58023809Y-65238152D02*
X58119047Y-65285771D01*
X58595238Y-65904819D02*
X58595238Y-64904819D01*
X58595238Y-65381009D02*
X59166666Y-65381009D01*
X59166666Y-65904819D02*
X59166666Y-64904819D01*
X59785714Y-65904819D02*
X59690476Y-65857200D01*
X59690476Y-65857200D02*
X59642857Y-65809580D01*
X59642857Y-65809580D02*
X59595238Y-65714342D01*
X59595238Y-65714342D02*
X59595238Y-65428628D01*
X59595238Y-65428628D02*
X59642857Y-65333390D01*
X59642857Y-65333390D02*
X59690476Y-65285771D01*
X59690476Y-65285771D02*
X59785714Y-65238152D01*
X59785714Y-65238152D02*
X59928571Y-65238152D01*
X59928571Y-65238152D02*
X60023809Y-65285771D01*
X60023809Y-65285771D02*
X60071428Y-65333390D01*
X60071428Y-65333390D02*
X60119047Y-65428628D01*
X60119047Y-65428628D02*
X60119047Y-65714342D01*
X60119047Y-65714342D02*
X60071428Y-65809580D01*
X60071428Y-65809580D02*
X60023809Y-65857200D01*
X60023809Y-65857200D02*
X59928571Y-65904819D01*
X59928571Y-65904819D02*
X59785714Y-65904819D01*
X60690476Y-65904819D02*
X60595238Y-65857200D01*
X60595238Y-65857200D02*
X60547619Y-65761961D01*
X60547619Y-65761961D02*
X60547619Y-64904819D01*
X61452381Y-65857200D02*
X61357143Y-65904819D01*
X61357143Y-65904819D02*
X61166667Y-65904819D01*
X61166667Y-65904819D02*
X61071429Y-65857200D01*
X61071429Y-65857200D02*
X61023810Y-65761961D01*
X61023810Y-65761961D02*
X61023810Y-65381009D01*
X61023810Y-65381009D02*
X61071429Y-65285771D01*
X61071429Y-65285771D02*
X61166667Y-65238152D01*
X61166667Y-65238152D02*
X61357143Y-65238152D01*
X61357143Y-65238152D02*
X61452381Y-65285771D01*
X61452381Y-65285771D02*
X61500000Y-65381009D01*
X61500000Y-65381009D02*
X61500000Y-65476247D01*
X61500000Y-65476247D02*
X61023810Y-65571485D01*
X61690477Y-66000057D02*
X62452381Y-66000057D01*
X62642858Y-65000057D02*
X62690477Y-64952438D01*
X62690477Y-64952438D02*
X62785715Y-64904819D01*
X62785715Y-64904819D02*
X63023810Y-64904819D01*
X63023810Y-64904819D02*
X63119048Y-64952438D01*
X63119048Y-64952438D02*
X63166667Y-65000057D01*
X63166667Y-65000057D02*
X63214286Y-65095295D01*
X63214286Y-65095295D02*
X63214286Y-65190533D01*
X63214286Y-65190533D02*
X63166667Y-65333390D01*
X63166667Y-65333390D02*
X62595239Y-65904819D01*
X62595239Y-65904819D02*
X63214286Y-65904819D01*
X63642858Y-65809580D02*
X63690477Y-65857200D01*
X63690477Y-65857200D02*
X63642858Y-65904819D01*
X63642858Y-65904819D02*
X63595239Y-65857200D01*
X63595239Y-65857200D02*
X63642858Y-65809580D01*
X63642858Y-65809580D02*
X63642858Y-65904819D01*
X64071429Y-65000057D02*
X64119048Y-64952438D01*
X64119048Y-64952438D02*
X64214286Y-64904819D01*
X64214286Y-64904819D02*
X64452381Y-64904819D01*
X64452381Y-64904819D02*
X64547619Y-64952438D01*
X64547619Y-64952438D02*
X64595238Y-65000057D01*
X64595238Y-65000057D02*
X64642857Y-65095295D01*
X64642857Y-65095295D02*
X64642857Y-65190533D01*
X64642857Y-65190533D02*
X64595238Y-65333390D01*
X64595238Y-65333390D02*
X64023810Y-65904819D01*
X64023810Y-65904819D02*
X64642857Y-65904819D01*
X65071429Y-65904819D02*
X65071429Y-65238152D01*
X65071429Y-65333390D02*
X65119048Y-65285771D01*
X65119048Y-65285771D02*
X65214286Y-65238152D01*
X65214286Y-65238152D02*
X65357143Y-65238152D01*
X65357143Y-65238152D02*
X65452381Y-65285771D01*
X65452381Y-65285771D02*
X65500000Y-65381009D01*
X65500000Y-65381009D02*
X65500000Y-65904819D01*
X65500000Y-65381009D02*
X65547619Y-65285771D01*
X65547619Y-65285771D02*
X65642857Y-65238152D01*
X65642857Y-65238152D02*
X65785714Y-65238152D01*
X65785714Y-65238152D02*
X65880953Y-65285771D01*
X65880953Y-65285771D02*
X65928572Y-65381009D01*
X65928572Y-65381009D02*
X65928572Y-65904819D01*
X66404762Y-65904819D02*
X66404762Y-65238152D01*
X66404762Y-65333390D02*
X66452381Y-65285771D01*
X66452381Y-65285771D02*
X66547619Y-65238152D01*
X66547619Y-65238152D02*
X66690476Y-65238152D01*
X66690476Y-65238152D02*
X66785714Y-65285771D01*
X66785714Y-65285771D02*
X66833333Y-65381009D01*
X66833333Y-65381009D02*
X66833333Y-65904819D01*
X66833333Y-65381009D02*
X66880952Y-65285771D01*
X66880952Y-65285771D02*
X66976190Y-65238152D01*
X66976190Y-65238152D02*
X67119047Y-65238152D01*
X67119047Y-65238152D02*
X67214286Y-65285771D01*
X67214286Y-65285771D02*
X67261905Y-65381009D01*
X67261905Y-65381009D02*
X67261905Y-65904819D01*
X67500000Y-66000057D02*
X68261904Y-66000057D01*
X68500000Y-65904819D02*
X68500000Y-64904819D01*
X68500000Y-64904819D02*
X68833333Y-65619104D01*
X68833333Y-65619104D02*
X69166666Y-64904819D01*
X69166666Y-64904819D02*
X69166666Y-65904819D01*
X69595238Y-65000057D02*
X69642857Y-64952438D01*
X69642857Y-64952438D02*
X69738095Y-64904819D01*
X69738095Y-64904819D02*
X69976190Y-64904819D01*
X69976190Y-64904819D02*
X70071428Y-64952438D01*
X70071428Y-64952438D02*
X70119047Y-65000057D01*
X70119047Y-65000057D02*
X70166666Y-65095295D01*
X70166666Y-65095295D02*
X70166666Y-65190533D01*
X70166666Y-65190533D02*
X70119047Y-65333390D01*
X70119047Y-65333390D02*
X69547619Y-65904819D01*
X69547619Y-65904819D02*
X70166666Y-65904819D01*
X59666666Y-62704819D02*
X59333333Y-62228628D01*
X59095238Y-62704819D02*
X59095238Y-61704819D01*
X59095238Y-61704819D02*
X59476190Y-61704819D01*
X59476190Y-61704819D02*
X59571428Y-61752438D01*
X59571428Y-61752438D02*
X59619047Y-61800057D01*
X59619047Y-61800057D02*
X59666666Y-61895295D01*
X59666666Y-61895295D02*
X59666666Y-62038152D01*
X59666666Y-62038152D02*
X59619047Y-62133390D01*
X59619047Y-62133390D02*
X59571428Y-62181009D01*
X59571428Y-62181009D02*
X59476190Y-62228628D01*
X59476190Y-62228628D02*
X59095238Y-62228628D01*
X60095238Y-62181009D02*
X60428571Y-62181009D01*
X60571428Y-62704819D02*
X60095238Y-62704819D01*
X60095238Y-62704819D02*
X60095238Y-61704819D01*
X60095238Y-61704819D02*
X60571428Y-61704819D01*
X61333333Y-62181009D02*
X61000000Y-62181009D01*
X61000000Y-62704819D02*
X61000000Y-61704819D01*
X61000000Y-61704819D02*
X61476190Y-61704819D01*
X62000000Y-61704819D02*
X62000000Y-61942914D01*
X61761905Y-61847676D02*
X62000000Y-61942914D01*
X62000000Y-61942914D02*
X62238095Y-61847676D01*
X61857143Y-62133390D02*
X62000000Y-61942914D01*
X62000000Y-61942914D02*
X62142857Y-62133390D01*
X62761905Y-61704819D02*
X62761905Y-61942914D01*
X62523810Y-61847676D02*
X62761905Y-61942914D01*
X62761905Y-61942914D02*
X63000000Y-61847676D01*
X62619048Y-62133390D02*
X62761905Y-61942914D01*
X62761905Y-61942914D02*
X62904762Y-62133390D01*
%TO.C,SW3*%
X105506745Y-66777977D02*
X105616093Y-66881508D01*
X105616093Y-66881508D02*
X105831880Y-66982132D01*
X105831880Y-66982132D02*
X105938320Y-66979223D01*
X105938320Y-66979223D02*
X106001602Y-66956191D01*
X106001602Y-66956191D02*
X106085009Y-66890000D01*
X106085009Y-66890000D02*
X106125258Y-66803685D01*
X106125258Y-66803685D02*
X106122350Y-66697246D01*
X106122350Y-66697246D02*
X106099317Y-66633963D01*
X106099317Y-66633963D02*
X106033127Y-66550556D01*
X106033127Y-66550556D02*
X105880622Y-66426900D01*
X105880622Y-66426900D02*
X105814431Y-66343493D01*
X105814431Y-66343493D02*
X105791398Y-66280211D01*
X105791398Y-66280211D02*
X105788490Y-66173771D01*
X105788490Y-66173771D02*
X105828740Y-66087456D01*
X105828740Y-66087456D02*
X105912146Y-66021266D01*
X105912146Y-66021266D02*
X105975429Y-65998233D01*
X105975429Y-65998233D02*
X106081868Y-65995325D01*
X106081868Y-65995325D02*
X106297656Y-66095949D01*
X106297656Y-66095949D02*
X106407004Y-66199480D01*
X106729231Y-66297195D02*
X106522400Y-67304127D01*
X106522400Y-67304127D02*
X106996901Y-66737263D01*
X106996901Y-66737263D02*
X106867660Y-67465124D01*
X106867660Y-67465124D02*
X107506066Y-66659440D01*
X107172671Y-67712436D02*
X107863191Y-68034431D01*
X108119228Y-68048740D02*
X108541847Y-67142432D01*
X108541847Y-67142432D02*
X108887107Y-67303429D01*
X108887107Y-67303429D02*
X108953297Y-67386836D01*
X108953297Y-67386836D02*
X108976330Y-67450118D01*
X108976330Y-67450118D02*
X108979238Y-67556558D01*
X108979238Y-67556558D02*
X108918864Y-67686031D01*
X108918864Y-67686031D02*
X108835457Y-67752221D01*
X108835457Y-67752221D02*
X108772175Y-67775254D01*
X108772175Y-67775254D02*
X108665735Y-67778162D01*
X108665735Y-67778162D02*
X108320475Y-67617165D01*
X109695699Y-68048275D02*
X109413954Y-68652480D01*
X109307282Y-67867153D02*
X109085910Y-68341885D01*
X109085910Y-68341885D02*
X109088818Y-68448325D01*
X109088818Y-68448325D02*
X109155009Y-68531732D01*
X109155009Y-68531732D02*
X109284481Y-68592106D01*
X109284481Y-68592106D02*
X109390921Y-68589198D01*
X109390921Y-68589198D02*
X109454203Y-68566165D01*
X109822496Y-68790445D02*
X109888687Y-68873852D01*
X109888687Y-68873852D02*
X110061317Y-68954350D01*
X110061317Y-68954350D02*
X110167756Y-68951442D01*
X110167756Y-68951442D02*
X110251163Y-68885252D01*
X110251163Y-68885252D02*
X110271288Y-68842094D01*
X110271288Y-68842094D02*
X110268380Y-68735655D01*
X110268380Y-68735655D02*
X110202189Y-68652248D01*
X110202189Y-68652248D02*
X110072717Y-68591874D01*
X110072717Y-68591874D02*
X110006527Y-68508467D01*
X110006527Y-68508467D02*
X110003618Y-68402027D01*
X110003618Y-68402027D02*
X110023743Y-68358870D01*
X110023743Y-68358870D02*
X110107150Y-68292679D01*
X110107150Y-68292679D02*
X110213590Y-68289771D01*
X110213590Y-68289771D02*
X110343062Y-68350145D01*
X110343062Y-68350145D02*
X110409253Y-68433552D01*
X110579207Y-69195846D02*
X111001825Y-68289539D01*
X110967625Y-69376969D02*
X111188996Y-68902236D01*
X111188996Y-68902236D02*
X111186088Y-68795796D01*
X111186088Y-68795796D02*
X111119898Y-68712389D01*
X111119898Y-68712389D02*
X110990425Y-68652015D01*
X110990425Y-68652015D02*
X110883985Y-68654924D01*
X110883985Y-68654924D02*
X110820703Y-68677956D01*
%TO.C,SW1*%
X65695154Y-66970952D02*
X65804502Y-67074483D01*
X65804502Y-67074483D02*
X66020289Y-67175107D01*
X66020289Y-67175107D02*
X66126729Y-67172198D01*
X66126729Y-67172198D02*
X66190011Y-67149166D01*
X66190011Y-67149166D02*
X66273418Y-67082975D01*
X66273418Y-67082975D02*
X66313667Y-66996660D01*
X66313667Y-66996660D02*
X66310759Y-66890221D01*
X66310759Y-66890221D02*
X66287726Y-66826938D01*
X66287726Y-66826938D02*
X66221536Y-66743531D01*
X66221536Y-66743531D02*
X66069031Y-66619875D01*
X66069031Y-66619875D02*
X66002840Y-66536468D01*
X66002840Y-66536468D02*
X65979807Y-66473186D01*
X65979807Y-66473186D02*
X65976899Y-66366746D01*
X65976899Y-66366746D02*
X66017149Y-66280431D01*
X66017149Y-66280431D02*
X66100555Y-66214241D01*
X66100555Y-66214241D02*
X66163838Y-66191208D01*
X66163838Y-66191208D02*
X66270277Y-66188300D01*
X66270277Y-66188300D02*
X66486065Y-66288924D01*
X66486065Y-66288924D02*
X66595413Y-66392455D01*
X66917640Y-66490170D02*
X66710809Y-67497102D01*
X66710809Y-67497102D02*
X67185310Y-66930238D01*
X67185310Y-66930238D02*
X67056069Y-67658099D01*
X67056069Y-67658099D02*
X67694475Y-66852415D01*
X67361080Y-67905411D02*
X68051600Y-68227406D01*
X68307637Y-68241715D02*
X68730256Y-67335407D01*
X68730256Y-67335407D02*
X69075516Y-67496404D01*
X69075516Y-67496404D02*
X69141706Y-67579811D01*
X69141706Y-67579811D02*
X69164739Y-67643093D01*
X69164739Y-67643093D02*
X69167647Y-67749533D01*
X69167647Y-67749533D02*
X69107273Y-67879006D01*
X69107273Y-67879006D02*
X69023866Y-67945196D01*
X69023866Y-67945196D02*
X68960584Y-67968229D01*
X68960584Y-67968229D02*
X68854144Y-67971137D01*
X68854144Y-67971137D02*
X68508884Y-67810140D01*
X69884108Y-68241250D02*
X69602363Y-68845455D01*
X69495691Y-68060128D02*
X69274319Y-68534860D01*
X69274319Y-68534860D02*
X69277227Y-68641300D01*
X69277227Y-68641300D02*
X69343418Y-68724707D01*
X69343418Y-68724707D02*
X69472890Y-68785081D01*
X69472890Y-68785081D02*
X69579330Y-68782173D01*
X69579330Y-68782173D02*
X69642612Y-68759140D01*
X70010905Y-68983420D02*
X70077096Y-69066827D01*
X70077096Y-69066827D02*
X70249726Y-69147325D01*
X70249726Y-69147325D02*
X70356165Y-69144417D01*
X70356165Y-69144417D02*
X70439572Y-69078227D01*
X70439572Y-69078227D02*
X70459697Y-69035069D01*
X70459697Y-69035069D02*
X70456789Y-68928630D01*
X70456789Y-68928630D02*
X70390598Y-68845223D01*
X70390598Y-68845223D02*
X70261126Y-68784849D01*
X70261126Y-68784849D02*
X70194936Y-68701442D01*
X70194936Y-68701442D02*
X70192027Y-68595002D01*
X70192027Y-68595002D02*
X70212152Y-68551845D01*
X70212152Y-68551845D02*
X70295559Y-68485654D01*
X70295559Y-68485654D02*
X70401999Y-68482746D01*
X70401999Y-68482746D02*
X70531471Y-68543120D01*
X70531471Y-68543120D02*
X70597662Y-68626527D01*
X70767616Y-69388821D02*
X71190234Y-68482514D01*
X71156034Y-69569944D02*
X71377405Y-69095211D01*
X71377405Y-69095211D02*
X71374497Y-68988771D01*
X71374497Y-68988771D02*
X71308307Y-68905364D01*
X71308307Y-68905364D02*
X71178834Y-68844990D01*
X71178834Y-68844990D02*
X71072394Y-68847899D01*
X71072394Y-68847899D02*
X71009112Y-68870931D01*
%TO.C,J2*%
X128642857Y-102704819D02*
X128833333Y-102704819D01*
X128833333Y-102704819D02*
X128928571Y-102752438D01*
X128928571Y-102752438D02*
X129023809Y-102847676D01*
X129023809Y-102847676D02*
X129071428Y-103038152D01*
X129071428Y-103038152D02*
X129071428Y-103371485D01*
X129071428Y-103371485D02*
X129023809Y-103561961D01*
X129023809Y-103561961D02*
X128928571Y-103657200D01*
X128928571Y-103657200D02*
X128833333Y-103704819D01*
X128833333Y-103704819D02*
X128642857Y-103704819D01*
X128642857Y-103704819D02*
X128547619Y-103657200D01*
X128547619Y-103657200D02*
X128452381Y-103561961D01*
X128452381Y-103561961D02*
X128404762Y-103371485D01*
X128404762Y-103371485D02*
X128404762Y-103038152D01*
X128404762Y-103038152D02*
X128452381Y-102847676D01*
X128452381Y-102847676D02*
X128547619Y-102752438D01*
X128547619Y-102752438D02*
X128642857Y-102704819D01*
X129976190Y-103704819D02*
X129500000Y-103704819D01*
X129500000Y-103704819D02*
X129500000Y-102704819D01*
X130309524Y-103181009D02*
X130642857Y-103181009D01*
X130785714Y-103704819D02*
X130309524Y-103704819D01*
X130309524Y-103704819D02*
X130309524Y-102704819D01*
X130309524Y-102704819D02*
X130785714Y-102704819D01*
X131214286Y-103704819D02*
X131214286Y-102704819D01*
X131214286Y-102704819D02*
X131452381Y-102704819D01*
X131452381Y-102704819D02*
X131595238Y-102752438D01*
X131595238Y-102752438D02*
X131690476Y-102847676D01*
X131690476Y-102847676D02*
X131738095Y-102942914D01*
X131738095Y-102942914D02*
X131785714Y-103133390D01*
X131785714Y-103133390D02*
X131785714Y-103276247D01*
X131785714Y-103276247D02*
X131738095Y-103466723D01*
X131738095Y-103466723D02*
X131690476Y-103561961D01*
X131690476Y-103561961D02*
X131595238Y-103657200D01*
X131595238Y-103657200D02*
X131452381Y-103704819D01*
X131452381Y-103704819D02*
X131214286Y-103704819D01*
X132214286Y-103323866D02*
X132976191Y-103323866D01*
X133976190Y-103704819D02*
X133404762Y-103704819D01*
X133690476Y-103704819D02*
X133690476Y-102704819D01*
X133690476Y-102704819D02*
X133595238Y-102847676D01*
X133595238Y-102847676D02*
X133500000Y-102942914D01*
X133500000Y-102942914D02*
X133404762Y-102990533D01*
X134357143Y-102800057D02*
X134404762Y-102752438D01*
X134404762Y-102752438D02*
X134500000Y-102704819D01*
X134500000Y-102704819D02*
X134738095Y-102704819D01*
X134738095Y-102704819D02*
X134833333Y-102752438D01*
X134833333Y-102752438D02*
X134880952Y-102800057D01*
X134880952Y-102800057D02*
X134928571Y-102895295D01*
X134928571Y-102895295D02*
X134928571Y-102990533D01*
X134928571Y-102990533D02*
X134880952Y-103133390D01*
X134880952Y-103133390D02*
X134309524Y-103704819D01*
X134309524Y-103704819D02*
X134928571Y-103704819D01*
X135500000Y-103133390D02*
X135404762Y-103085771D01*
X135404762Y-103085771D02*
X135357143Y-103038152D01*
X135357143Y-103038152D02*
X135309524Y-102942914D01*
X135309524Y-102942914D02*
X135309524Y-102895295D01*
X135309524Y-102895295D02*
X135357143Y-102800057D01*
X135357143Y-102800057D02*
X135404762Y-102752438D01*
X135404762Y-102752438D02*
X135500000Y-102704819D01*
X135500000Y-102704819D02*
X135690476Y-102704819D01*
X135690476Y-102704819D02*
X135785714Y-102752438D01*
X135785714Y-102752438D02*
X135833333Y-102800057D01*
X135833333Y-102800057D02*
X135880952Y-102895295D01*
X135880952Y-102895295D02*
X135880952Y-102942914D01*
X135880952Y-102942914D02*
X135833333Y-103038152D01*
X135833333Y-103038152D02*
X135785714Y-103085771D01*
X135785714Y-103085771D02*
X135690476Y-103133390D01*
X135690476Y-103133390D02*
X135500000Y-103133390D01*
X135500000Y-103133390D02*
X135404762Y-103181009D01*
X135404762Y-103181009D02*
X135357143Y-103228628D01*
X135357143Y-103228628D02*
X135309524Y-103323866D01*
X135309524Y-103323866D02*
X135309524Y-103514342D01*
X135309524Y-103514342D02*
X135357143Y-103609580D01*
X135357143Y-103609580D02*
X135404762Y-103657200D01*
X135404762Y-103657200D02*
X135500000Y-103704819D01*
X135500000Y-103704819D02*
X135690476Y-103704819D01*
X135690476Y-103704819D02*
X135785714Y-103657200D01*
X135785714Y-103657200D02*
X135833333Y-103609580D01*
X135833333Y-103609580D02*
X135880952Y-103514342D01*
X135880952Y-103514342D02*
X135880952Y-103323866D01*
X135880952Y-103323866D02*
X135833333Y-103228628D01*
X135833333Y-103228628D02*
X135785714Y-103181009D01*
X135785714Y-103181009D02*
X135690476Y-103133390D01*
X136214286Y-103704819D02*
X136738095Y-103038152D01*
X136214286Y-103038152D02*
X136738095Y-103704819D01*
X137023810Y-102704819D02*
X137642857Y-102704819D01*
X137642857Y-102704819D02*
X137309524Y-103085771D01*
X137309524Y-103085771D02*
X137452381Y-103085771D01*
X137452381Y-103085771D02*
X137547619Y-103133390D01*
X137547619Y-103133390D02*
X137595238Y-103181009D01*
X137595238Y-103181009D02*
X137642857Y-103276247D01*
X137642857Y-103276247D02*
X137642857Y-103514342D01*
X137642857Y-103514342D02*
X137595238Y-103609580D01*
X137595238Y-103609580D02*
X137547619Y-103657200D01*
X137547619Y-103657200D02*
X137452381Y-103704819D01*
X137452381Y-103704819D02*
X137166667Y-103704819D01*
X137166667Y-103704819D02*
X137071429Y-103657200D01*
X137071429Y-103657200D02*
X137023810Y-103609580D01*
X138023810Y-102800057D02*
X138071429Y-102752438D01*
X138071429Y-102752438D02*
X138166667Y-102704819D01*
X138166667Y-102704819D02*
X138404762Y-102704819D01*
X138404762Y-102704819D02*
X138500000Y-102752438D01*
X138500000Y-102752438D02*
X138547619Y-102800057D01*
X138547619Y-102800057D02*
X138595238Y-102895295D01*
X138595238Y-102895295D02*
X138595238Y-102990533D01*
X138595238Y-102990533D02*
X138547619Y-103133390D01*
X138547619Y-103133390D02*
X137976191Y-103704819D01*
X137976191Y-103704819D02*
X138595238Y-103704819D01*
%TO.C,SW9*%
X117890292Y-114756725D02*
X117999640Y-114860256D01*
X117999640Y-114860256D02*
X118215427Y-114960880D01*
X118215427Y-114960880D02*
X118321867Y-114957971D01*
X118321867Y-114957971D02*
X118385149Y-114934939D01*
X118385149Y-114934939D02*
X118468556Y-114868748D01*
X118468556Y-114868748D02*
X118508805Y-114782433D01*
X118508805Y-114782433D02*
X118505897Y-114675994D01*
X118505897Y-114675994D02*
X118482864Y-114612711D01*
X118482864Y-114612711D02*
X118416674Y-114529304D01*
X118416674Y-114529304D02*
X118264169Y-114405648D01*
X118264169Y-114405648D02*
X118197978Y-114322241D01*
X118197978Y-114322241D02*
X118174945Y-114258959D01*
X118174945Y-114258959D02*
X118172037Y-114152519D01*
X118172037Y-114152519D02*
X118212287Y-114066204D01*
X118212287Y-114066204D02*
X118295693Y-114000014D01*
X118295693Y-114000014D02*
X118358976Y-113976981D01*
X118358976Y-113976981D02*
X118465415Y-113974073D01*
X118465415Y-113974073D02*
X118681203Y-114074697D01*
X118681203Y-114074697D02*
X118790551Y-114178228D01*
X119112778Y-114275943D02*
X118905947Y-115282875D01*
X118905947Y-115282875D02*
X119380448Y-114716011D01*
X119380448Y-114716011D02*
X119251207Y-115443872D01*
X119251207Y-115443872D02*
X119889613Y-114638188D01*
X119556218Y-115691184D02*
X120246738Y-116013179D01*
X120502775Y-116027488D02*
X120925394Y-115121180D01*
X120925394Y-115121180D02*
X121270654Y-115282177D01*
X121270654Y-115282177D02*
X121336844Y-115365584D01*
X121336844Y-115365584D02*
X121359877Y-115428866D01*
X121359877Y-115428866D02*
X121362785Y-115535306D01*
X121362785Y-115535306D02*
X121302411Y-115664779D01*
X121302411Y-115664779D02*
X121219004Y-115730969D01*
X121219004Y-115730969D02*
X121155722Y-115754002D01*
X121155722Y-115754002D02*
X121049282Y-115756910D01*
X121049282Y-115756910D02*
X120704022Y-115595913D01*
X122079246Y-116027023D02*
X121797501Y-116631228D01*
X121690829Y-115845901D02*
X121469457Y-116320633D01*
X121469457Y-116320633D02*
X121472365Y-116427073D01*
X121472365Y-116427073D02*
X121538556Y-116510480D01*
X121538556Y-116510480D02*
X121668028Y-116570854D01*
X121668028Y-116570854D02*
X121774468Y-116567946D01*
X121774468Y-116567946D02*
X121837750Y-116544913D01*
X122206043Y-116769193D02*
X122272234Y-116852600D01*
X122272234Y-116852600D02*
X122444864Y-116933098D01*
X122444864Y-116933098D02*
X122551303Y-116930190D01*
X122551303Y-116930190D02*
X122634710Y-116864000D01*
X122634710Y-116864000D02*
X122654835Y-116820842D01*
X122654835Y-116820842D02*
X122651927Y-116714403D01*
X122651927Y-116714403D02*
X122585736Y-116630996D01*
X122585736Y-116630996D02*
X122456264Y-116570622D01*
X122456264Y-116570622D02*
X122390074Y-116487215D01*
X122390074Y-116487215D02*
X122387165Y-116380775D01*
X122387165Y-116380775D02*
X122407290Y-116337618D01*
X122407290Y-116337618D02*
X122490697Y-116271427D01*
X122490697Y-116271427D02*
X122597137Y-116268519D01*
X122597137Y-116268519D02*
X122726609Y-116328893D01*
X122726609Y-116328893D02*
X122792800Y-116412300D01*
X122962754Y-117174594D02*
X123385372Y-116268287D01*
X123351172Y-117355717D02*
X123572543Y-116880984D01*
X123572543Y-116880984D02*
X123569635Y-116774544D01*
X123569635Y-116774544D02*
X123503445Y-116691137D01*
X123503445Y-116691137D02*
X123373972Y-116630763D01*
X123373972Y-116630763D02*
X123267532Y-116633672D01*
X123267532Y-116633672D02*
X123204250Y-116656704D01*
%TO.C,SW6*%
X188969094Y-69353935D02*
X189118691Y-69336719D01*
X189118691Y-69336719D02*
X189334479Y-69236095D01*
X189334479Y-69236095D02*
X189400669Y-69152689D01*
X189400669Y-69152689D02*
X189423702Y-69089406D01*
X189423702Y-69089406D02*
X189426610Y-68982967D01*
X189426610Y-68982967D02*
X189386361Y-68896652D01*
X189386361Y-68896652D02*
X189302954Y-68830461D01*
X189302954Y-68830461D02*
X189239672Y-68807428D01*
X189239672Y-68807428D02*
X189133232Y-68804520D01*
X189133232Y-68804520D02*
X188940477Y-68841862D01*
X188940477Y-68841862D02*
X188834038Y-68838953D01*
X188834038Y-68838953D02*
X188770755Y-68815921D01*
X188770755Y-68815921D02*
X188687348Y-68749730D01*
X188687348Y-68749730D02*
X188647099Y-68663415D01*
X188647099Y-68663415D02*
X188650007Y-68556975D01*
X188650007Y-68556975D02*
X188673040Y-68493693D01*
X188673040Y-68493693D02*
X188739230Y-68410286D01*
X188739230Y-68410286D02*
X188955018Y-68309663D01*
X188955018Y-68309663D02*
X189104615Y-68292446D01*
X189386593Y-68108416D02*
X190024999Y-68914101D01*
X190024999Y-68914101D02*
X189895759Y-68186239D01*
X189895759Y-68186239D02*
X190370259Y-68753103D01*
X190370259Y-68753103D02*
X190163428Y-67746172D01*
X190755768Y-68678421D02*
X191446289Y-68356426D01*
X191621827Y-68169487D02*
X191199209Y-67263180D01*
X191199209Y-67263180D02*
X191544469Y-67102182D01*
X191544469Y-67102182D02*
X191650909Y-67105090D01*
X191650909Y-67105090D02*
X191714191Y-67128123D01*
X191714191Y-67128123D02*
X191797598Y-67194314D01*
X191797598Y-67194314D02*
X191857972Y-67323786D01*
X191857972Y-67323786D02*
X191855064Y-67430226D01*
X191855064Y-67430226D02*
X191832031Y-67493508D01*
X191832031Y-67493508D02*
X191765840Y-67576915D01*
X191765840Y-67576915D02*
X191420580Y-67737912D01*
X192634807Y-66961542D02*
X192916553Y-67565747D01*
X192246389Y-67142664D02*
X192467761Y-67617397D01*
X192467761Y-67617397D02*
X192551168Y-67683587D01*
X192551168Y-67683587D02*
X192657607Y-67686495D01*
X192657607Y-67686495D02*
X192787080Y-67626121D01*
X192787080Y-67626121D02*
X192853270Y-67542714D01*
X192853270Y-67542714D02*
X192876303Y-67479432D01*
X193284846Y-67341467D02*
X193391285Y-67344376D01*
X193391285Y-67344376D02*
X193563915Y-67263877D01*
X193563915Y-67263877D02*
X193630106Y-67180470D01*
X193630106Y-67180470D02*
X193633014Y-67074030D01*
X193633014Y-67074030D02*
X193612889Y-67030873D01*
X193612889Y-67030873D02*
X193529482Y-66964682D01*
X193529482Y-66964682D02*
X193423043Y-66961774D01*
X193423043Y-66961774D02*
X193293570Y-67022148D01*
X193293570Y-67022148D02*
X193187130Y-67019240D01*
X193187130Y-67019240D02*
X193103723Y-66953050D01*
X193103723Y-66953050D02*
X193083599Y-66909892D01*
X193083599Y-66909892D02*
X193086507Y-66803453D01*
X193086507Y-66803453D02*
X193152697Y-66720046D01*
X193152697Y-66720046D02*
X193282170Y-66659672D01*
X193282170Y-66659672D02*
X193388610Y-66662580D01*
X194081806Y-67022381D02*
X193659187Y-66116073D01*
X194470223Y-66841258D02*
X194248852Y-66366526D01*
X194248852Y-66366526D02*
X194165445Y-66300335D01*
X194165445Y-66300335D02*
X194059005Y-66297427D01*
X194059005Y-66297427D02*
X193929533Y-66357801D01*
X193929533Y-66357801D02*
X193863342Y-66441208D01*
X193863342Y-66441208D02*
X193840310Y-66504490D01*
%TO.C,J1*%
X145142857Y-124044819D02*
X145333333Y-124044819D01*
X145333333Y-124044819D02*
X145428571Y-124092438D01*
X145428571Y-124092438D02*
X145523809Y-124187676D01*
X145523809Y-124187676D02*
X145571428Y-124378152D01*
X145571428Y-124378152D02*
X145571428Y-124711485D01*
X145571428Y-124711485D02*
X145523809Y-124901961D01*
X145523809Y-124901961D02*
X145428571Y-124997200D01*
X145428571Y-124997200D02*
X145333333Y-125044819D01*
X145333333Y-125044819D02*
X145142857Y-125044819D01*
X145142857Y-125044819D02*
X145047619Y-124997200D01*
X145047619Y-124997200D02*
X144952381Y-124901961D01*
X144952381Y-124901961D02*
X144904762Y-124711485D01*
X144904762Y-124711485D02*
X144904762Y-124378152D01*
X144904762Y-124378152D02*
X144952381Y-124187676D01*
X144952381Y-124187676D02*
X145047619Y-124092438D01*
X145047619Y-124092438D02*
X145142857Y-124044819D01*
X146476190Y-125044819D02*
X146000000Y-125044819D01*
X146000000Y-125044819D02*
X146000000Y-124044819D01*
X146809524Y-124521009D02*
X147142857Y-124521009D01*
X147285714Y-125044819D02*
X146809524Y-125044819D01*
X146809524Y-125044819D02*
X146809524Y-124044819D01*
X146809524Y-124044819D02*
X147285714Y-124044819D01*
X147714286Y-125044819D02*
X147714286Y-124044819D01*
X147714286Y-124044819D02*
X147952381Y-124044819D01*
X147952381Y-124044819D02*
X148095238Y-124092438D01*
X148095238Y-124092438D02*
X148190476Y-124187676D01*
X148190476Y-124187676D02*
X148238095Y-124282914D01*
X148238095Y-124282914D02*
X148285714Y-124473390D01*
X148285714Y-124473390D02*
X148285714Y-124616247D01*
X148285714Y-124616247D02*
X148238095Y-124806723D01*
X148238095Y-124806723D02*
X148190476Y-124901961D01*
X148190476Y-124901961D02*
X148095238Y-124997200D01*
X148095238Y-124997200D02*
X147952381Y-125044819D01*
X147952381Y-125044819D02*
X147714286Y-125044819D01*
X148714286Y-124663866D02*
X149476191Y-124663866D01*
X150476190Y-125044819D02*
X149904762Y-125044819D01*
X150190476Y-125044819D02*
X150190476Y-124044819D01*
X150190476Y-124044819D02*
X150095238Y-124187676D01*
X150095238Y-124187676D02*
X150000000Y-124282914D01*
X150000000Y-124282914D02*
X149904762Y-124330533D01*
X150857143Y-124140057D02*
X150904762Y-124092438D01*
X150904762Y-124092438D02*
X151000000Y-124044819D01*
X151000000Y-124044819D02*
X151238095Y-124044819D01*
X151238095Y-124044819D02*
X151333333Y-124092438D01*
X151333333Y-124092438D02*
X151380952Y-124140057D01*
X151380952Y-124140057D02*
X151428571Y-124235295D01*
X151428571Y-124235295D02*
X151428571Y-124330533D01*
X151428571Y-124330533D02*
X151380952Y-124473390D01*
X151380952Y-124473390D02*
X150809524Y-125044819D01*
X150809524Y-125044819D02*
X151428571Y-125044819D01*
X152000000Y-124473390D02*
X151904762Y-124425771D01*
X151904762Y-124425771D02*
X151857143Y-124378152D01*
X151857143Y-124378152D02*
X151809524Y-124282914D01*
X151809524Y-124282914D02*
X151809524Y-124235295D01*
X151809524Y-124235295D02*
X151857143Y-124140057D01*
X151857143Y-124140057D02*
X151904762Y-124092438D01*
X151904762Y-124092438D02*
X152000000Y-124044819D01*
X152000000Y-124044819D02*
X152190476Y-124044819D01*
X152190476Y-124044819D02*
X152285714Y-124092438D01*
X152285714Y-124092438D02*
X152333333Y-124140057D01*
X152333333Y-124140057D02*
X152380952Y-124235295D01*
X152380952Y-124235295D02*
X152380952Y-124282914D01*
X152380952Y-124282914D02*
X152333333Y-124378152D01*
X152333333Y-124378152D02*
X152285714Y-124425771D01*
X152285714Y-124425771D02*
X152190476Y-124473390D01*
X152190476Y-124473390D02*
X152000000Y-124473390D01*
X152000000Y-124473390D02*
X151904762Y-124521009D01*
X151904762Y-124521009D02*
X151857143Y-124568628D01*
X151857143Y-124568628D02*
X151809524Y-124663866D01*
X151809524Y-124663866D02*
X151809524Y-124854342D01*
X151809524Y-124854342D02*
X151857143Y-124949580D01*
X151857143Y-124949580D02*
X151904762Y-124997200D01*
X151904762Y-124997200D02*
X152000000Y-125044819D01*
X152000000Y-125044819D02*
X152190476Y-125044819D01*
X152190476Y-125044819D02*
X152285714Y-124997200D01*
X152285714Y-124997200D02*
X152333333Y-124949580D01*
X152333333Y-124949580D02*
X152380952Y-124854342D01*
X152380952Y-124854342D02*
X152380952Y-124663866D01*
X152380952Y-124663866D02*
X152333333Y-124568628D01*
X152333333Y-124568628D02*
X152285714Y-124521009D01*
X152285714Y-124521009D02*
X152190476Y-124473390D01*
X152714286Y-125044819D02*
X153238095Y-124378152D01*
X152714286Y-124378152D02*
X153238095Y-125044819D01*
X154047619Y-124044819D02*
X153857143Y-124044819D01*
X153857143Y-124044819D02*
X153761905Y-124092438D01*
X153761905Y-124092438D02*
X153714286Y-124140057D01*
X153714286Y-124140057D02*
X153619048Y-124282914D01*
X153619048Y-124282914D02*
X153571429Y-124473390D01*
X153571429Y-124473390D02*
X153571429Y-124854342D01*
X153571429Y-124854342D02*
X153619048Y-124949580D01*
X153619048Y-124949580D02*
X153666667Y-124997200D01*
X153666667Y-124997200D02*
X153761905Y-125044819D01*
X153761905Y-125044819D02*
X153952381Y-125044819D01*
X153952381Y-125044819D02*
X154047619Y-124997200D01*
X154047619Y-124997200D02*
X154095238Y-124949580D01*
X154095238Y-124949580D02*
X154142857Y-124854342D01*
X154142857Y-124854342D02*
X154142857Y-124616247D01*
X154142857Y-124616247D02*
X154095238Y-124521009D01*
X154095238Y-124521009D02*
X154047619Y-124473390D01*
X154047619Y-124473390D02*
X153952381Y-124425771D01*
X153952381Y-124425771D02*
X153761905Y-124425771D01*
X153761905Y-124425771D02*
X153666667Y-124473390D01*
X153666667Y-124473390D02*
X153619048Y-124521009D01*
X153619048Y-124521009D02*
X153571429Y-124616247D01*
X155000000Y-124378152D02*
X155000000Y-125044819D01*
X154761905Y-123997200D02*
X154523810Y-124711485D01*
X154523810Y-124711485D02*
X155142857Y-124711485D01*
%TO.C,BT1*%
X134428570Y-117681009D02*
X134571427Y-117728628D01*
X134571427Y-117728628D02*
X134619046Y-117776247D01*
X134619046Y-117776247D02*
X134666665Y-117871485D01*
X134666665Y-117871485D02*
X134666665Y-118014342D01*
X134666665Y-118014342D02*
X134619046Y-118109580D01*
X134619046Y-118109580D02*
X134571427Y-118157200D01*
X134571427Y-118157200D02*
X134476189Y-118204819D01*
X134476189Y-118204819D02*
X134095237Y-118204819D01*
X134095237Y-118204819D02*
X134095237Y-117204819D01*
X134095237Y-117204819D02*
X134428570Y-117204819D01*
X134428570Y-117204819D02*
X134523808Y-117252438D01*
X134523808Y-117252438D02*
X134571427Y-117300057D01*
X134571427Y-117300057D02*
X134619046Y-117395295D01*
X134619046Y-117395295D02*
X134619046Y-117490533D01*
X134619046Y-117490533D02*
X134571427Y-117585771D01*
X134571427Y-117585771D02*
X134523808Y-117633390D01*
X134523808Y-117633390D02*
X134428570Y-117681009D01*
X134428570Y-117681009D02*
X134095237Y-117681009D01*
X135523808Y-118204819D02*
X135523808Y-117681009D01*
X135523808Y-117681009D02*
X135476189Y-117585771D01*
X135476189Y-117585771D02*
X135380951Y-117538152D01*
X135380951Y-117538152D02*
X135190475Y-117538152D01*
X135190475Y-117538152D02*
X135095237Y-117585771D01*
X135523808Y-118157200D02*
X135428570Y-118204819D01*
X135428570Y-118204819D02*
X135190475Y-118204819D01*
X135190475Y-118204819D02*
X135095237Y-118157200D01*
X135095237Y-118157200D02*
X135047618Y-118061961D01*
X135047618Y-118061961D02*
X135047618Y-117966723D01*
X135047618Y-117966723D02*
X135095237Y-117871485D01*
X135095237Y-117871485D02*
X135190475Y-117823866D01*
X135190475Y-117823866D02*
X135428570Y-117823866D01*
X135428570Y-117823866D02*
X135523808Y-117776247D01*
X135857142Y-117538152D02*
X136238094Y-117538152D01*
X135999999Y-117204819D02*
X135999999Y-118061961D01*
X135999999Y-118061961D02*
X136047618Y-118157200D01*
X136047618Y-118157200D02*
X136142856Y-118204819D01*
X136142856Y-118204819D02*
X136238094Y-118204819D01*
X136428571Y-117538152D02*
X136809523Y-117538152D01*
X136571428Y-117204819D02*
X136571428Y-118061961D01*
X136571428Y-118061961D02*
X136619047Y-118157200D01*
X136619047Y-118157200D02*
X136714285Y-118204819D01*
X136714285Y-118204819D02*
X136809523Y-118204819D01*
X137523809Y-118157200D02*
X137428571Y-118204819D01*
X137428571Y-118204819D02*
X137238095Y-118204819D01*
X137238095Y-118204819D02*
X137142857Y-118157200D01*
X137142857Y-118157200D02*
X137095238Y-118061961D01*
X137095238Y-118061961D02*
X137095238Y-117681009D01*
X137095238Y-117681009D02*
X137142857Y-117585771D01*
X137142857Y-117585771D02*
X137238095Y-117538152D01*
X137238095Y-117538152D02*
X137428571Y-117538152D01*
X137428571Y-117538152D02*
X137523809Y-117585771D01*
X137523809Y-117585771D02*
X137571428Y-117681009D01*
X137571428Y-117681009D02*
X137571428Y-117776247D01*
X137571428Y-117776247D02*
X137095238Y-117871485D01*
X138000000Y-118204819D02*
X138000000Y-117538152D01*
X138000000Y-117728628D02*
X138047619Y-117633390D01*
X138047619Y-117633390D02*
X138095238Y-117585771D01*
X138095238Y-117585771D02*
X138190476Y-117538152D01*
X138190476Y-117538152D02*
X138285714Y-117538152D01*
X138523810Y-117538152D02*
X138761905Y-118204819D01*
X139000000Y-117538152D02*
X138761905Y-118204819D01*
X138761905Y-118204819D02*
X138666667Y-118442914D01*
X138666667Y-118442914D02*
X138619048Y-118490533D01*
X138619048Y-118490533D02*
X138523810Y-118538152D01*
X135714285Y-122631009D02*
X135857142Y-122678628D01*
X135857142Y-122678628D02*
X135904761Y-122726247D01*
X135904761Y-122726247D02*
X135952380Y-122821485D01*
X135952380Y-122821485D02*
X135952380Y-122964342D01*
X135952380Y-122964342D02*
X135904761Y-123059580D01*
X135904761Y-123059580D02*
X135857142Y-123107200D01*
X135857142Y-123107200D02*
X135761904Y-123154819D01*
X135761904Y-123154819D02*
X135380952Y-123154819D01*
X135380952Y-123154819D02*
X135380952Y-122154819D01*
X135380952Y-122154819D02*
X135714285Y-122154819D01*
X135714285Y-122154819D02*
X135809523Y-122202438D01*
X135809523Y-122202438D02*
X135857142Y-122250057D01*
X135857142Y-122250057D02*
X135904761Y-122345295D01*
X135904761Y-122345295D02*
X135904761Y-122440533D01*
X135904761Y-122440533D02*
X135857142Y-122535771D01*
X135857142Y-122535771D02*
X135809523Y-122583390D01*
X135809523Y-122583390D02*
X135714285Y-122631009D01*
X135714285Y-122631009D02*
X135380952Y-122631009D01*
X136238095Y-122154819D02*
X136809523Y-122154819D01*
X136523809Y-123154819D02*
X136523809Y-122154819D01*
X137666666Y-123154819D02*
X137095238Y-123154819D01*
X137380952Y-123154819D02*
X137380952Y-122154819D01*
X137380952Y-122154819D02*
X137285714Y-122297676D01*
X137285714Y-122297676D02*
X137190476Y-122392914D01*
X137190476Y-122392914D02*
X137095238Y-122440533D01*
D11*
%TO.C,SW11*%
X148000002Y-127952500D02*
X148000002Y-125952500D01*
X152000002Y-127952500D02*
X152000002Y-125952500D01*
X152500002Y-129102500D02*
X152000002Y-128602500D01*
X150660002Y-127952500D02*
X150660002Y-125952500D01*
X152000002Y-127952500D02*
X148000002Y-127952500D01*
X151500002Y-129102500D02*
X145700002Y-129102500D01*
X145700002Y-124802500D02*
X154300002Y-124802500D01*
X154300002Y-124802500D02*
X154300002Y-129102500D01*
X154300002Y-129102500D02*
X152500002Y-129102500D01*
X151340002Y-127952500D02*
X151340002Y-125952500D01*
X152000002Y-125952500D02*
X148000002Y-125952500D01*
X152000002Y-128602500D02*
X151500002Y-129102500D01*
X150000002Y-127952500D02*
X150000002Y-125952500D01*
X145700002Y-129102500D02*
X145700002Y-124802500D01*
%TO.C,SW12*%
X161000000Y-121500001D02*
X164000000Y-121500001D01*
X161000000Y-127500001D02*
X161000000Y-121500001D01*
X167000000Y-127500001D02*
X161000000Y-127500001D01*
X167000000Y-121500001D02*
X167000000Y-127500001D01*
X164000000Y-121500001D02*
X167000000Y-121500001D01*
X166015564Y-124500001D02*
G75*
G03*
X166015564Y-124500001I-2015564J0D01*
G01*
%TO.C,BT1*%
X133250000Y-124950000D02*
X139750000Y-124950000D01*
X132550000Y-126550000D02*
X133250000Y-126550000D01*
X139750000Y-126550000D02*
X140450000Y-126550000D01*
X138000000Y-123825000D02*
X138500000Y-124325000D01*
X133250000Y-126550000D02*
X133250000Y-124950000D01*
X138500000Y-124325000D02*
X139000000Y-123825000D01*
X132550000Y-118950000D02*
X132550000Y-126550000D01*
X140450000Y-118950000D02*
X132550000Y-118950000D01*
X139750000Y-124950000D02*
X139750000Y-126550000D01*
X139000000Y-123825000D02*
X138000000Y-123825000D01*
X140450000Y-126550000D02*
X140450000Y-118950000D01*
%TD*%
M02*
