%TF.GenerationSoftware,KiCad,Pcbnew,7.0.5*%
%TF.CreationDate,2023-06-04T15:55:19-04:00*%
%TF.ProjectId,epsilon-kb,65707369-6c6f-46e2-9d6b-622e6b696361,rev?*%
%TF.SameCoordinates,Original*%
%TF.FileFunction,Soldermask,Bot*%
%TF.FilePolarity,Negative*%
%FSLAX46Y46*%
G04 Gerber Fmt 4.6, Leading zero omitted, Abs format (unit mm)*
G04 Created by KiCad (PCBNEW 7.0.5) date 2023-06-04 15:55:19*
%MOMM*%
%LPD*%
G01*
G04 APERTURE LIST*
G04 Aperture macros list*
%AMRoundRect*
0 Rectangle with rounded corners*
0 $1 Rounding radius*
0 $2 $3 $4 $5 $6 $7 $8 $9 X,Y pos of 4 corners*
0 Add a 4 corners polygon primitive as box body*
4,1,4,$2,$3,$4,$5,$6,$7,$8,$9,$2,$3,0*
0 Add four circle primitives for the rounded corners*
1,1,$1+$1,$2,$3*
1,1,$1+$1,$4,$5*
1,1,$1+$1,$6,$7*
1,1,$1+$1,$8,$9*
0 Add four rect primitives between the rounded corners*
20,1,$1+$1,$2,$3,$4,$5,0*
20,1,$1+$1,$4,$5,$6,$7,0*
20,1,$1+$1,$6,$7,$8,$9,0*
20,1,$1+$1,$8,$9,$2,$3,0*%
%AMRotRect*
0 Rectangle, with rotation*
0 The origin of the aperture is its center*
0 $1 length*
0 $2 width*
0 $3 Rotation angle, in degrees counterclockwise*
0 Add horizontal line*
21,1,$1,$2,0,0,$3*%
G04 Aperture macros list end*
%ADD10C,2.200000*%
%ADD11O,2.200000X3.500000*%
%ADD12R,1.500000X2.500000*%
%ADD13O,1.500000X2.500000*%
%ADD14O,2.750000X1.800000*%
%ADD15C,1.397000*%
%ADD16C,1.700000*%
%ADD17C,3.400000*%
%ADD18C,3.000000*%
%ADD19RotRect,2.600000X2.600000X205.000000*%
%ADD20RotRect,2.600000X2.600000X155.000000*%
%ADD21C,2.000000*%
%ADD22R,1.700000X1.700000*%
%ADD23O,1.700000X1.700000*%
%ADD24RoundRect,0.250000X0.350000X0.625000X-0.350000X0.625000X-0.350000X-0.625000X0.350000X-0.625000X0*%
%ADD25O,1.200000X1.750000*%
%ADD26RotRect,1.700000X0.820000X205.000000*%
%ADD27RoundRect,0.205000X0.497932X0.458382X-0.671205X-0.086796X-0.497932X-0.458382X0.671205X0.086796X0*%
%ADD28RotRect,0.900000X1.200000X25.000000*%
%ADD29RotRect,1.700000X0.820000X155.000000*%
%ADD30RoundRect,0.205000X0.671205X-0.086796X-0.497932X0.458382X-0.671205X0.086796X0.497932X-0.458382X0*%
%ADD31RotRect,0.900000X1.200000X155.000000*%
G04 APERTURE END LIST*
D10*
%TO.C,REF\u002A\u002A*%
X132500000Y-81250000D03*
%TD*%
D11*
%TO.C,SW11*%
X145900002Y-126952500D03*
X154100002Y-126952500D03*
D12*
X152000002Y-126952500D03*
D13*
X150000002Y-126952500D03*
X148000002Y-126952500D03*
%TD*%
D14*
%TO.C,U1*%
X141905001Y-85879999D03*
X141905001Y-88419999D03*
X141905001Y-90959999D03*
X141905001Y-93499999D03*
X141905001Y-96039999D03*
X141905001Y-98579999D03*
X141905001Y-101119999D03*
X158095001Y-101119999D03*
X158095001Y-98579999D03*
X158095001Y-96039999D03*
X158095001Y-93499999D03*
X158095001Y-90959999D03*
X158095001Y-88419999D03*
X158095001Y-85879999D03*
D15*
X148730001Y-84927999D03*
X151270001Y-84927999D03*
X148730001Y-87467999D03*
X151270001Y-87467999D03*
X145555001Y-93182999D03*
X145555001Y-91277999D03*
X153810001Y-102707999D03*
X155715001Y-102707999D03*
%TD*%
D16*
%TO.C,SW5*%
X175015307Y-87824400D03*
X184984693Y-83175600D03*
D17*
X180000000Y-85500000D03*
D18*
X177074410Y-91057061D03*
X182493448Y-90847216D03*
D19*
X185733498Y-89336356D03*
X173834360Y-92567921D03*
%TD*%
D10*
%TO.C,REF\u002A\u002A*%
X194500000Y-126000000D03*
%TD*%
D17*
%TO.C,SW2*%
X87372920Y-70285743D03*
D16*
X82388227Y-67961343D03*
D18*
X81235432Y-71616621D03*
X84879472Y-75632959D03*
D16*
X92357613Y-72610143D03*
D20*
X88119523Y-77143819D03*
X77995381Y-70105761D03*
%TD*%
D10*
%TO.C,REF\u002A\u002A*%
X105500000Y-126000000D03*
%TD*%
D17*
%TO.C,SW4*%
X120000000Y-85500000D03*
D18*
X117506552Y-90847216D03*
X113862512Y-86830878D03*
D16*
X115015307Y-83175600D03*
X124984693Y-87824400D03*
D20*
X120746603Y-92358076D03*
X110622461Y-85320018D03*
%TD*%
D18*
%TO.C,SW10*%
X184627314Y-127367028D03*
D16*
X177149173Y-124344212D03*
D17*
X182133866Y-122019812D03*
D16*
X187118559Y-119695412D03*
D18*
X179208276Y-127576873D03*
D19*
X187867364Y-125856168D03*
X175968226Y-129087733D03*
%TD*%
D21*
%TO.C,SW12*%
X167250000Y-122250001D03*
X160750000Y-122250001D03*
X160750000Y-126750001D03*
X167250000Y-126750001D03*
%TD*%
D10*
%TO.C,REF\u002A\u002A*%
X167500000Y-81250000D03*
%TD*%
D17*
%TO.C,SW7*%
X212627081Y-70285743D03*
D16*
X217611774Y-67961343D03*
D18*
X209701491Y-75842804D03*
X215120529Y-75632959D03*
D16*
X207642388Y-72610143D03*
D19*
X218360579Y-74122099D03*
X206461441Y-77353664D03*
%TD*%
D10*
%TO.C,REF\u002A\u002A*%
X239000000Y-62250000D03*
%TD*%
D17*
%TO.C,SW8*%
X234329004Y-74234038D03*
D16*
X239313697Y-71909638D03*
X229344311Y-76558438D03*
D18*
X236822452Y-79581254D03*
X231403414Y-79791099D03*
D19*
X240062502Y-78070394D03*
X228163364Y-81301959D03*
%TD*%
D10*
%TO.C,REF\u002A\u002A*%
X61000000Y-62250000D03*
%TD*%
D18*
%TO.C,SW3*%
X102989140Y-79388279D03*
D16*
X110467281Y-76365463D03*
X100497895Y-71716663D03*
D18*
X99345100Y-75371941D03*
D17*
X105482588Y-74041063D03*
D20*
X106229191Y-80899139D03*
X96105049Y-73861081D03*
%TD*%
D16*
%TO.C,SW1*%
X70655690Y-76558438D03*
X60686304Y-71909638D03*
D17*
X65670997Y-74234038D03*
D18*
X63177549Y-79581254D03*
X59533509Y-75564916D03*
D20*
X66417600Y-81092114D03*
X56293458Y-74054056D03*
%TD*%
D22*
%TO.C,J2*%
X129350000Y-107300000D03*
D23*
X129350000Y-104760000D03*
X129350000Y-102220000D03*
X129350000Y-99680000D03*
%TD*%
D16*
%TO.C,SW9*%
X112881442Y-119695411D03*
D18*
X115372687Y-127367027D03*
D17*
X117866135Y-122019811D03*
D16*
X122850828Y-124344211D03*
D18*
X111728647Y-123350689D03*
D20*
X118612738Y-128877887D03*
X108488596Y-121839829D03*
%TD*%
D16*
%TO.C,SW6*%
X189532720Y-76365463D03*
D17*
X194517413Y-74041063D03*
D18*
X197010861Y-79388279D03*
D16*
X199502106Y-71716663D03*
D18*
X191591823Y-79598124D03*
D19*
X200250911Y-77877419D03*
X188351773Y-81108984D03*
%TD*%
D22*
%TO.C,J1*%
X153810000Y-115700000D03*
D23*
X151270000Y-115700000D03*
X148730000Y-115700000D03*
X146190000Y-115700000D03*
%TD*%
D24*
%TO.C,BT1*%
X138500000Y-125200000D03*
D25*
X136500000Y-125200000D03*
X134500000Y-125200000D03*
%TD*%
D26*
%TO.C,D10*%
X182754478Y-117316904D03*
X182120550Y-115957443D03*
D27*
X177498380Y-118112796D03*
D26*
X178132308Y-119472257D03*
%TD*%
%TO.C,D6*%
X195138025Y-69338155D03*
X194504097Y-67978694D03*
D27*
X189881927Y-70134047D03*
D26*
X190515855Y-71493508D03*
%TD*%
D28*
%TO.C,D20*%
X176412275Y-113654054D03*
X179403091Y-112259414D03*
%TD*%
D29*
%TO.C,D3*%
X109484146Y-71493508D03*
X110118074Y-70134047D03*
D30*
X105495904Y-67978694D03*
D29*
X104861976Y-69338155D03*
%TD*%
%TO.C,D9*%
X121867692Y-119472256D03*
X122501620Y-118112795D03*
D30*
X117879450Y-115957442D03*
D29*
X117245522Y-117316903D03*
%TD*%
D31*
%TO.C,D11*%
X62940222Y-83994436D03*
X59949406Y-82599796D03*
%TD*%
D29*
%TO.C,D4*%
X124001558Y-82952445D03*
X124635486Y-81592984D03*
D30*
X120013316Y-79437631D03*
D29*
X119379388Y-80797092D03*
%TD*%
D31*
%TO.C,D19*%
X123587724Y-113654054D03*
X120596908Y-112259414D03*
%TD*%
D28*
%TO.C,D18*%
X237059778Y-83994436D03*
X240050594Y-82599796D03*
%TD*%
D26*
%TO.C,D7*%
X213247693Y-65582835D03*
X212613765Y-64223374D03*
D27*
X207991595Y-66378727D03*
D26*
X208625523Y-67738188D03*
%TD*%
D29*
%TO.C,D1*%
X69672552Y-71686483D03*
X70306480Y-70327022D03*
D30*
X65684310Y-68171669D03*
D29*
X65050382Y-69531130D03*
%TD*%
D31*
%TO.C,D14*%
X117269225Y-95260399D03*
X114278409Y-93865759D03*
%TD*%
D26*
%TO.C,D5*%
X180620612Y-80797092D03*
X179986684Y-79437631D03*
D27*
X175364514Y-81592984D03*
D26*
X175998442Y-82952445D03*
%TD*%
D28*
%TO.C,D15*%
X182730774Y-95260398D03*
X185721590Y-93865758D03*
%TD*%
D26*
%TO.C,D8*%
X234949616Y-69531130D03*
X234315688Y-68171669D03*
D27*
X229693518Y-70327022D03*
D26*
X230327446Y-71686483D03*
%TD*%
D28*
%TO.C,D17*%
X215357853Y-80046140D03*
X218348669Y-78651500D03*
%TD*%
D31*
%TO.C,D13*%
X102751813Y-83801462D03*
X99760997Y-82406822D03*
%TD*%
D29*
%TO.C,D2*%
X91374478Y-67738187D03*
X92008406Y-66378726D03*
D30*
X87386236Y-64223373D03*
D29*
X86752308Y-65582834D03*
%TD*%
D28*
%TO.C,D16*%
X197248188Y-83801461D03*
X200239004Y-82406821D03*
%TD*%
D31*
%TO.C,D12*%
X84642145Y-80046140D03*
X81651329Y-78651500D03*
%TD*%
M02*
