%TF.GenerationSoftware,KiCad,Pcbnew,7.0.5*%
%TF.CreationDate,2023-06-04T15:55:19-04:00*%
%TF.ProjectId,epsilon-kb,65707369-6c6f-46e2-9d6b-622e6b696361,rev?*%
%TF.SameCoordinates,Original*%
%TF.FileFunction,Legend,Bot*%
%TF.FilePolarity,Positive*%
%FSLAX46Y46*%
G04 Gerber Fmt 4.6, Leading zero omitted, Abs format (unit mm)*
G04 Created by KiCad (PCBNEW 7.0.5) date 2023-06-04 15:55:19*
%MOMM*%
%LPD*%
G01*
G04 APERTURE LIST*
%ADD10C,0.174999*%
%ADD11C,0.150000*%
%ADD12C,0.100000*%
%ADD13C,0.120000*%
G04 APERTURE END LIST*
D10*
X214955436Y-86994739D02*
X214882473Y-87828711D01*
X220289323Y-90729566D02*
X220362285Y-89895594D01*
X214342640Y-85680593D02*
X213583917Y-86034391D01*
X213629201Y-93835232D02*
X220289323Y-90729566D01*
X212943441Y-93355058D02*
X218844839Y-90603191D01*
X212943441Y-93355058D02*
X213629201Y-93835232D01*
X220289323Y-90729566D02*
X214955436Y-86994739D01*
X218159081Y-90123016D02*
X218844839Y-90603191D01*
X214882473Y-87828711D02*
X214533848Y-91813489D01*
X220362285Y-89895594D02*
X214342640Y-85680593D01*
X218159081Y-90123016D02*
X214882473Y-87828711D01*
X213583917Y-86034391D02*
X212943441Y-93355058D01*
X213775127Y-92167288D02*
X218159081Y-90123016D01*
X214342640Y-85680593D02*
X213775127Y-92167288D01*
D11*
X160515350Y-93954819D02*
X159991541Y-93288152D01*
X160515350Y-93288152D02*
X159991541Y-93954819D01*
X134880951Y-128073866D02*
X134119047Y-128073866D01*
X139341792Y-86359580D02*
X139389411Y-86407200D01*
X139389411Y-86407200D02*
X139532268Y-86454819D01*
X139532268Y-86454819D02*
X139627506Y-86454819D01*
X139627506Y-86454819D02*
X139770363Y-86407200D01*
X139770363Y-86407200D02*
X139865601Y-86311961D01*
X139865601Y-86311961D02*
X139913220Y-86216723D01*
X139913220Y-86216723D02*
X139960839Y-86026247D01*
X139960839Y-86026247D02*
X139960839Y-85883390D01*
X139960839Y-85883390D02*
X139913220Y-85692914D01*
X139913220Y-85692914D02*
X139865601Y-85597676D01*
X139865601Y-85597676D02*
X139770363Y-85502438D01*
X139770363Y-85502438D02*
X139627506Y-85454819D01*
X139627506Y-85454819D02*
X139532268Y-85454819D01*
X139532268Y-85454819D02*
X139389411Y-85502438D01*
X139389411Y-85502438D02*
X139341792Y-85550057D01*
X138389411Y-86454819D02*
X138960839Y-86454819D01*
X138675125Y-86454819D02*
X138675125Y-85454819D01*
X138675125Y-85454819D02*
X138770363Y-85597676D01*
X138770363Y-85597676D02*
X138865601Y-85692914D01*
X138865601Y-85692914D02*
X138960839Y-85740533D01*
X209235202Y-90120646D02*
X208933100Y-90261519D01*
X209024999Y-90796625D02*
X209456574Y-90595379D01*
X209456574Y-90595379D02*
X209033955Y-89689071D01*
X209033955Y-89689071D02*
X208602380Y-89890318D01*
X208354835Y-90373542D02*
X208777454Y-91279850D01*
X208374960Y-90416700D02*
X208268520Y-90413792D01*
X208268520Y-90413792D02*
X208095890Y-90494290D01*
X208095890Y-90494290D02*
X208029700Y-90577697D01*
X208029700Y-90577697D02*
X208006667Y-90640979D01*
X208006667Y-90640979D02*
X208003759Y-90747419D01*
X208003759Y-90747419D02*
X208124507Y-91006364D01*
X208124507Y-91006364D02*
X208207914Y-91072555D01*
X208207914Y-91072555D02*
X208271196Y-91095587D01*
X208271196Y-91095587D02*
X208377636Y-91098496D01*
X208377636Y-91098496D02*
X208550266Y-91017997D01*
X208550266Y-91017997D02*
X208616456Y-90934590D01*
X207839621Y-91296834D02*
X207773430Y-91380241D01*
X207773430Y-91380241D02*
X207600800Y-91460740D01*
X207600800Y-91460740D02*
X207494361Y-91457832D01*
X207494361Y-91457832D02*
X207410954Y-91391641D01*
X207410954Y-91391641D02*
X207390829Y-91348484D01*
X207390829Y-91348484D02*
X207393737Y-91242044D01*
X207393737Y-91242044D02*
X207459928Y-91158637D01*
X207459928Y-91158637D02*
X207589400Y-91098263D01*
X207589400Y-91098263D02*
X207655591Y-91014856D01*
X207655591Y-91014856D02*
X207658499Y-90908417D01*
X207658499Y-90908417D02*
X207638374Y-90865259D01*
X207638374Y-90865259D02*
X207554967Y-90799069D01*
X207554967Y-90799069D02*
X207448527Y-90796161D01*
X207448527Y-90796161D02*
X207319055Y-90856535D01*
X207319055Y-90856535D02*
X207252865Y-90939942D01*
X207082910Y-91702236D02*
X206801165Y-91098031D01*
X206660292Y-90795928D02*
X206723574Y-90818961D01*
X206723574Y-90818961D02*
X206700541Y-90882243D01*
X206700541Y-90882243D02*
X206637259Y-90859211D01*
X206637259Y-90859211D02*
X206660292Y-90795928D01*
X206660292Y-90795928D02*
X206700541Y-90882243D01*
X206521863Y-91963857D02*
X206588053Y-91880450D01*
X206588053Y-91880450D02*
X206590961Y-91774010D01*
X206590961Y-91774010D02*
X206228717Y-90997175D01*
X206047130Y-92185228D02*
X206113320Y-92101822D01*
X206113320Y-92101822D02*
X206136353Y-92038539D01*
X206136353Y-92038539D02*
X206139261Y-91932100D01*
X206139261Y-91932100D02*
X206018513Y-91673155D01*
X206018513Y-91673155D02*
X205935106Y-91606964D01*
X205935106Y-91606964D02*
X205871824Y-91583931D01*
X205871824Y-91583931D02*
X205765384Y-91581023D01*
X205765384Y-91581023D02*
X205635912Y-91641397D01*
X205635912Y-91641397D02*
X205569721Y-91724804D01*
X205569721Y-91724804D02*
X205546689Y-91788086D01*
X205546689Y-91788086D02*
X205543780Y-91894526D01*
X205543780Y-91894526D02*
X205664528Y-92153471D01*
X205664528Y-92153471D02*
X205747935Y-92219661D01*
X205747935Y-92219661D02*
X205811218Y-92242694D01*
X205811218Y-92242694D02*
X205917657Y-92245602D01*
X205917657Y-92245602D02*
X206047130Y-92185228D01*
X205074864Y-91903018D02*
X205356609Y-92507223D01*
X205115113Y-91989333D02*
X205051831Y-91966300D01*
X205051831Y-91966300D02*
X204945391Y-91963392D01*
X204945391Y-91963392D02*
X204815919Y-92023766D01*
X204815919Y-92023766D02*
X204749729Y-92107173D01*
X204749729Y-92107173D02*
X204746820Y-92213613D01*
X204746820Y-92213613D02*
X204968192Y-92688345D01*
X203846096Y-93211587D02*
X203423478Y-92305279D01*
X203584475Y-92650540D02*
X203478036Y-92647631D01*
X203478036Y-92647631D02*
X203305406Y-92728130D01*
X203305406Y-92728130D02*
X203239215Y-92811537D01*
X203239215Y-92811537D02*
X203216182Y-92874819D01*
X203216182Y-92874819D02*
X203213274Y-92981259D01*
X203213274Y-92981259D02*
X203334022Y-93240204D01*
X203334022Y-93240204D02*
X203417429Y-93306394D01*
X203417429Y-93306394D02*
X203480711Y-93329427D01*
X203480711Y-93329427D02*
X203587151Y-93332335D01*
X203587151Y-93332335D02*
X203759781Y-93251837D01*
X203759781Y-93251837D02*
X203825971Y-93168430D01*
X202830673Y-92949502D02*
X202896631Y-93654330D01*
X202399098Y-93150748D02*
X202896631Y-93654330D01*
X202896631Y-93654330D02*
X203083569Y-93829868D01*
X203083569Y-93829868D02*
X203146851Y-93852901D01*
X203146851Y-93852901D02*
X203253291Y-93855809D01*
X201645062Y-94237946D02*
X201222444Y-93331638D01*
X201222444Y-93331638D02*
X201006657Y-93432262D01*
X201006657Y-93432262D02*
X200897309Y-93535793D01*
X200897309Y-93535793D02*
X200851243Y-93662358D01*
X200851243Y-93662358D02*
X200848335Y-93768797D01*
X200848335Y-93768797D02*
X200885676Y-93961552D01*
X200885676Y-93961552D02*
X200946050Y-94091025D01*
X200946050Y-94091025D02*
X201069706Y-94243530D01*
X201069706Y-94243530D02*
X201153113Y-94309720D01*
X201153113Y-94309720D02*
X201279678Y-94355786D01*
X201279678Y-94355786D02*
X201429275Y-94338570D01*
X201429275Y-94338570D02*
X201645062Y-94237946D01*
X200373370Y-94778404D02*
X200479810Y-94781312D01*
X200479810Y-94781312D02*
X200652440Y-94700814D01*
X200652440Y-94700814D02*
X200718630Y-94617407D01*
X200718630Y-94617407D02*
X200721538Y-94510967D01*
X200721538Y-94510967D02*
X200560541Y-94165707D01*
X200560541Y-94165707D02*
X200477134Y-94099517D01*
X200477134Y-94099517D02*
X200370694Y-94096609D01*
X200370694Y-94096609D02*
X200198064Y-94177107D01*
X200198064Y-94177107D02*
X200131874Y-94260514D01*
X200131874Y-94260514D02*
X200128966Y-94366954D01*
X200128966Y-94366954D02*
X200169215Y-94453269D01*
X200169215Y-94453269D02*
X200641039Y-94338337D01*
X199832447Y-95083183D02*
X199898637Y-94999776D01*
X199898637Y-94999776D02*
X199901545Y-94893336D01*
X199901545Y-94893336D02*
X199539301Y-94116501D01*
X199334913Y-94579601D02*
X198989653Y-94740599D01*
X199064568Y-94337873D02*
X199426812Y-95114708D01*
X199426812Y-95114708D02*
X199423904Y-95221147D01*
X199423904Y-95221147D02*
X199357714Y-95304554D01*
X199357714Y-95304554D02*
X199271399Y-95344804D01*
X198580878Y-95666799D02*
X198359507Y-95192066D01*
X198359507Y-95192066D02*
X198362415Y-95085626D01*
X198362415Y-95085626D02*
X198428605Y-95002220D01*
X198428605Y-95002220D02*
X198601235Y-94921721D01*
X198601235Y-94921721D02*
X198707675Y-94924629D01*
X198560753Y-95623641D02*
X198667193Y-95626549D01*
X198667193Y-95626549D02*
X198882981Y-95525926D01*
X198882981Y-95525926D02*
X198949171Y-95442519D01*
X198949171Y-95442519D02*
X198952079Y-95336079D01*
X198952079Y-95336079D02*
X198911830Y-95249764D01*
X198911830Y-95249764D02*
X198828423Y-95183574D01*
X198828423Y-95183574D02*
X198721983Y-95180666D01*
X198721983Y-95180666D02*
X198506196Y-95281289D01*
X198506196Y-95281289D02*
X198399756Y-95278381D01*
X197813000Y-94921488D02*
X198019830Y-95928420D01*
X198019830Y-95928420D02*
X197545330Y-95361556D01*
X197545330Y-95361556D02*
X197674570Y-96089417D01*
X197674570Y-96089417D02*
X197036164Y-95283733D01*
X197113523Y-96351038D02*
X196690904Y-95444730D01*
X196725105Y-96532160D02*
X196503734Y-96057427D01*
X196503734Y-96057427D02*
X196506642Y-95950988D01*
X196506642Y-95950988D02*
X196572832Y-95867581D01*
X196572832Y-95867581D02*
X196702305Y-95807207D01*
X196702305Y-95807207D02*
X196808744Y-95810115D01*
X196808744Y-95810115D02*
X196872026Y-95833148D01*
X196098099Y-96088952D02*
X196164057Y-96793781D01*
X195666524Y-96290199D02*
X196164057Y-96793781D01*
X196164057Y-96793781D02*
X196350996Y-96969319D01*
X196350996Y-96969319D02*
X196414278Y-96992352D01*
X196414278Y-96992352D02*
X196520718Y-96995260D01*
X209941558Y-91410080D02*
X210007516Y-92114909D01*
X210007516Y-92114909D02*
X209509983Y-91611327D01*
X209081083Y-92494369D02*
X209187523Y-92497278D01*
X209187523Y-92497278D02*
X209360153Y-92416779D01*
X209360153Y-92416779D02*
X209426344Y-92333372D01*
X209426344Y-92333372D02*
X209429252Y-92226932D01*
X209429252Y-92226932D02*
X209268254Y-91881672D01*
X209268254Y-91881672D02*
X209184847Y-91815482D01*
X209184847Y-91815482D02*
X209078408Y-91812574D01*
X209078408Y-91812574D02*
X208905778Y-91893072D01*
X208905778Y-91893072D02*
X208839587Y-91976479D01*
X208839587Y-91976479D02*
X208836679Y-92082919D01*
X208836679Y-92082919D02*
X208876929Y-92169234D01*
X208876929Y-92169234D02*
X209348753Y-92054302D01*
X208669633Y-92738774D02*
X208387887Y-92134569D01*
X208468386Y-92307199D02*
X208384979Y-92241008D01*
X208384979Y-92241008D02*
X208321697Y-92217976D01*
X208321697Y-92217976D02*
X208215257Y-92215067D01*
X208215257Y-92215067D02*
X208128942Y-92255317D01*
X208131618Y-92937113D02*
X208065427Y-93020520D01*
X208065427Y-93020520D02*
X207892797Y-93101018D01*
X207892797Y-93101018D02*
X207786358Y-93098110D01*
X207786358Y-93098110D02*
X207702951Y-93031920D01*
X207702951Y-93031920D02*
X207682826Y-92988762D01*
X207682826Y-92988762D02*
X207685734Y-92882323D01*
X207685734Y-92882323D02*
X207751925Y-92798916D01*
X207751925Y-92798916D02*
X207881397Y-92738542D01*
X207881397Y-92738542D02*
X207947587Y-92655135D01*
X207947587Y-92655135D02*
X207950496Y-92548695D01*
X207950496Y-92548695D02*
X207930371Y-92505538D01*
X207930371Y-92505538D02*
X207846964Y-92439347D01*
X207846964Y-92439347D02*
X207740524Y-92436439D01*
X207740524Y-92436439D02*
X207611052Y-92496813D01*
X207611052Y-92496813D02*
X207544861Y-92580220D01*
X207374907Y-93342514D02*
X207093161Y-92738309D01*
X206952289Y-92436207D02*
X207015571Y-92459240D01*
X207015571Y-92459240D02*
X206992538Y-92522522D01*
X206992538Y-92522522D02*
X206929256Y-92499489D01*
X206929256Y-92499489D02*
X206952289Y-92436207D01*
X206952289Y-92436207D02*
X206992538Y-92522522D01*
X206813860Y-93604135D02*
X206880050Y-93520728D01*
X206880050Y-93520728D02*
X206903083Y-93457446D01*
X206903083Y-93457446D02*
X206905991Y-93351006D01*
X206905991Y-93351006D02*
X206785243Y-93092061D01*
X206785243Y-93092061D02*
X206701836Y-93025871D01*
X206701836Y-93025871D02*
X206638554Y-93002838D01*
X206638554Y-93002838D02*
X206532114Y-92999930D01*
X206532114Y-92999930D02*
X206402642Y-93060304D01*
X206402642Y-93060304D02*
X206336451Y-93143711D01*
X206336451Y-93143711D02*
X206313418Y-93206993D01*
X206313418Y-93206993D02*
X206310510Y-93313433D01*
X206310510Y-93313433D02*
X206431258Y-93572378D01*
X206431258Y-93572378D02*
X206514665Y-93638568D01*
X206514665Y-93638568D02*
X206577947Y-93661601D01*
X206577947Y-93661601D02*
X206684387Y-93664509D01*
X206684387Y-93664509D02*
X206813860Y-93604135D01*
X205841594Y-93321925D02*
X206123339Y-93926130D01*
X205881843Y-93408240D02*
X205818561Y-93385207D01*
X205818561Y-93385207D02*
X205712121Y-93382299D01*
X205712121Y-93382299D02*
X205582649Y-93442673D01*
X205582649Y-93442673D02*
X205516458Y-93526080D01*
X205516458Y-93526080D02*
X205513550Y-93632519D01*
X205513550Y-93632519D02*
X205734922Y-94107252D01*
X204138093Y-94851865D02*
X204655984Y-94610369D01*
X204397039Y-94731117D02*
X203974420Y-93824810D01*
X203974420Y-93824810D02*
X204121109Y-93914033D01*
X204121109Y-93914033D02*
X204247674Y-93960098D01*
X204247674Y-93960098D02*
X204354113Y-93963007D01*
X203709426Y-94946672D02*
X203686394Y-95009955D01*
X203686394Y-95009955D02*
X203749676Y-95032988D01*
X203749676Y-95032988D02*
X203772709Y-94969705D01*
X203772709Y-94969705D02*
X203709426Y-94946672D01*
X203709426Y-94946672D02*
X203749676Y-95032988D01*
X202722853Y-94408425D02*
X202636538Y-94448674D01*
X202636538Y-94448674D02*
X202570347Y-94532081D01*
X202570347Y-94532081D02*
X202547315Y-94595363D01*
X202547315Y-94595363D02*
X202544406Y-94701803D01*
X202544406Y-94701803D02*
X202581748Y-94894558D01*
X202581748Y-94894558D02*
X202682371Y-95110345D01*
X202682371Y-95110345D02*
X202806027Y-95262851D01*
X202806027Y-95262851D02*
X202889434Y-95329041D01*
X202889434Y-95329041D02*
X202952716Y-95352074D01*
X202952716Y-95352074D02*
X203059156Y-95354982D01*
X203059156Y-95354982D02*
X203145471Y-95314733D01*
X203145471Y-95314733D02*
X203211661Y-95231326D01*
X203211661Y-95231326D02*
X203234694Y-95168044D01*
X203234694Y-95168044D02*
X203237602Y-95061604D01*
X203237602Y-95061604D02*
X203200261Y-94868849D01*
X203200261Y-94868849D02*
X203099638Y-94653062D01*
X203099638Y-94653062D02*
X202975982Y-94500556D01*
X202975982Y-94500556D02*
X202892575Y-94434366D01*
X202892575Y-94434366D02*
X202829292Y-94411333D01*
X202829292Y-94411333D02*
X202722853Y-94408425D01*
X210817404Y-93513691D02*
X210394785Y-92607383D01*
X210428986Y-93694813D02*
X210207615Y-93220080D01*
X210207615Y-93220080D02*
X210210523Y-93113640D01*
X210210523Y-93113640D02*
X210276713Y-93030233D01*
X210276713Y-93030233D02*
X210406186Y-92969859D01*
X210406186Y-92969859D02*
X210512625Y-92972768D01*
X210512625Y-92972768D02*
X210575908Y-92995800D01*
X209845138Y-93231480D02*
X209499878Y-93392478D01*
X209574793Y-92989752D02*
X209937037Y-93766587D01*
X209937037Y-93766587D02*
X209934129Y-93873027D01*
X209934129Y-93873027D02*
X209867938Y-93956434D01*
X209867938Y-93956434D02*
X209781623Y-93996683D01*
X209327247Y-93472977D02*
X208981987Y-93633974D01*
X209056902Y-93231248D02*
X209419146Y-94008083D01*
X209419146Y-94008083D02*
X209416238Y-94114523D01*
X209416238Y-94114523D02*
X209350048Y-94197930D01*
X209350048Y-94197930D02*
X209263733Y-94238179D01*
X208679884Y-93774847D02*
X209102502Y-94681155D01*
X208700009Y-93818005D02*
X208593569Y-93815096D01*
X208593569Y-93815096D02*
X208420939Y-93895595D01*
X208420939Y-93895595D02*
X208354749Y-93979002D01*
X208354749Y-93979002D02*
X208331716Y-94042284D01*
X208331716Y-94042284D02*
X208328808Y-94148724D01*
X208328808Y-94148724D02*
X208449556Y-94407669D01*
X208449556Y-94407669D02*
X208532963Y-94473859D01*
X208532963Y-94473859D02*
X208596245Y-94496892D01*
X208596245Y-94496892D02*
X208702685Y-94499800D01*
X208702685Y-94499800D02*
X208875315Y-94419302D01*
X208875315Y-94419302D02*
X208941505Y-94335895D01*
X208164670Y-94698139D02*
X208098479Y-94781546D01*
X208098479Y-94781546D02*
X207925849Y-94862045D01*
X207925849Y-94862045D02*
X207819410Y-94859136D01*
X207819410Y-94859136D02*
X207736003Y-94792946D01*
X207736003Y-94792946D02*
X207715878Y-94749789D01*
X207715878Y-94749789D02*
X207718786Y-94643349D01*
X207718786Y-94643349D02*
X207784977Y-94559942D01*
X207784977Y-94559942D02*
X207914449Y-94499568D01*
X207914449Y-94499568D02*
X207980639Y-94416161D01*
X207980639Y-94416161D02*
X207983548Y-94309721D01*
X207983548Y-94309721D02*
X207963423Y-94266564D01*
X207963423Y-94266564D02*
X207880016Y-94200373D01*
X207880016Y-94200373D02*
X207773576Y-94197465D01*
X207773576Y-94197465D02*
X207644104Y-94257839D01*
X207644104Y-94257839D02*
X207577913Y-94341246D01*
X207367710Y-95017226D02*
X207344677Y-95080508D01*
X207344677Y-95080508D02*
X207407959Y-95103541D01*
X207407959Y-95103541D02*
X207430992Y-95040259D01*
X207430992Y-95040259D02*
X207367710Y-95017226D01*
X207367710Y-95017226D02*
X207407959Y-95103541D01*
X207146338Y-94542493D02*
X207123305Y-94605775D01*
X207123305Y-94605775D02*
X207186588Y-94628808D01*
X207186588Y-94628808D02*
X207209620Y-94565526D01*
X207209620Y-94565526D02*
X207146338Y-94542493D01*
X207146338Y-94542493D02*
X207186588Y-94628808D01*
X205886279Y-94657192D02*
X207206480Y-95460201D01*
X204936813Y-95099935D02*
X206257015Y-95902944D01*
X204407291Y-95767190D02*
X204749410Y-96500868D01*
X204749410Y-96500868D02*
X204832817Y-96567058D01*
X204832817Y-96567058D02*
X204896099Y-96590091D01*
X204896099Y-96590091D02*
X205002539Y-96592999D01*
X205002539Y-96592999D02*
X205132011Y-96532625D01*
X205132011Y-96532625D02*
X205198202Y-96449218D01*
X204668911Y-96328238D02*
X204775351Y-96331146D01*
X204775351Y-96331146D02*
X204947981Y-96250647D01*
X204947981Y-96250647D02*
X205014172Y-96167240D01*
X205014172Y-96167240D02*
X205037204Y-96103958D01*
X205037204Y-96103958D02*
X205040113Y-95997518D01*
X205040113Y-95997518D02*
X204919364Y-95738573D01*
X204919364Y-95738573D02*
X204835958Y-95672383D01*
X204835958Y-95672383D02*
X204772675Y-95649350D01*
X204772675Y-95649350D02*
X204666236Y-95646442D01*
X204666236Y-95646442D02*
X204493606Y-95726941D01*
X204493606Y-95726941D02*
X204427415Y-95810348D01*
X204257461Y-96572642D02*
X203975715Y-95968437D01*
X203834843Y-95666334D02*
X203898125Y-95689367D01*
X203898125Y-95689367D02*
X203875092Y-95752649D01*
X203875092Y-95752649D02*
X203811810Y-95729617D01*
X203811810Y-95729617D02*
X203834843Y-95666334D01*
X203834843Y-95666334D02*
X203875092Y-95752649D01*
X203673613Y-96109310D02*
X203328353Y-96270307D01*
X203403268Y-95867581D02*
X203765512Y-96644416D01*
X203765512Y-96644416D02*
X203762604Y-96750856D01*
X203762604Y-96750856D02*
X203696414Y-96834263D01*
X203696414Y-96834263D02*
X203610099Y-96874512D01*
X203307996Y-97015385D02*
X202885377Y-96109077D01*
X202919578Y-97196507D02*
X202698207Y-96721775D01*
X202698207Y-96721775D02*
X202701115Y-96615335D01*
X202701115Y-96615335D02*
X202767305Y-96531928D01*
X202767305Y-96531928D02*
X202896778Y-96471554D01*
X202896778Y-96471554D02*
X203003217Y-96474462D01*
X203003217Y-96474462D02*
X203066500Y-96497495D01*
X201817840Y-96974671D02*
X202099585Y-97578876D01*
X202206257Y-96793549D02*
X202427629Y-97268281D01*
X202427629Y-97268281D02*
X202424721Y-97374721D01*
X202424721Y-97374721D02*
X202358530Y-97458128D01*
X202358530Y-97458128D02*
X202229058Y-97518502D01*
X202229058Y-97518502D02*
X202122618Y-97515594D01*
X202122618Y-97515594D02*
X202059336Y-97492561D01*
X201668010Y-97780123D02*
X201245392Y-96873815D01*
X201406389Y-97219075D02*
X201299949Y-97216167D01*
X201299949Y-97216167D02*
X201127319Y-97296666D01*
X201127319Y-97296666D02*
X201061129Y-97380073D01*
X201061129Y-97380073D02*
X201038096Y-97443355D01*
X201038096Y-97443355D02*
X201035188Y-97549795D01*
X201035188Y-97549795D02*
X201155936Y-97808740D01*
X201155936Y-97808740D02*
X201239343Y-97874930D01*
X201239343Y-97874930D02*
X201302625Y-97897963D01*
X201302625Y-97897963D02*
X201409065Y-97900871D01*
X201409065Y-97900871D02*
X201581695Y-97820372D01*
X201581695Y-97820372D02*
X201647885Y-97736965D01*
X200807768Y-98076177D02*
X200784735Y-98139459D01*
X200784735Y-98139459D02*
X200848017Y-98162492D01*
X200848017Y-98162492D02*
X200871050Y-98099210D01*
X200871050Y-98099210D02*
X200807768Y-98076177D01*
X200807768Y-98076177D02*
X200848017Y-98162492D01*
X200007900Y-98501703D02*
X200114340Y-98504611D01*
X200114340Y-98504611D02*
X200286970Y-98424113D01*
X200286970Y-98424113D02*
X200353160Y-98340706D01*
X200353160Y-98340706D02*
X200376193Y-98277423D01*
X200376193Y-98277423D02*
X200379101Y-98170984D01*
X200379101Y-98170984D02*
X200258353Y-97912039D01*
X200258353Y-97912039D02*
X200174946Y-97845848D01*
X200174946Y-97845848D02*
X200111664Y-97822815D01*
X200111664Y-97822815D02*
X200005224Y-97819907D01*
X200005224Y-97819907D02*
X199832594Y-97900406D01*
X199832594Y-97900406D02*
X199766404Y-97983813D01*
X199510135Y-98786357D02*
X199576325Y-98702950D01*
X199576325Y-98702950D02*
X199599358Y-98639668D01*
X199599358Y-98639668D02*
X199602266Y-98533228D01*
X199602266Y-98533228D02*
X199481518Y-98274283D01*
X199481518Y-98274283D02*
X199398111Y-98208093D01*
X199398111Y-98208093D02*
X199334829Y-98185060D01*
X199334829Y-98185060D02*
X199228389Y-98182152D01*
X199228389Y-98182152D02*
X199098916Y-98242526D01*
X199098916Y-98242526D02*
X199032726Y-98325933D01*
X199032726Y-98325933D02*
X199009693Y-98389215D01*
X199009693Y-98389215D02*
X199006785Y-98495654D01*
X199006785Y-98495654D02*
X199127533Y-98754600D01*
X199127533Y-98754600D02*
X199210940Y-98820790D01*
X199210940Y-98820790D02*
X199274222Y-98843823D01*
X199274222Y-98843823D02*
X199380662Y-98846731D01*
X199380662Y-98846731D02*
X199510135Y-98786357D01*
X198819614Y-99108352D02*
X198537869Y-98504147D01*
X198578118Y-98590462D02*
X198514836Y-98567429D01*
X198514836Y-98567429D02*
X198408396Y-98564521D01*
X198408396Y-98564521D02*
X198278924Y-98624895D01*
X198278924Y-98624895D02*
X198212733Y-98708301D01*
X198212733Y-98708301D02*
X198209825Y-98814741D01*
X198209825Y-98814741D02*
X198431197Y-99289474D01*
X198209825Y-98814741D02*
X198126418Y-98748551D01*
X198126418Y-98748551D02*
X198019979Y-98745643D01*
X198019979Y-98745643D02*
X197890506Y-98806017D01*
X197890506Y-98806017D02*
X197824316Y-98889424D01*
X197824316Y-98889424D02*
X197821407Y-98995863D01*
X197821407Y-98995863D02*
X198042779Y-99470596D01*
X196521098Y-99024247D02*
X197841300Y-99827256D01*
X196661739Y-100114586D02*
X196239121Y-99208278D01*
X196239121Y-99208278D02*
X196023333Y-99308901D01*
X196023333Y-99308901D02*
X195913985Y-99412433D01*
X195913985Y-99412433D02*
X195867919Y-99538997D01*
X195867919Y-99538997D02*
X195865011Y-99645437D01*
X195865011Y-99645437D02*
X195902353Y-99838192D01*
X195902353Y-99838192D02*
X195962727Y-99967664D01*
X195962727Y-99967664D02*
X196086383Y-100120169D01*
X196086383Y-100120169D02*
X196169790Y-100186360D01*
X196169790Y-100186360D02*
X196296354Y-100232425D01*
X196296354Y-100232425D02*
X196445951Y-100215209D01*
X196445951Y-100215209D02*
X196661739Y-100114586D01*
X195390046Y-100655044D02*
X195496486Y-100657952D01*
X195496486Y-100657952D02*
X195669116Y-100577453D01*
X195669116Y-100577453D02*
X195735306Y-100494046D01*
X195735306Y-100494046D02*
X195738215Y-100387607D01*
X195738215Y-100387607D02*
X195577217Y-100042346D01*
X195577217Y-100042346D02*
X195493810Y-99976156D01*
X195493810Y-99976156D02*
X195387371Y-99973248D01*
X195387371Y-99973248D02*
X195214740Y-100053747D01*
X195214740Y-100053747D02*
X195148550Y-100137154D01*
X195148550Y-100137154D02*
X195145642Y-100243593D01*
X195145642Y-100243593D02*
X195185891Y-100329908D01*
X195185891Y-100329908D02*
X195657716Y-100214977D01*
X194849123Y-100959822D02*
X194915314Y-100876415D01*
X194915314Y-100876415D02*
X194918222Y-100769976D01*
X194918222Y-100769976D02*
X194555977Y-99993140D01*
X194351590Y-100456241D02*
X194006330Y-100617238D01*
X194081244Y-100214512D02*
X194443489Y-100991347D01*
X194443489Y-100991347D02*
X194440580Y-101097787D01*
X194440580Y-101097787D02*
X194374390Y-101181194D01*
X194374390Y-101181194D02*
X194288075Y-101221443D01*
X193597554Y-101543438D02*
X193376183Y-101068706D01*
X193376183Y-101068706D02*
X193379091Y-100962266D01*
X193379091Y-100962266D02*
X193445281Y-100878859D01*
X193445281Y-100878859D02*
X193617912Y-100798360D01*
X193617912Y-100798360D02*
X193724351Y-100801268D01*
X193577430Y-101500281D02*
X193683869Y-101503189D01*
X193683869Y-101503189D02*
X193899657Y-101402565D01*
X193899657Y-101402565D02*
X193965847Y-101319159D01*
X193965847Y-101319159D02*
X193968756Y-101212719D01*
X193968756Y-101212719D02*
X193928506Y-101126404D01*
X193928506Y-101126404D02*
X193845099Y-101060213D01*
X193845099Y-101060213D02*
X193738660Y-101057305D01*
X193738660Y-101057305D02*
X193522872Y-101157929D01*
X193522872Y-101157929D02*
X193416432Y-101155021D01*
X192829676Y-100798128D02*
X193036507Y-101805059D01*
X193036507Y-101805059D02*
X192562006Y-101238195D01*
X192562006Y-101238195D02*
X192691247Y-101966056D01*
X192691247Y-101966056D02*
X192052841Y-101160372D01*
X192130199Y-102227677D02*
X191707581Y-101321369D01*
X191741781Y-102408799D02*
X191520410Y-101934067D01*
X191520410Y-101934067D02*
X191523318Y-101827627D01*
X191523318Y-101827627D02*
X191589508Y-101744220D01*
X191589508Y-101744220D02*
X191718981Y-101683846D01*
X191718981Y-101683846D02*
X191825421Y-101686754D01*
X191825421Y-101686754D02*
X191888703Y-101709787D01*
X191114776Y-101965592D02*
X191180734Y-102670420D01*
X190683201Y-102166838D02*
X191180734Y-102670420D01*
X191180734Y-102670420D02*
X191367672Y-102845958D01*
X191367672Y-102845958D02*
X191430954Y-102868991D01*
X191430954Y-102868991D02*
X191537394Y-102871899D01*
X189529580Y-102284446D02*
X190849782Y-103087455D01*
X189304836Y-103492624D02*
X189411275Y-103495532D01*
X189411275Y-103495532D02*
X189583905Y-103415033D01*
X189583905Y-103415033D02*
X189650096Y-103331627D01*
X189650096Y-103331627D02*
X189653004Y-103225187D01*
X189653004Y-103225187D02*
X189492007Y-102879927D01*
X189492007Y-102879927D02*
X189408600Y-102813736D01*
X189408600Y-102813736D02*
X189302160Y-102810828D01*
X189302160Y-102810828D02*
X189129530Y-102891327D01*
X189129530Y-102891327D02*
X189063340Y-102974734D01*
X189063340Y-102974734D02*
X189060431Y-103081174D01*
X189060431Y-103081174D02*
X189100681Y-103167489D01*
X189100681Y-103167489D02*
X189572505Y-103052557D01*
X188611640Y-103132823D02*
X189034258Y-104039131D01*
X188631764Y-103175981D02*
X188525325Y-103173073D01*
X188525325Y-103173073D02*
X188352695Y-103253571D01*
X188352695Y-103253571D02*
X188286504Y-103336978D01*
X188286504Y-103336978D02*
X188263471Y-103400260D01*
X188263471Y-103400260D02*
X188260563Y-103506700D01*
X188260563Y-103506700D02*
X188381311Y-103765645D01*
X188381311Y-103765645D02*
X188464718Y-103831835D01*
X188464718Y-103831835D02*
X188528000Y-103854868D01*
X188528000Y-103854868D02*
X188634440Y-103857776D01*
X188634440Y-103857776D02*
X188807070Y-103777278D01*
X188807070Y-103777278D02*
X188873260Y-103693871D01*
X188096425Y-104056115D02*
X188030235Y-104139522D01*
X188030235Y-104139522D02*
X187857605Y-104220021D01*
X187857605Y-104220021D02*
X187751165Y-104217113D01*
X187751165Y-104217113D02*
X187667758Y-104150922D01*
X187667758Y-104150922D02*
X187647633Y-104107765D01*
X187647633Y-104107765D02*
X187650542Y-104001325D01*
X187650542Y-104001325D02*
X187716732Y-103917918D01*
X187716732Y-103917918D02*
X187846204Y-103857544D01*
X187846204Y-103857544D02*
X187912395Y-103774137D01*
X187912395Y-103774137D02*
X187915303Y-103667697D01*
X187915303Y-103667697D02*
X187895178Y-103624540D01*
X187895178Y-103624540D02*
X187811771Y-103558350D01*
X187811771Y-103558350D02*
X187705332Y-103555441D01*
X187705332Y-103555441D02*
X187575859Y-103615816D01*
X187575859Y-103615816D02*
X187509669Y-103699222D01*
X187339714Y-104461517D02*
X187057969Y-103857312D01*
X186917096Y-103555209D02*
X186980378Y-103578242D01*
X186980378Y-103578242D02*
X186957345Y-103641524D01*
X186957345Y-103641524D02*
X186894063Y-103618491D01*
X186894063Y-103618491D02*
X186917096Y-103555209D01*
X186917096Y-103555209D02*
X186957345Y-103641524D01*
X186778667Y-104723138D02*
X186844857Y-104639731D01*
X186844857Y-104639731D02*
X186847766Y-104533291D01*
X186847766Y-104533291D02*
X186485521Y-103756456D01*
X186303934Y-104944509D02*
X186370124Y-104861102D01*
X186370124Y-104861102D02*
X186393157Y-104797820D01*
X186393157Y-104797820D02*
X186396065Y-104691380D01*
X186396065Y-104691380D02*
X186275317Y-104432435D01*
X186275317Y-104432435D02*
X186191910Y-104366245D01*
X186191910Y-104366245D02*
X186128628Y-104343212D01*
X186128628Y-104343212D02*
X186022189Y-104340304D01*
X186022189Y-104340304D02*
X185892716Y-104400678D01*
X185892716Y-104400678D02*
X185826526Y-104484085D01*
X185826526Y-104484085D02*
X185803493Y-104547367D01*
X185803493Y-104547367D02*
X185800585Y-104653807D01*
X185800585Y-104653807D02*
X185921333Y-104912752D01*
X185921333Y-104912752D02*
X186004740Y-104978942D01*
X186004740Y-104978942D02*
X186068022Y-105001975D01*
X186068022Y-105001975D02*
X186174461Y-105004883D01*
X186174461Y-105004883D02*
X186303934Y-104944509D01*
X185331668Y-104662299D02*
X185613414Y-105266504D01*
X185371918Y-104748614D02*
X185308635Y-104725581D01*
X185308635Y-104725581D02*
X185202196Y-104722673D01*
X185202196Y-104722673D02*
X185072723Y-104783047D01*
X185072723Y-104783047D02*
X185006533Y-104866454D01*
X185006533Y-104866454D02*
X185003625Y-104972894D01*
X185003625Y-104972894D02*
X185224996Y-105447626D01*
X184632423Y-105303613D02*
X183941903Y-105625608D01*
X183671326Y-106172115D02*
X183248707Y-105265807D01*
X183424013Y-105867104D02*
X183326066Y-106333112D01*
X183044320Y-105728907D02*
X183550578Y-105913170D01*
X182937648Y-106514234D02*
X182515030Y-105607926D01*
X182676027Y-105953187D02*
X182569587Y-105950278D01*
X182569587Y-105950278D02*
X182396957Y-106030777D01*
X182396957Y-106030777D02*
X182330767Y-106114184D01*
X182330767Y-106114184D02*
X182307734Y-106177466D01*
X182307734Y-106177466D02*
X182304826Y-106283906D01*
X182304826Y-106283906D02*
X182425574Y-106542851D01*
X182425574Y-106542851D02*
X182508981Y-106609041D01*
X182508981Y-106609041D02*
X182572263Y-106632074D01*
X182572263Y-106632074D02*
X182678703Y-106634982D01*
X182678703Y-106634982D02*
X182851333Y-106554484D01*
X182851333Y-106554484D02*
X182917523Y-106471077D01*
X139341792Y-93859580D02*
X139389411Y-93907200D01*
X139389411Y-93907200D02*
X139532268Y-93954819D01*
X139532268Y-93954819D02*
X139627506Y-93954819D01*
X139627506Y-93954819D02*
X139770363Y-93907200D01*
X139770363Y-93907200D02*
X139865601Y-93811961D01*
X139865601Y-93811961D02*
X139913220Y-93716723D01*
X139913220Y-93716723D02*
X139960839Y-93526247D01*
X139960839Y-93526247D02*
X139960839Y-93383390D01*
X139960839Y-93383390D02*
X139913220Y-93192914D01*
X139913220Y-93192914D02*
X139865601Y-93097676D01*
X139865601Y-93097676D02*
X139770363Y-93002438D01*
X139770363Y-93002438D02*
X139627506Y-92954819D01*
X139627506Y-92954819D02*
X139532268Y-92954819D01*
X139532268Y-92954819D02*
X139389411Y-93002438D01*
X139389411Y-93002438D02*
X139341792Y-93050057D01*
X138484649Y-93288152D02*
X138484649Y-93954819D01*
X138722744Y-92907200D02*
X138960839Y-93621485D01*
X138960839Y-93621485D02*
X138341792Y-93621485D01*
X139960839Y-99157200D02*
X139817982Y-99204819D01*
X139817982Y-99204819D02*
X139579887Y-99204819D01*
X139579887Y-99204819D02*
X139484649Y-99157200D01*
X139484649Y-99157200D02*
X139437030Y-99109580D01*
X139437030Y-99109580D02*
X139389411Y-99014342D01*
X139389411Y-99014342D02*
X139389411Y-98919104D01*
X139389411Y-98919104D02*
X139437030Y-98823866D01*
X139437030Y-98823866D02*
X139484649Y-98776247D01*
X139484649Y-98776247D02*
X139579887Y-98728628D01*
X139579887Y-98728628D02*
X139770363Y-98681009D01*
X139770363Y-98681009D02*
X139865601Y-98633390D01*
X139865601Y-98633390D02*
X139913220Y-98585771D01*
X139913220Y-98585771D02*
X139960839Y-98490533D01*
X139960839Y-98490533D02*
X139960839Y-98395295D01*
X139960839Y-98395295D02*
X139913220Y-98300057D01*
X139913220Y-98300057D02*
X139865601Y-98252438D01*
X139865601Y-98252438D02*
X139770363Y-98204819D01*
X139770363Y-98204819D02*
X139532268Y-98204819D01*
X139532268Y-98204819D02*
X139389411Y-98252438D01*
X138389411Y-99109580D02*
X138437030Y-99157200D01*
X138437030Y-99157200D02*
X138579887Y-99204819D01*
X138579887Y-99204819D02*
X138675125Y-99204819D01*
X138675125Y-99204819D02*
X138817982Y-99157200D01*
X138817982Y-99157200D02*
X138913220Y-99061961D01*
X138913220Y-99061961D02*
X138960839Y-98966723D01*
X138960839Y-98966723D02*
X139008458Y-98776247D01*
X139008458Y-98776247D02*
X139008458Y-98633390D01*
X139008458Y-98633390D02*
X138960839Y-98442914D01*
X138960839Y-98442914D02*
X138913220Y-98347676D01*
X138913220Y-98347676D02*
X138817982Y-98252438D01*
X138817982Y-98252438D02*
X138675125Y-98204819D01*
X138675125Y-98204819D02*
X138579887Y-98204819D01*
X138579887Y-98204819D02*
X138437030Y-98252438D01*
X138437030Y-98252438D02*
X138389411Y-98300057D01*
X137484649Y-99204819D02*
X137960839Y-99204819D01*
X137960839Y-99204819D02*
X137960839Y-98204819D01*
X154634398Y-87002438D02*
X154729636Y-86954819D01*
X154729636Y-86954819D02*
X154872493Y-86954819D01*
X154872493Y-86954819D02*
X155015350Y-87002438D01*
X155015350Y-87002438D02*
X155110588Y-87097676D01*
X155110588Y-87097676D02*
X155158207Y-87192914D01*
X155158207Y-87192914D02*
X155205826Y-87383390D01*
X155205826Y-87383390D02*
X155205826Y-87526247D01*
X155205826Y-87526247D02*
X155158207Y-87716723D01*
X155158207Y-87716723D02*
X155110588Y-87811961D01*
X155110588Y-87811961D02*
X155015350Y-87907200D01*
X155015350Y-87907200D02*
X154872493Y-87954819D01*
X154872493Y-87954819D02*
X154777255Y-87954819D01*
X154777255Y-87954819D02*
X154634398Y-87907200D01*
X154634398Y-87907200D02*
X154586779Y-87859580D01*
X154586779Y-87859580D02*
X154586779Y-87526247D01*
X154586779Y-87526247D02*
X154777255Y-87526247D01*
X154158207Y-87954819D02*
X154158207Y-86954819D01*
X154158207Y-86954819D02*
X153586779Y-87954819D01*
X153586779Y-87954819D02*
X153586779Y-86954819D01*
X153110588Y-87954819D02*
X153110588Y-86954819D01*
X153110588Y-86954819D02*
X152872493Y-86954819D01*
X152872493Y-86954819D02*
X152729636Y-87002438D01*
X152729636Y-87002438D02*
X152634398Y-87097676D01*
X152634398Y-87097676D02*
X152586779Y-87192914D01*
X152586779Y-87192914D02*
X152539160Y-87383390D01*
X152539160Y-87383390D02*
X152539160Y-87526247D01*
X152539160Y-87526247D02*
X152586779Y-87716723D01*
X152586779Y-87716723D02*
X152634398Y-87811961D01*
X152634398Y-87811961D02*
X152729636Y-87907200D01*
X152729636Y-87907200D02*
X152872493Y-87954819D01*
X152872493Y-87954819D02*
X153110588Y-87954819D01*
X148265350Y-93181009D02*
X148122493Y-93228628D01*
X148122493Y-93228628D02*
X148074874Y-93276247D01*
X148074874Y-93276247D02*
X148027255Y-93371485D01*
X148027255Y-93371485D02*
X148027255Y-93514342D01*
X148027255Y-93514342D02*
X148074874Y-93609580D01*
X148074874Y-93609580D02*
X148122493Y-93657200D01*
X148122493Y-93657200D02*
X148217731Y-93704819D01*
X148217731Y-93704819D02*
X148598683Y-93704819D01*
X148598683Y-93704819D02*
X148598683Y-92704819D01*
X148598683Y-92704819D02*
X148265350Y-92704819D01*
X148265350Y-92704819D02*
X148170112Y-92752438D01*
X148170112Y-92752438D02*
X148122493Y-92800057D01*
X148122493Y-92800057D02*
X148074874Y-92895295D01*
X148074874Y-92895295D02*
X148074874Y-92990533D01*
X148074874Y-92990533D02*
X148122493Y-93085771D01*
X148122493Y-93085771D02*
X148170112Y-93133390D01*
X148170112Y-93133390D02*
X148265350Y-93181009D01*
X148265350Y-93181009D02*
X148598683Y-93181009D01*
X147598683Y-93323866D02*
X146836779Y-93323866D01*
X147217731Y-93704819D02*
X147217731Y-92942914D01*
X139960839Y-96657200D02*
X139817982Y-96704819D01*
X139817982Y-96704819D02*
X139579887Y-96704819D01*
X139579887Y-96704819D02*
X139484649Y-96657200D01*
X139484649Y-96657200D02*
X139437030Y-96609580D01*
X139437030Y-96609580D02*
X139389411Y-96514342D01*
X139389411Y-96514342D02*
X139389411Y-96419104D01*
X139389411Y-96419104D02*
X139437030Y-96323866D01*
X139437030Y-96323866D02*
X139484649Y-96276247D01*
X139484649Y-96276247D02*
X139579887Y-96228628D01*
X139579887Y-96228628D02*
X139770363Y-96181009D01*
X139770363Y-96181009D02*
X139865601Y-96133390D01*
X139865601Y-96133390D02*
X139913220Y-96085771D01*
X139913220Y-96085771D02*
X139960839Y-95990533D01*
X139960839Y-95990533D02*
X139960839Y-95895295D01*
X139960839Y-95895295D02*
X139913220Y-95800057D01*
X139913220Y-95800057D02*
X139865601Y-95752438D01*
X139865601Y-95752438D02*
X139770363Y-95704819D01*
X139770363Y-95704819D02*
X139532268Y-95704819D01*
X139532268Y-95704819D02*
X139389411Y-95752438D01*
X138960839Y-96704819D02*
X138960839Y-95704819D01*
X138960839Y-95704819D02*
X138722744Y-95704819D01*
X138722744Y-95704819D02*
X138579887Y-95752438D01*
X138579887Y-95752438D02*
X138484649Y-95847676D01*
X138484649Y-95847676D02*
X138437030Y-95942914D01*
X138437030Y-95942914D02*
X138389411Y-96133390D01*
X138389411Y-96133390D02*
X138389411Y-96276247D01*
X138389411Y-96276247D02*
X138437030Y-96466723D01*
X138437030Y-96466723D02*
X138484649Y-96561961D01*
X138484649Y-96561961D02*
X138579887Y-96657200D01*
X138579887Y-96657200D02*
X138722744Y-96704819D01*
X138722744Y-96704819D02*
X138960839Y-96704819D01*
X138008458Y-96419104D02*
X137532268Y-96419104D01*
X138103696Y-96704819D02*
X137770363Y-95704819D01*
X137770363Y-95704819D02*
X137437030Y-96704819D01*
X162467731Y-90454819D02*
X161848684Y-90454819D01*
X161848684Y-90454819D02*
X162182017Y-90835771D01*
X162182017Y-90835771D02*
X162039160Y-90835771D01*
X162039160Y-90835771D02*
X161943922Y-90883390D01*
X161943922Y-90883390D02*
X161896303Y-90931009D01*
X161896303Y-90931009D02*
X161848684Y-91026247D01*
X161848684Y-91026247D02*
X161848684Y-91264342D01*
X161848684Y-91264342D02*
X161896303Y-91359580D01*
X161896303Y-91359580D02*
X161943922Y-91407200D01*
X161943922Y-91407200D02*
X162039160Y-91454819D01*
X162039160Y-91454819D02*
X162324874Y-91454819D01*
X162324874Y-91454819D02*
X162420112Y-91407200D01*
X162420112Y-91407200D02*
X162467731Y-91359580D01*
X161562969Y-90454819D02*
X161229636Y-91454819D01*
X161229636Y-91454819D02*
X160896303Y-90454819D01*
X160658207Y-90454819D02*
X160039160Y-90454819D01*
X160039160Y-90454819D02*
X160372493Y-90835771D01*
X160372493Y-90835771D02*
X160229636Y-90835771D01*
X160229636Y-90835771D02*
X160134398Y-90883390D01*
X160134398Y-90883390D02*
X160086779Y-90931009D01*
X160086779Y-90931009D02*
X160039160Y-91026247D01*
X160039160Y-91026247D02*
X160039160Y-91264342D01*
X160039160Y-91264342D02*
X160086779Y-91359580D01*
X160086779Y-91359580D02*
X160134398Y-91407200D01*
X160134398Y-91407200D02*
X160229636Y-91454819D01*
X160229636Y-91454819D02*
X160515350Y-91454819D01*
X160515350Y-91454819D02*
X160610588Y-91407200D01*
X160610588Y-91407200D02*
X160658207Y-91359580D01*
X139341792Y-91359580D02*
X139389411Y-91407200D01*
X139389411Y-91407200D02*
X139532268Y-91454819D01*
X139532268Y-91454819D02*
X139627506Y-91454819D01*
X139627506Y-91454819D02*
X139770363Y-91407200D01*
X139770363Y-91407200D02*
X139865601Y-91311961D01*
X139865601Y-91311961D02*
X139913220Y-91216723D01*
X139913220Y-91216723D02*
X139960839Y-91026247D01*
X139960839Y-91026247D02*
X139960839Y-90883390D01*
X139960839Y-90883390D02*
X139913220Y-90692914D01*
X139913220Y-90692914D02*
X139865601Y-90597676D01*
X139865601Y-90597676D02*
X139770363Y-90502438D01*
X139770363Y-90502438D02*
X139627506Y-90454819D01*
X139627506Y-90454819D02*
X139532268Y-90454819D01*
X139532268Y-90454819D02*
X139389411Y-90502438D01*
X139389411Y-90502438D02*
X139341792Y-90550057D01*
X139008458Y-90454819D02*
X138389411Y-90454819D01*
X138389411Y-90454819D02*
X138722744Y-90835771D01*
X138722744Y-90835771D02*
X138579887Y-90835771D01*
X138579887Y-90835771D02*
X138484649Y-90883390D01*
X138484649Y-90883390D02*
X138437030Y-90931009D01*
X138437030Y-90931009D02*
X138389411Y-91026247D01*
X138389411Y-91026247D02*
X138389411Y-91264342D01*
X138389411Y-91264342D02*
X138437030Y-91359580D01*
X138437030Y-91359580D02*
X138484649Y-91407200D01*
X138484649Y-91407200D02*
X138579887Y-91454819D01*
X138579887Y-91454819D02*
X138865601Y-91454819D01*
X138865601Y-91454819D02*
X138960839Y-91407200D01*
X138960839Y-91407200D02*
X139008458Y-91359580D01*
X139341792Y-88859580D02*
X139389411Y-88907200D01*
X139389411Y-88907200D02*
X139532268Y-88954819D01*
X139532268Y-88954819D02*
X139627506Y-88954819D01*
X139627506Y-88954819D02*
X139770363Y-88907200D01*
X139770363Y-88907200D02*
X139865601Y-88811961D01*
X139865601Y-88811961D02*
X139913220Y-88716723D01*
X139913220Y-88716723D02*
X139960839Y-88526247D01*
X139960839Y-88526247D02*
X139960839Y-88383390D01*
X139960839Y-88383390D02*
X139913220Y-88192914D01*
X139913220Y-88192914D02*
X139865601Y-88097676D01*
X139865601Y-88097676D02*
X139770363Y-88002438D01*
X139770363Y-88002438D02*
X139627506Y-87954819D01*
X139627506Y-87954819D02*
X139532268Y-87954819D01*
X139532268Y-87954819D02*
X139389411Y-88002438D01*
X139389411Y-88002438D02*
X139341792Y-88050057D01*
X138960839Y-88050057D02*
X138913220Y-88002438D01*
X138913220Y-88002438D02*
X138817982Y-87954819D01*
X138817982Y-87954819D02*
X138579887Y-87954819D01*
X138579887Y-87954819D02*
X138484649Y-88002438D01*
X138484649Y-88002438D02*
X138437030Y-88050057D01*
X138437030Y-88050057D02*
X138389411Y-88145295D01*
X138389411Y-88145295D02*
X138389411Y-88240533D01*
X138389411Y-88240533D02*
X138437030Y-88383390D01*
X138437030Y-88383390D02*
X139008458Y-88954819D01*
X139008458Y-88954819D02*
X138389411Y-88954819D01*
X160943922Y-85204819D02*
X161420112Y-85204819D01*
X161420112Y-85204819D02*
X161467731Y-85681009D01*
X161467731Y-85681009D02*
X161420112Y-85633390D01*
X161420112Y-85633390D02*
X161324874Y-85585771D01*
X161324874Y-85585771D02*
X161086779Y-85585771D01*
X161086779Y-85585771D02*
X160991541Y-85633390D01*
X160991541Y-85633390D02*
X160943922Y-85681009D01*
X160943922Y-85681009D02*
X160896303Y-85776247D01*
X160896303Y-85776247D02*
X160896303Y-86014342D01*
X160896303Y-86014342D02*
X160943922Y-86109580D01*
X160943922Y-86109580D02*
X160991541Y-86157200D01*
X160991541Y-86157200D02*
X161086779Y-86204819D01*
X161086779Y-86204819D02*
X161324874Y-86204819D01*
X161324874Y-86204819D02*
X161420112Y-86157200D01*
X161420112Y-86157200D02*
X161467731Y-86109580D01*
X160610588Y-85204819D02*
X160277255Y-86204819D01*
X160277255Y-86204819D02*
X159943922Y-85204819D01*
X160991541Y-98954819D02*
X161324874Y-98478628D01*
X161562969Y-98954819D02*
X161562969Y-97954819D01*
X161562969Y-97954819D02*
X161182017Y-97954819D01*
X161182017Y-97954819D02*
X161086779Y-98002438D01*
X161086779Y-98002438D02*
X161039160Y-98050057D01*
X161039160Y-98050057D02*
X160991541Y-98145295D01*
X160991541Y-98145295D02*
X160991541Y-98288152D01*
X160991541Y-98288152D02*
X161039160Y-98383390D01*
X161039160Y-98383390D02*
X161086779Y-98431009D01*
X161086779Y-98431009D02*
X161182017Y-98478628D01*
X161182017Y-98478628D02*
X161562969Y-98478628D01*
X160610588Y-98050057D02*
X160562969Y-98002438D01*
X160562969Y-98002438D02*
X160467731Y-97954819D01*
X160467731Y-97954819D02*
X160229636Y-97954819D01*
X160229636Y-97954819D02*
X160134398Y-98002438D01*
X160134398Y-98002438D02*
X160086779Y-98050057D01*
X160086779Y-98050057D02*
X160039160Y-98145295D01*
X160039160Y-98145295D02*
X160039160Y-98240533D01*
X160039160Y-98240533D02*
X160086779Y-98383390D01*
X160086779Y-98383390D02*
X160658207Y-98954819D01*
X160658207Y-98954819D02*
X160039160Y-98954819D01*
X85166683Y-95207992D02*
X84864812Y-95855355D01*
X84864812Y-95855355D02*
X84847596Y-96004952D01*
X84847596Y-96004952D02*
X84893661Y-96131516D01*
X84893661Y-96131516D02*
X85003009Y-96235048D01*
X85003009Y-96235048D02*
X85089324Y-96275297D01*
X83880914Y-95711806D02*
X84312489Y-95913053D01*
X84312489Y-95913053D02*
X84735107Y-95006745D01*
X83101170Y-95243122D02*
X83124203Y-95306404D01*
X83124203Y-95306404D02*
X83233551Y-95409936D01*
X83233551Y-95409936D02*
X83319866Y-95450185D01*
X83319866Y-95450185D02*
X83469463Y-95467402D01*
X83469463Y-95467402D02*
X83596028Y-95421336D01*
X83596028Y-95421336D02*
X83679434Y-95355146D01*
X83679434Y-95355146D02*
X83803091Y-95202640D01*
X83803091Y-95202640D02*
X83863465Y-95073168D01*
X83863465Y-95073168D02*
X83900806Y-94880413D01*
X83900806Y-94880413D02*
X83897898Y-94773973D01*
X83897898Y-94773973D02*
X83851832Y-94647409D01*
X83851832Y-94647409D02*
X83742484Y-94543877D01*
X83742484Y-94543877D02*
X83656169Y-94503628D01*
X83656169Y-94503628D02*
X83506572Y-94486412D01*
X83506572Y-94486412D02*
X83443290Y-94509444D01*
X82836176Y-94121259D02*
X82534306Y-94768622D01*
X82534306Y-94768622D02*
X82517090Y-94918219D01*
X82517090Y-94918219D02*
X82563155Y-95044783D01*
X82563155Y-95044783D02*
X82672503Y-95148315D01*
X82672503Y-95148315D02*
X82758818Y-95188564D01*
X81550408Y-94625073D02*
X81981983Y-94826320D01*
X81981983Y-94826320D02*
X82404601Y-93920012D01*
X80770664Y-94156389D02*
X80793697Y-94219671D01*
X80793697Y-94219671D02*
X80903045Y-94323203D01*
X80903045Y-94323203D02*
X80989360Y-94363452D01*
X80989360Y-94363452D02*
X81138957Y-94380669D01*
X81138957Y-94380669D02*
X81265521Y-94334603D01*
X81265521Y-94334603D02*
X81348928Y-94268413D01*
X81348928Y-94268413D02*
X81472585Y-94115907D01*
X81472585Y-94115907D02*
X81532959Y-93986435D01*
X81532959Y-93986435D02*
X81570300Y-93793680D01*
X81570300Y-93793680D02*
X81567392Y-93687240D01*
X81567392Y-93687240D02*
X81521326Y-93560676D01*
X81521326Y-93560676D02*
X81411978Y-93457145D01*
X81411978Y-93457145D02*
X81325663Y-93416895D01*
X81325663Y-93416895D02*
X81176066Y-93399679D01*
X81176066Y-93399679D02*
X81112784Y-93422712D01*
X80505670Y-93034526D02*
X80203800Y-93681889D01*
X80203800Y-93681889D02*
X80186584Y-93831486D01*
X80186584Y-93831486D02*
X80232649Y-93958051D01*
X80232649Y-93958051D02*
X80341997Y-94061582D01*
X80341997Y-94061582D02*
X80428312Y-94101832D01*
X79219902Y-93538340D02*
X79651477Y-93739587D01*
X79651477Y-93739587D02*
X80074095Y-92833279D01*
X78440158Y-93069656D02*
X78463191Y-93132939D01*
X78463191Y-93132939D02*
X78572539Y-93236470D01*
X78572539Y-93236470D02*
X78658854Y-93276719D01*
X78658854Y-93276719D02*
X78808451Y-93293936D01*
X78808451Y-93293936D02*
X78935015Y-93247870D01*
X78935015Y-93247870D02*
X79018422Y-93181680D01*
X79018422Y-93181680D02*
X79142078Y-93029175D01*
X79142078Y-93029175D02*
X79202452Y-92899702D01*
X79202452Y-92899702D02*
X79239794Y-92706947D01*
X79239794Y-92706947D02*
X79236885Y-92600508D01*
X79236885Y-92600508D02*
X79190820Y-92473943D01*
X79190820Y-92473943D02*
X79081472Y-92370412D01*
X79081472Y-92370412D02*
X78995157Y-92330162D01*
X78995157Y-92330162D02*
X78845560Y-92312946D01*
X78845560Y-92312946D02*
X78782277Y-92335979D01*
X78175164Y-91947793D02*
X77873294Y-92595156D01*
X77873294Y-92595156D02*
X77856077Y-92744753D01*
X77856077Y-92744753D02*
X77902143Y-92871318D01*
X77902143Y-92871318D02*
X78011491Y-92974849D01*
X78011491Y-92974849D02*
X78097806Y-93015099D01*
X76889395Y-92451608D02*
X77320971Y-92652854D01*
X77320971Y-92652854D02*
X77743589Y-91746547D01*
X76109652Y-91982924D02*
X76132685Y-92046206D01*
X76132685Y-92046206D02*
X76242033Y-92149737D01*
X76242033Y-92149737D02*
X76328348Y-92189987D01*
X76328348Y-92189987D02*
X76477945Y-92207203D01*
X76477945Y-92207203D02*
X76604509Y-92161137D01*
X76604509Y-92161137D02*
X76687916Y-92094947D01*
X76687916Y-92094947D02*
X76811572Y-91942442D01*
X76811572Y-91942442D02*
X76871946Y-91812969D01*
X76871946Y-91812969D02*
X76909287Y-91620214D01*
X76909287Y-91620214D02*
X76906379Y-91513775D01*
X76906379Y-91513775D02*
X76860314Y-91387210D01*
X76860314Y-91387210D02*
X76750966Y-91283679D01*
X76750966Y-91283679D02*
X76664651Y-91243429D01*
X76664651Y-91243429D02*
X76515054Y-91226213D01*
X76515054Y-91226213D02*
X76451771Y-91249246D01*
X139437030Y-101704819D02*
X139913220Y-101704819D01*
X139913220Y-101704819D02*
X139913220Y-100704819D01*
X139103696Y-101181009D02*
X138770363Y-101181009D01*
X138627506Y-101704819D02*
X139103696Y-101704819D01*
X139103696Y-101704819D02*
X139103696Y-100704819D01*
X139103696Y-100704819D02*
X138627506Y-100704819D01*
X138198934Y-101704819D02*
X138198934Y-100704819D01*
X138198934Y-100704819D02*
X137960839Y-100704819D01*
X137960839Y-100704819D02*
X137817982Y-100752438D01*
X137817982Y-100752438D02*
X137722744Y-100847676D01*
X137722744Y-100847676D02*
X137675125Y-100942914D01*
X137675125Y-100942914D02*
X137627506Y-101133390D01*
X137627506Y-101133390D02*
X137627506Y-101276247D01*
X137627506Y-101276247D02*
X137675125Y-101466723D01*
X137675125Y-101466723D02*
X137722744Y-101561961D01*
X137722744Y-101561961D02*
X137817982Y-101657200D01*
X137817982Y-101657200D02*
X137960839Y-101704819D01*
X137960839Y-101704819D02*
X138198934Y-101704819D01*
X146841792Y-87954819D02*
X147175125Y-87478628D01*
X147413220Y-87954819D02*
X147413220Y-86954819D01*
X147413220Y-86954819D02*
X147032268Y-86954819D01*
X147032268Y-86954819D02*
X146937030Y-87002438D01*
X146937030Y-87002438D02*
X146889411Y-87050057D01*
X146889411Y-87050057D02*
X146841792Y-87145295D01*
X146841792Y-87145295D02*
X146841792Y-87288152D01*
X146841792Y-87288152D02*
X146889411Y-87383390D01*
X146889411Y-87383390D02*
X146937030Y-87431009D01*
X146937030Y-87431009D02*
X147032268Y-87478628D01*
X147032268Y-87478628D02*
X147413220Y-87478628D01*
X146460839Y-87907200D02*
X146317982Y-87954819D01*
X146317982Y-87954819D02*
X146079887Y-87954819D01*
X146079887Y-87954819D02*
X145984649Y-87907200D01*
X145984649Y-87907200D02*
X145937030Y-87859580D01*
X145937030Y-87859580D02*
X145889411Y-87764342D01*
X145889411Y-87764342D02*
X145889411Y-87669104D01*
X145889411Y-87669104D02*
X145937030Y-87573866D01*
X145937030Y-87573866D02*
X145984649Y-87526247D01*
X145984649Y-87526247D02*
X146079887Y-87478628D01*
X146079887Y-87478628D02*
X146270363Y-87431009D01*
X146270363Y-87431009D02*
X146365601Y-87383390D01*
X146365601Y-87383390D02*
X146413220Y-87335771D01*
X146413220Y-87335771D02*
X146460839Y-87240533D01*
X146460839Y-87240533D02*
X146460839Y-87145295D01*
X146460839Y-87145295D02*
X146413220Y-87050057D01*
X146413220Y-87050057D02*
X146365601Y-87002438D01*
X146365601Y-87002438D02*
X146270363Y-86954819D01*
X146270363Y-86954819D02*
X146032268Y-86954819D01*
X146032268Y-86954819D02*
X145889411Y-87002438D01*
X145603696Y-86954819D02*
X145032268Y-86954819D01*
X145317982Y-87954819D02*
X145317982Y-86954819D01*
X138880951Y-128073866D02*
X138119047Y-128073866D01*
X160991541Y-101704819D02*
X161324874Y-101228628D01*
X161562969Y-101704819D02*
X161562969Y-100704819D01*
X161562969Y-100704819D02*
X161182017Y-100704819D01*
X161182017Y-100704819D02*
X161086779Y-100752438D01*
X161086779Y-100752438D02*
X161039160Y-100800057D01*
X161039160Y-100800057D02*
X160991541Y-100895295D01*
X160991541Y-100895295D02*
X160991541Y-101038152D01*
X160991541Y-101038152D02*
X161039160Y-101133390D01*
X161039160Y-101133390D02*
X161086779Y-101181009D01*
X161086779Y-101181009D02*
X161182017Y-101228628D01*
X161182017Y-101228628D02*
X161562969Y-101228628D01*
X160039160Y-101704819D02*
X160610588Y-101704819D01*
X160324874Y-101704819D02*
X160324874Y-100704819D01*
X160324874Y-100704819D02*
X160420112Y-100847676D01*
X160420112Y-100847676D02*
X160515350Y-100942914D01*
X160515350Y-100942914D02*
X160610588Y-100990533D01*
X148884398Y-90752438D02*
X148979636Y-90704819D01*
X148979636Y-90704819D02*
X149122493Y-90704819D01*
X149122493Y-90704819D02*
X149265350Y-90752438D01*
X149265350Y-90752438D02*
X149360588Y-90847676D01*
X149360588Y-90847676D02*
X149408207Y-90942914D01*
X149408207Y-90942914D02*
X149455826Y-91133390D01*
X149455826Y-91133390D02*
X149455826Y-91276247D01*
X149455826Y-91276247D02*
X149408207Y-91466723D01*
X149408207Y-91466723D02*
X149360588Y-91561961D01*
X149360588Y-91561961D02*
X149265350Y-91657200D01*
X149265350Y-91657200D02*
X149122493Y-91704819D01*
X149122493Y-91704819D02*
X149027255Y-91704819D01*
X149027255Y-91704819D02*
X148884398Y-91657200D01*
X148884398Y-91657200D02*
X148836779Y-91609580D01*
X148836779Y-91609580D02*
X148836779Y-91276247D01*
X148836779Y-91276247D02*
X149027255Y-91276247D01*
X148408207Y-91704819D02*
X148408207Y-90704819D01*
X148408207Y-90704819D02*
X147836779Y-91704819D01*
X147836779Y-91704819D02*
X147836779Y-90704819D01*
X147360588Y-91704819D02*
X147360588Y-90704819D01*
X147360588Y-90704819D02*
X147122493Y-90704819D01*
X147122493Y-90704819D02*
X146979636Y-90752438D01*
X146979636Y-90752438D02*
X146884398Y-90847676D01*
X146884398Y-90847676D02*
X146836779Y-90942914D01*
X146836779Y-90942914D02*
X146789160Y-91133390D01*
X146789160Y-91133390D02*
X146789160Y-91276247D01*
X146789160Y-91276247D02*
X146836779Y-91466723D01*
X146836779Y-91466723D02*
X146884398Y-91561961D01*
X146884398Y-91561961D02*
X146979636Y-91657200D01*
X146979636Y-91657200D02*
X147122493Y-91704819D01*
X147122493Y-91704819D02*
X147360588Y-91704819D01*
X136880951Y-128073866D02*
X136119047Y-128073866D01*
X136499999Y-128454819D02*
X136499999Y-127692914D01*
X162134398Y-88002438D02*
X162229636Y-87954819D01*
X162229636Y-87954819D02*
X162372493Y-87954819D01*
X162372493Y-87954819D02*
X162515350Y-88002438D01*
X162515350Y-88002438D02*
X162610588Y-88097676D01*
X162610588Y-88097676D02*
X162658207Y-88192914D01*
X162658207Y-88192914D02*
X162705826Y-88383390D01*
X162705826Y-88383390D02*
X162705826Y-88526247D01*
X162705826Y-88526247D02*
X162658207Y-88716723D01*
X162658207Y-88716723D02*
X162610588Y-88811961D01*
X162610588Y-88811961D02*
X162515350Y-88907200D01*
X162515350Y-88907200D02*
X162372493Y-88954819D01*
X162372493Y-88954819D02*
X162277255Y-88954819D01*
X162277255Y-88954819D02*
X162134398Y-88907200D01*
X162134398Y-88907200D02*
X162086779Y-88859580D01*
X162086779Y-88859580D02*
X162086779Y-88526247D01*
X162086779Y-88526247D02*
X162277255Y-88526247D01*
X161658207Y-88954819D02*
X161658207Y-87954819D01*
X161658207Y-87954819D02*
X161086779Y-88954819D01*
X161086779Y-88954819D02*
X161086779Y-87954819D01*
X160610588Y-88954819D02*
X160610588Y-87954819D01*
X160610588Y-87954819D02*
X160372493Y-87954819D01*
X160372493Y-87954819D02*
X160229636Y-88002438D01*
X160229636Y-88002438D02*
X160134398Y-88097676D01*
X160134398Y-88097676D02*
X160086779Y-88192914D01*
X160086779Y-88192914D02*
X160039160Y-88383390D01*
X160039160Y-88383390D02*
X160039160Y-88526247D01*
X160039160Y-88526247D02*
X160086779Y-88716723D01*
X160086779Y-88716723D02*
X160134398Y-88811961D01*
X160134398Y-88811961D02*
X160229636Y-88907200D01*
X160229636Y-88907200D02*
X160372493Y-88954819D01*
X160372493Y-88954819D02*
X160610588Y-88954819D01*
X160991541Y-96454819D02*
X161324874Y-95978628D01*
X161562969Y-96454819D02*
X161562969Y-95454819D01*
X161562969Y-95454819D02*
X161182017Y-95454819D01*
X161182017Y-95454819D02*
X161086779Y-95502438D01*
X161086779Y-95502438D02*
X161039160Y-95550057D01*
X161039160Y-95550057D02*
X160991541Y-95645295D01*
X160991541Y-95645295D02*
X160991541Y-95788152D01*
X160991541Y-95788152D02*
X161039160Y-95883390D01*
X161039160Y-95883390D02*
X161086779Y-95931009D01*
X161086779Y-95931009D02*
X161182017Y-95978628D01*
X161182017Y-95978628D02*
X161562969Y-95978628D01*
X160658207Y-95454819D02*
X160039160Y-95454819D01*
X160039160Y-95454819D02*
X160372493Y-95835771D01*
X160372493Y-95835771D02*
X160229636Y-95835771D01*
X160229636Y-95835771D02*
X160134398Y-95883390D01*
X160134398Y-95883390D02*
X160086779Y-95931009D01*
X160086779Y-95931009D02*
X160039160Y-96026247D01*
X160039160Y-96026247D02*
X160039160Y-96264342D01*
X160039160Y-96264342D02*
X160086779Y-96359580D01*
X160086779Y-96359580D02*
X160134398Y-96407200D01*
X160134398Y-96407200D02*
X160229636Y-96454819D01*
X160229636Y-96454819D02*
X160515350Y-96454819D01*
X160515350Y-96454819D02*
X160610588Y-96407200D01*
X160610588Y-96407200D02*
X160658207Y-96359580D01*
X165452381Y-129454819D02*
X165785714Y-128978628D01*
X166023809Y-129454819D02*
X166023809Y-128454819D01*
X166023809Y-128454819D02*
X165642857Y-128454819D01*
X165642857Y-128454819D02*
X165547619Y-128502438D01*
X165547619Y-128502438D02*
X165500000Y-128550057D01*
X165500000Y-128550057D02*
X165452381Y-128645295D01*
X165452381Y-128645295D02*
X165452381Y-128788152D01*
X165452381Y-128788152D02*
X165500000Y-128883390D01*
X165500000Y-128883390D02*
X165547619Y-128931009D01*
X165547619Y-128931009D02*
X165642857Y-128978628D01*
X165642857Y-128978628D02*
X166023809Y-128978628D01*
X165023809Y-128931009D02*
X164690476Y-128931009D01*
X164547619Y-129454819D02*
X165023809Y-129454819D01*
X165023809Y-129454819D02*
X165023809Y-128454819D01*
X165023809Y-128454819D02*
X164547619Y-128454819D01*
X164166666Y-129407200D02*
X164023809Y-129454819D01*
X164023809Y-129454819D02*
X163785714Y-129454819D01*
X163785714Y-129454819D02*
X163690476Y-129407200D01*
X163690476Y-129407200D02*
X163642857Y-129359580D01*
X163642857Y-129359580D02*
X163595238Y-129264342D01*
X163595238Y-129264342D02*
X163595238Y-129169104D01*
X163595238Y-129169104D02*
X163642857Y-129073866D01*
X163642857Y-129073866D02*
X163690476Y-129026247D01*
X163690476Y-129026247D02*
X163785714Y-128978628D01*
X163785714Y-128978628D02*
X163976190Y-128931009D01*
X163976190Y-128931009D02*
X164071428Y-128883390D01*
X164071428Y-128883390D02*
X164119047Y-128835771D01*
X164119047Y-128835771D02*
X164166666Y-128740533D01*
X164166666Y-128740533D02*
X164166666Y-128645295D01*
X164166666Y-128645295D02*
X164119047Y-128550057D01*
X164119047Y-128550057D02*
X164071428Y-128502438D01*
X164071428Y-128502438D02*
X163976190Y-128454819D01*
X163976190Y-128454819D02*
X163738095Y-128454819D01*
X163738095Y-128454819D02*
X163595238Y-128502438D01*
X163166666Y-128931009D02*
X162833333Y-128931009D01*
X162690476Y-129454819D02*
X163166666Y-129454819D01*
X163166666Y-129454819D02*
X163166666Y-128454819D01*
X163166666Y-128454819D02*
X162690476Y-128454819D01*
X162404761Y-128454819D02*
X161833333Y-128454819D01*
X162119047Y-129454819D02*
X162119047Y-128454819D01*
%TO.C,D10*%
X181917850Y-119545293D02*
X181622017Y-118910878D01*
X181622017Y-118910878D02*
X181470966Y-118981314D01*
X181470966Y-118981314D02*
X181394422Y-119053786D01*
X181394422Y-119053786D02*
X181362176Y-119142381D01*
X181362176Y-119142381D02*
X181360141Y-119216889D01*
X181360141Y-119216889D02*
X181386279Y-119351817D01*
X181386279Y-119351817D02*
X181428541Y-119442448D01*
X181428541Y-119442448D02*
X181515101Y-119549202D01*
X181515101Y-119549202D02*
X181573485Y-119595535D01*
X181573485Y-119595535D02*
X181662081Y-119627781D01*
X181662081Y-119627781D02*
X181766799Y-119615730D01*
X181766799Y-119615730D02*
X181917850Y-119545293D01*
X180951122Y-119996086D02*
X181313645Y-119827039D01*
X181132383Y-119911562D02*
X180836550Y-119277147D01*
X180836550Y-119277147D02*
X180939233Y-119339603D01*
X180939233Y-119339603D02*
X181027828Y-119371849D01*
X181027828Y-119371849D02*
X181102336Y-119373885D01*
X180262555Y-119544805D02*
X180202135Y-119572980D01*
X180202135Y-119572980D02*
X180155801Y-119631365D01*
X180155801Y-119631365D02*
X180139678Y-119675662D01*
X180139678Y-119675662D02*
X180137643Y-119750170D01*
X180137643Y-119750170D02*
X180163781Y-119885098D01*
X180163781Y-119885098D02*
X180234218Y-120036150D01*
X180234218Y-120036150D02*
X180320777Y-120142903D01*
X180320777Y-120142903D02*
X180379162Y-120189237D01*
X180379162Y-120189237D02*
X180423460Y-120205360D01*
X180423460Y-120205360D02*
X180497967Y-120207395D01*
X180497967Y-120207395D02*
X180558388Y-120179221D01*
X180558388Y-120179221D02*
X180604721Y-120120836D01*
X180604721Y-120120836D02*
X180620844Y-120076538D01*
X180620844Y-120076538D02*
X180622880Y-120002031D01*
X180622880Y-120002031D02*
X180596741Y-119867102D01*
X180596741Y-119867102D02*
X180526305Y-119716051D01*
X180526305Y-119716051D02*
X180439745Y-119609297D01*
X180439745Y-119609297D02*
X180381360Y-119562964D01*
X180381360Y-119562964D02*
X180337063Y-119546841D01*
X180337063Y-119546841D02*
X180262555Y-119544805D01*
%TO.C,D6*%
X193999294Y-71707417D02*
X193703461Y-71073002D01*
X193703461Y-71073002D02*
X193552410Y-71143438D01*
X193552410Y-71143438D02*
X193475866Y-71215910D01*
X193475866Y-71215910D02*
X193443620Y-71304505D01*
X193443620Y-71304505D02*
X193441584Y-71379013D01*
X193441584Y-71379013D02*
X193467723Y-71513942D01*
X193467723Y-71513942D02*
X193509985Y-71604572D01*
X193509985Y-71604572D02*
X193596544Y-71711326D01*
X193596544Y-71711326D02*
X193654929Y-71757659D01*
X193654929Y-71757659D02*
X193743524Y-71789905D01*
X193743524Y-71789905D02*
X193848242Y-71777854D01*
X193848242Y-71777854D02*
X193999294Y-71707417D01*
X192797153Y-71495620D02*
X192917994Y-71439271D01*
X192917994Y-71439271D02*
X192992502Y-71441307D01*
X192992502Y-71441307D02*
X193036799Y-71457430D01*
X193036799Y-71457430D02*
X193139482Y-71519886D01*
X193139482Y-71519886D02*
X193226041Y-71626640D01*
X193226041Y-71626640D02*
X193338739Y-71868322D01*
X193338739Y-71868322D02*
X193336704Y-71942830D01*
X193336704Y-71942830D02*
X193320581Y-71987127D01*
X193320581Y-71987127D02*
X193274247Y-72045512D01*
X193274247Y-72045512D02*
X193153406Y-72101861D01*
X193153406Y-72101861D02*
X193078899Y-72099825D01*
X193078899Y-72099825D02*
X193034601Y-72083702D01*
X193034601Y-72083702D02*
X192976216Y-72037369D01*
X192976216Y-72037369D02*
X192905780Y-71886318D01*
X192905780Y-71886318D02*
X192907816Y-71811810D01*
X192907816Y-71811810D02*
X192923939Y-71767512D01*
X192923939Y-71767512D02*
X192970272Y-71709128D01*
X192970272Y-71709128D02*
X193091113Y-71652779D01*
X193091113Y-71652779D02*
X193165621Y-71654814D01*
X193165621Y-71654814D02*
X193209918Y-71670937D01*
X193209918Y-71670937D02*
X193268303Y-71717271D01*
%TO.C,D3*%
X106937224Y-72144123D02*
X107233057Y-71509707D01*
X107233057Y-71509707D02*
X107082005Y-71439271D01*
X107082005Y-71439271D02*
X106977287Y-71427219D01*
X106977287Y-71427219D02*
X106888692Y-71459465D01*
X106888692Y-71459465D02*
X106830307Y-71505798D01*
X106830307Y-71505798D02*
X106743748Y-71612552D01*
X106743748Y-71612552D02*
X106701486Y-71703183D01*
X106701486Y-71703183D02*
X106675347Y-71838111D01*
X106675347Y-71838111D02*
X106677383Y-71912619D01*
X106677383Y-71912619D02*
X106709629Y-72001214D01*
X106709629Y-72001214D02*
X106786172Y-72073686D01*
X106786172Y-72073686D02*
X106937224Y-72144123D01*
X106659062Y-71242049D02*
X106266328Y-71058914D01*
X106266328Y-71058914D02*
X106365102Y-71399207D01*
X106365102Y-71399207D02*
X106274471Y-71356946D01*
X106274471Y-71356946D02*
X106199963Y-71358981D01*
X106199963Y-71358981D02*
X106155666Y-71375104D01*
X106155666Y-71375104D02*
X106097281Y-71421437D01*
X106097281Y-71421437D02*
X106026845Y-71572489D01*
X106026845Y-71572489D02*
X106028880Y-71646997D01*
X106028880Y-71646997D02*
X106045003Y-71691294D01*
X106045003Y-71691294D02*
X106091336Y-71749679D01*
X106091336Y-71749679D02*
X106272598Y-71834203D01*
X106272598Y-71834203D02*
X106347106Y-71832167D01*
X106347106Y-71832167D02*
X106391403Y-71816044D01*
%TO.C,D9*%
X119320770Y-120122871D02*
X119616603Y-119488455D01*
X119616603Y-119488455D02*
X119465551Y-119418019D01*
X119465551Y-119418019D02*
X119360833Y-119405967D01*
X119360833Y-119405967D02*
X119272238Y-119438213D01*
X119272238Y-119438213D02*
X119213853Y-119484546D01*
X119213853Y-119484546D02*
X119127294Y-119591300D01*
X119127294Y-119591300D02*
X119085032Y-119681931D01*
X119085032Y-119681931D02*
X119058893Y-119816859D01*
X119058893Y-119816859D02*
X119060929Y-119891367D01*
X119060929Y-119891367D02*
X119093175Y-119979962D01*
X119093175Y-119979962D02*
X119169718Y-120052434D01*
X119169718Y-120052434D02*
X119320770Y-120122871D01*
X118656144Y-119812951D02*
X118535303Y-119756601D01*
X118535303Y-119756601D02*
X118488970Y-119698217D01*
X118488970Y-119698217D02*
X118472847Y-119653919D01*
X118472847Y-119653919D02*
X118454688Y-119535114D01*
X118454688Y-119535114D02*
X118480827Y-119400185D01*
X118480827Y-119400185D02*
X118593525Y-119158503D01*
X118593525Y-119158503D02*
X118651910Y-119112170D01*
X118651910Y-119112170D02*
X118696207Y-119096047D01*
X118696207Y-119096047D02*
X118770715Y-119094011D01*
X118770715Y-119094011D02*
X118891556Y-119150361D01*
X118891556Y-119150361D02*
X118937890Y-119208745D01*
X118937890Y-119208745D02*
X118954013Y-119253043D01*
X118954013Y-119253043D02*
X118956048Y-119327551D01*
X118956048Y-119327551D02*
X118885612Y-119478602D01*
X118885612Y-119478602D02*
X118827227Y-119524935D01*
X118827227Y-119524935D02*
X118782930Y-119541058D01*
X118782930Y-119541058D02*
X118708422Y-119543094D01*
X118708422Y-119543094D02*
X118587581Y-119486745D01*
X118587581Y-119486745D02*
X118541247Y-119428360D01*
X118541247Y-119428360D02*
X118525124Y-119384062D01*
X118525124Y-119384062D02*
X118523089Y-119309555D01*
%TO.C,D4*%
X121454636Y-83603060D02*
X121750469Y-82968644D01*
X121750469Y-82968644D02*
X121599417Y-82898208D01*
X121599417Y-82898208D02*
X121494699Y-82886156D01*
X121494699Y-82886156D02*
X121406104Y-82918402D01*
X121406104Y-82918402D02*
X121347719Y-82964735D01*
X121347719Y-82964735D02*
X121261160Y-83071489D01*
X121261160Y-83071489D02*
X121218898Y-83162120D01*
X121218898Y-83162120D02*
X121192759Y-83297048D01*
X121192759Y-83297048D02*
X121194795Y-83371556D01*
X121194795Y-83371556D02*
X121227041Y-83460151D01*
X121227041Y-83460151D02*
X121303584Y-83532623D01*
X121303584Y-83532623D02*
X121454636Y-83603060D01*
X120745550Y-82757498D02*
X120548328Y-83180441D01*
X121009299Y-82586252D02*
X120949041Y-83109842D01*
X120949041Y-83109842D02*
X120556308Y-82926708D01*
%TO.C,D7*%
X212108962Y-67952097D02*
X211813129Y-67317682D01*
X211813129Y-67317682D02*
X211662078Y-67388118D01*
X211662078Y-67388118D02*
X211585534Y-67460590D01*
X211585534Y-67460590D02*
X211553288Y-67549185D01*
X211553288Y-67549185D02*
X211551252Y-67623693D01*
X211551252Y-67623693D02*
X211577391Y-67758622D01*
X211577391Y-67758622D02*
X211619653Y-67849252D01*
X211619653Y-67849252D02*
X211706212Y-67956006D01*
X211706212Y-67956006D02*
X211764597Y-68002339D01*
X211764597Y-68002339D02*
X211853192Y-68034585D01*
X211853192Y-68034585D02*
X211957910Y-68022534D01*
X211957910Y-68022534D02*
X212108962Y-67952097D01*
X211239134Y-67585340D02*
X210816190Y-67782562D01*
X210816190Y-67782562D02*
X211383915Y-68290192D01*
%TO.C,D1*%
X67125630Y-72337098D02*
X67421463Y-71702682D01*
X67421463Y-71702682D02*
X67270411Y-71632246D01*
X67270411Y-71632246D02*
X67165693Y-71620194D01*
X67165693Y-71620194D02*
X67077098Y-71652440D01*
X67077098Y-71652440D02*
X67018713Y-71698773D01*
X67018713Y-71698773D02*
X66932154Y-71805527D01*
X66932154Y-71805527D02*
X66889892Y-71896158D01*
X66889892Y-71896158D02*
X66863753Y-72031086D01*
X66863753Y-72031086D02*
X66865789Y-72105594D01*
X66865789Y-72105594D02*
X66898035Y-72194189D01*
X66898035Y-72194189D02*
X66974578Y-72266661D01*
X66974578Y-72266661D02*
X67125630Y-72337098D01*
X66158901Y-71886305D02*
X66521425Y-72055352D01*
X66340163Y-71970828D02*
X66635996Y-71336413D01*
X66635996Y-71336413D02*
X66654154Y-71455218D01*
X66654154Y-71455218D02*
X66686400Y-71543813D01*
X66686400Y-71543813D02*
X66732734Y-71602198D01*
%TO.C,D5*%
X179481881Y-83166354D02*
X179186048Y-82531939D01*
X179186048Y-82531939D02*
X179034997Y-82602375D01*
X179034997Y-82602375D02*
X178958453Y-82674847D01*
X178958453Y-82674847D02*
X178926207Y-82763442D01*
X178926207Y-82763442D02*
X178924171Y-82837950D01*
X178924171Y-82837950D02*
X178950310Y-82972879D01*
X178950310Y-82972879D02*
X178992572Y-83063509D01*
X178992572Y-83063509D02*
X179079131Y-83170263D01*
X179079131Y-83170263D02*
X179137516Y-83216596D01*
X179137516Y-83216596D02*
X179226111Y-83248842D01*
X179226111Y-83248842D02*
X179330829Y-83236791D01*
X179330829Y-83236791D02*
X179481881Y-83166354D01*
X178249530Y-82968644D02*
X178551632Y-82827772D01*
X178551632Y-82827772D02*
X178722715Y-83115787D01*
X178722715Y-83115787D02*
X178678418Y-83099664D01*
X178678418Y-83099664D02*
X178603910Y-83097628D01*
X178603910Y-83097628D02*
X178452859Y-83168065D01*
X178452859Y-83168065D02*
X178406526Y-83226449D01*
X178406526Y-83226449D02*
X178390403Y-83270747D01*
X178390403Y-83270747D02*
X178388367Y-83345255D01*
X178388367Y-83345255D02*
X178458803Y-83496306D01*
X178458803Y-83496306D02*
X178517188Y-83542639D01*
X178517188Y-83542639D02*
X178561486Y-83558762D01*
X178561486Y-83558762D02*
X178635993Y-83560798D01*
X178635993Y-83560798D02*
X178787045Y-83490362D01*
X178787045Y-83490362D02*
X178833378Y-83431977D01*
X178833378Y-83431977D02*
X178849501Y-83387679D01*
%TO.C,D8*%
X233810885Y-71900392D02*
X233515052Y-71265977D01*
X233515052Y-71265977D02*
X233364001Y-71336413D01*
X233364001Y-71336413D02*
X233287457Y-71408885D01*
X233287457Y-71408885D02*
X233255211Y-71497480D01*
X233255211Y-71497480D02*
X233253175Y-71571988D01*
X233253175Y-71571988D02*
X233279314Y-71706917D01*
X233279314Y-71706917D02*
X233321576Y-71797547D01*
X233321576Y-71797547D02*
X233408135Y-71904301D01*
X233408135Y-71904301D02*
X233466520Y-71950634D01*
X233466520Y-71950634D02*
X233555115Y-71982880D01*
X233555115Y-71982880D02*
X233659833Y-71970829D01*
X233659833Y-71970829D02*
X233810885Y-71900392D01*
X232916791Y-71875964D02*
X232963124Y-71817579D01*
X232963124Y-71817579D02*
X232979247Y-71773281D01*
X232979247Y-71773281D02*
X232981283Y-71698774D01*
X232981283Y-71698774D02*
X232967196Y-71668563D01*
X232967196Y-71668563D02*
X232908811Y-71622230D01*
X232908811Y-71622230D02*
X232864513Y-71606107D01*
X232864513Y-71606107D02*
X232790006Y-71604072D01*
X232790006Y-71604072D02*
X232669165Y-71660421D01*
X232669165Y-71660421D02*
X232622831Y-71718805D01*
X232622831Y-71718805D02*
X232606708Y-71763103D01*
X232606708Y-71763103D02*
X232604673Y-71837611D01*
X232604673Y-71837611D02*
X232618760Y-71867821D01*
X232618760Y-71867821D02*
X232677145Y-71914154D01*
X232677145Y-71914154D02*
X232721442Y-71930277D01*
X232721442Y-71930277D02*
X232795950Y-71932313D01*
X232795950Y-71932313D02*
X232916791Y-71875964D01*
X232916791Y-71875964D02*
X232991299Y-71878000D01*
X232991299Y-71878000D02*
X233035596Y-71894123D01*
X233035596Y-71894123D02*
X233093981Y-71940456D01*
X233093981Y-71940456D02*
X233150330Y-72061297D01*
X233150330Y-72061297D02*
X233148295Y-72135805D01*
X233148295Y-72135805D02*
X233132172Y-72180102D01*
X233132172Y-72180102D02*
X233085838Y-72238487D01*
X233085838Y-72238487D02*
X232964997Y-72294836D01*
X232964997Y-72294836D02*
X232890490Y-72292800D01*
X232890490Y-72292800D02*
X232846192Y-72276677D01*
X232846192Y-72276677D02*
X232787807Y-72230344D01*
X232787807Y-72230344D02*
X232731458Y-72109503D01*
X232731458Y-72109503D02*
X232733494Y-72034995D01*
X232733494Y-72034995D02*
X232749617Y-71990698D01*
X232749617Y-71990698D02*
X232795950Y-71932313D01*
%TO.C,D2*%
X88827556Y-68388802D02*
X89123389Y-67754386D01*
X89123389Y-67754386D02*
X88972337Y-67683950D01*
X88972337Y-67683950D02*
X88867619Y-67671898D01*
X88867619Y-67671898D02*
X88779024Y-67704144D01*
X88779024Y-67704144D02*
X88720639Y-67750477D01*
X88720639Y-67750477D02*
X88634080Y-67857231D01*
X88634080Y-67857231D02*
X88591818Y-67947862D01*
X88591818Y-67947862D02*
X88565679Y-68082790D01*
X88565679Y-68082790D02*
X88567715Y-68157298D01*
X88567715Y-68157298D02*
X88599961Y-68245893D01*
X88599961Y-68245893D02*
X88676504Y-68318365D01*
X88676504Y-68318365D02*
X88827556Y-68388802D01*
X88491009Y-67533061D02*
X88474886Y-67488764D01*
X88474886Y-67488764D02*
X88428553Y-67430379D01*
X88428553Y-67430379D02*
X88277501Y-67359942D01*
X88277501Y-67359942D02*
X88202993Y-67361978D01*
X88202993Y-67361978D02*
X88158696Y-67378101D01*
X88158696Y-67378101D02*
X88100311Y-67424434D01*
X88100311Y-67424434D02*
X88072137Y-67484855D01*
X88072137Y-67484855D02*
X88060085Y-67589573D01*
X88060085Y-67589573D02*
X88253561Y-68121143D01*
X88253561Y-68121143D02*
X87860827Y-67938009D01*
%TO.C,D10*%
D12*
X177540886Y-117375779D02*
X176997102Y-117629350D01*
X177287315Y-116831995D01*
X177540886Y-117375779D01*
G36*
X177540886Y-117375779D02*
G01*
X176997102Y-117629350D01*
X177287315Y-116831995D01*
X177540886Y-117375779D01*
G37*
%TO.C,D6*%
X189924433Y-69397030D02*
X189380649Y-69650601D01*
X189670862Y-68853246D01*
X189924433Y-69397030D01*
G36*
X189924433Y-69397030D02*
G01*
X189380649Y-69650601D01*
X189670862Y-68853246D01*
X189924433Y-69397030D01*
G37*
D13*
%TO.C,D20*%
X176291109Y-114813933D02*
X175445872Y-113001317D01*
X175445872Y-113001317D02*
X178980473Y-111353106D01*
X176291109Y-114813933D02*
X179825709Y-113165722D01*
%TO.C,D3*%
D12*
X106087813Y-67537510D02*
X105544029Y-67283939D01*
X106341384Y-66993725D01*
X106087813Y-67537510D01*
G36*
X106087813Y-67537510D02*
G01*
X105544029Y-67283939D01*
X106341384Y-66993725D01*
X106087813Y-67537510D01*
G37*
%TO.C,D9*%
X118471359Y-115516258D02*
X117927575Y-115262687D01*
X118724930Y-114972473D01*
X118471359Y-115516258D01*
G36*
X118471359Y-115516258D02*
G01*
X117927575Y-115262687D01*
X118724930Y-114972473D01*
X118471359Y-115516258D01*
G37*
D13*
%TO.C,D11*%
X63906625Y-83341699D02*
X63061388Y-85154315D01*
X63906625Y-83341699D02*
X60372024Y-81693488D01*
X63061388Y-85154315D02*
X59526788Y-83506104D01*
%TO.C,D4*%
D12*
X120605225Y-78996447D02*
X120061441Y-78742876D01*
X120858796Y-78452662D01*
X120605225Y-78996447D01*
G36*
X120605225Y-78996447D02*
G01*
X120061441Y-78742876D01*
X120858796Y-78452662D01*
X120605225Y-78996447D01*
G37*
D13*
%TO.C,D19*%
X124554127Y-113001317D02*
X123708890Y-114813933D01*
X123708890Y-114813933D02*
X120174290Y-113165722D01*
X124554127Y-113001317D02*
X121019526Y-111353106D01*
%TO.C,D18*%
X236093375Y-83341699D02*
X239627976Y-81693488D01*
X236938612Y-85154315D02*
X240473212Y-83506104D01*
X236938612Y-85154315D02*
X236093375Y-83341699D01*
%TO.C,D7*%
D12*
X208034101Y-65641710D02*
X207490317Y-65895281D01*
X207780530Y-65097926D01*
X208034101Y-65641710D01*
G36*
X208034101Y-65641710D02*
G01*
X207490317Y-65895281D01*
X207780530Y-65097926D01*
X208034101Y-65641710D01*
G37*
%TO.C,D1*%
X66276219Y-67730485D02*
X65732435Y-67476914D01*
X66529790Y-67186700D01*
X66276219Y-67730485D01*
G36*
X66276219Y-67730485D02*
G01*
X65732435Y-67476914D01*
X66529790Y-67186700D01*
X66276219Y-67730485D01*
G37*
D13*
%TO.C,D14*%
X117390391Y-96420278D02*
X113855791Y-94772067D01*
X118235628Y-94607662D02*
X114701027Y-92959451D01*
X118235628Y-94607662D02*
X117390391Y-96420278D01*
%TO.C,D5*%
D12*
X175407020Y-80855967D02*
X174863236Y-81109538D01*
X175153449Y-80312183D01*
X175407020Y-80855967D01*
G36*
X175407020Y-80855967D02*
G01*
X174863236Y-81109538D01*
X175153449Y-80312183D01*
X175407020Y-80855967D01*
G37*
D13*
%TO.C,D15*%
X182609608Y-96420277D02*
X181764371Y-94607661D01*
X181764371Y-94607661D02*
X185298972Y-92959450D01*
X182609608Y-96420277D02*
X186144208Y-94772066D01*
%TO.C,D8*%
D12*
X229736024Y-69590005D02*
X229192240Y-69843576D01*
X229482453Y-69046221D01*
X229736024Y-69590005D01*
G36*
X229736024Y-69590005D02*
G01*
X229192240Y-69843576D01*
X229482453Y-69046221D01*
X229736024Y-69590005D01*
G37*
D13*
%TO.C,D17*%
X215236687Y-81206019D02*
X214391450Y-79393403D01*
X214391450Y-79393403D02*
X217926051Y-77745192D01*
X215236687Y-81206019D02*
X218771287Y-79557808D01*
%TO.C,D13*%
X103718216Y-83148725D02*
X102872979Y-84961341D01*
X102872979Y-84961341D02*
X99338379Y-83313130D01*
X103718216Y-83148725D02*
X100183615Y-81500514D01*
%TO.C,D2*%
D12*
X87978145Y-63782189D02*
X87434361Y-63528618D01*
X88231716Y-63238404D01*
X87978145Y-63782189D01*
G36*
X87978145Y-63782189D02*
G01*
X87434361Y-63528618D01*
X88231716Y-63238404D01*
X87978145Y-63782189D01*
G37*
D13*
%TO.C,D16*%
X197127022Y-84961340D02*
X196281785Y-83148724D01*
X196281785Y-83148724D02*
X199816386Y-81500513D01*
X197127022Y-84961340D02*
X200661622Y-83313129D01*
%TO.C,D12*%
X85608548Y-79393403D02*
X84763311Y-81206019D01*
X84763311Y-81206019D02*
X81228711Y-79557808D01*
X85608548Y-79393403D02*
X82073947Y-77745192D01*
%TD*%
M02*
