%TF.GenerationSoftware,KiCad,Pcbnew,7.0.5*%
%TF.CreationDate,2023-06-04T15:55:19-04:00*%
%TF.ProjectId,epsilon-kb,65707369-6c6f-46e2-9d6b-622e6b696361,rev?*%
%TF.SameCoordinates,Original*%
%TF.FileFunction,OtherDrawing,Comment*%
%FSLAX46Y46*%
G04 Gerber Fmt 4.6, Leading zero omitted, Abs format (unit mm)*
G04 Created by KiCad (PCBNEW 7.0.5) date 2023-06-04 15:55:19*
%MOMM*%
%LPD*%
G01*
G04 APERTURE LIST*
%ADD10C,0.120000*%
%ADD11C,0.150000*%
G04 APERTURE END LIST*
D10*
%TO.C,U1*%
X146492190Y-85317186D02*
X144714190Y-85317186D01*
X144714190Y-85317186D02*
X144714190Y-82650186D01*
X144714190Y-82650186D02*
X146492190Y-82650186D01*
X146492190Y-82650186D02*
X146492190Y-85317186D01*
X153350198Y-82650186D02*
X155128198Y-82650186D01*
X155128198Y-82650186D02*
X155128198Y-85317186D01*
X155128198Y-85317186D02*
X153350198Y-85317186D01*
X153350198Y-85317186D02*
X153350198Y-82650186D01*
X144714190Y-86714186D02*
X146492190Y-86714186D01*
X146492190Y-86714186D02*
X146492190Y-89381186D01*
X146492190Y-89381186D02*
X144714190Y-89381186D01*
X144714190Y-89381186D02*
X144714190Y-86714186D01*
X141110001Y-103999999D02*
X158890001Y-103999999D01*
X158890001Y-103999999D02*
X158890001Y-82999999D01*
X158890001Y-82999999D02*
X141110001Y-82999999D01*
X141110001Y-82999999D02*
X141110001Y-103999999D01*
X153350198Y-86714186D02*
X155128198Y-86714186D01*
X155128198Y-86714186D02*
X155128198Y-89381186D01*
X155128198Y-89381186D02*
X153350198Y-89381186D01*
X153350198Y-89381186D02*
X153350198Y-86714186D01*
D11*
%TO.C,SW5*%
X169157282Y-81177330D02*
X183658207Y-74415438D01*
X184987133Y-74899127D02*
X191326407Y-88493744D01*
X190842718Y-89822670D02*
X176341793Y-96584562D01*
X175012867Y-96100873D02*
X168673593Y-82506256D01*
X175092866Y-80892122D02*
X179624405Y-78779031D01*
X179624405Y-78779031D02*
X180934522Y-81588585D01*
X180934522Y-81588585D02*
X176402983Y-83701676D01*
X176402983Y-83701676D02*
X175092866Y-80892122D01*
X184987132Y-74899127D02*
G75*
G03*
X183658207Y-74415439I-906306J-422617D01*
G01*
X190842718Y-89822669D02*
G75*
G03*
X191326406Y-88493744I-422617J906306D01*
G01*
X169157282Y-81177330D02*
G75*
G03*
X168673593Y-82506256I422619J-906308D01*
G01*
X175012867Y-96100873D02*
G75*
G03*
X176341793Y-96584562I906308J422619D01*
G01*
%TO.C,SW2*%
X83714713Y-59201181D02*
X98215638Y-65963073D01*
X76046513Y-73279487D02*
X82385787Y-59684870D01*
X91031127Y-81370305D02*
X76530202Y-74608413D01*
X98699327Y-67291999D02*
X92360053Y-80886616D01*
X87748515Y-63564774D02*
X92280054Y-65677865D01*
X92280054Y-65677865D02*
X90969937Y-68487419D01*
X90969937Y-68487419D02*
X86438398Y-66374328D01*
X86438398Y-66374328D02*
X87748515Y-63564774D01*
X98699326Y-67291999D02*
G75*
G03*
X98215638Y-65963074I-906305J422619D01*
G01*
X76046513Y-73279487D02*
G75*
G03*
X76530202Y-74608413I906308J-422618D01*
G01*
X91031127Y-81370304D02*
G75*
G03*
X92360052Y-80886616I422619J906305D01*
G01*
X83714713Y-59201181D02*
G75*
G03*
X82385787Y-59684870I-422618J-906308D01*
G01*
%TO.C,SW4*%
X116341793Y-74415438D02*
X130842718Y-81177330D01*
X123658207Y-96584562D02*
X109157282Y-89822670D01*
X108673593Y-88493744D02*
X115012867Y-74899127D01*
X131326407Y-82506256D02*
X124987133Y-96100873D01*
X120375595Y-78779031D02*
X124907134Y-80892122D01*
X124907134Y-80892122D02*
X123597017Y-83701676D01*
X123597017Y-83701676D02*
X119065478Y-81588585D01*
X119065478Y-81588585D02*
X120375595Y-78779031D01*
X123658207Y-96584561D02*
G75*
G03*
X124987132Y-96100873I422619J906305D01*
G01*
X131326406Y-82506256D02*
G75*
G03*
X130842718Y-81177331I-906305J422619D01*
G01*
X108673593Y-88493744D02*
G75*
G03*
X109157282Y-89822670I906308J-422618D01*
G01*
X116341793Y-74415438D02*
G75*
G03*
X115012867Y-74899127I-422618J-906308D01*
G01*
%TO.C,SW10*%
X177146733Y-132620685D02*
X170807459Y-119026068D01*
X192976584Y-126342482D02*
X178475659Y-133104374D01*
X171291148Y-117697142D02*
X185792073Y-110935250D01*
X187120999Y-111418939D02*
X193460273Y-125013556D01*
X177226732Y-117411934D02*
X181758271Y-115298843D01*
X181758271Y-115298843D02*
X183068388Y-118108397D01*
X183068388Y-118108397D02*
X178536849Y-120221488D01*
X178536849Y-120221488D02*
X177226732Y-117411934D01*
X187120998Y-111418939D02*
G75*
G03*
X185792073Y-110935251I-906306J-422617D01*
G01*
X192976584Y-126342481D02*
G75*
G03*
X193460272Y-125013556I-422617J906306D01*
G01*
X177146733Y-132620685D02*
G75*
G03*
X178475659Y-133104374I906308J422619D01*
G01*
X171291148Y-117697142D02*
G75*
G03*
X170807459Y-119026068I422619J-906308D01*
G01*
%TO.C,SW7*%
X207639948Y-80886616D02*
X201300674Y-67291999D01*
X201784363Y-65963073D02*
X216285288Y-59201181D01*
X223469799Y-74608413D02*
X208968874Y-81370305D01*
X217614214Y-59684870D02*
X223953488Y-73279487D01*
X207719947Y-65677865D02*
X212251486Y-63564774D01*
X212251486Y-63564774D02*
X213561603Y-66374328D01*
X213561603Y-66374328D02*
X209030064Y-68487419D01*
X209030064Y-68487419D02*
X207719947Y-65677865D01*
X201784363Y-65963073D02*
G75*
G03*
X201300674Y-67291999I422619J-906308D01*
G01*
X223469799Y-74608412D02*
G75*
G03*
X223953487Y-73279487I-422617J906306D01*
G01*
X207639948Y-80886616D02*
G75*
G03*
X208968874Y-81370305I906308J422619D01*
G01*
X217614213Y-59684870D02*
G75*
G03*
X216285288Y-59201182I-906306J-422617D01*
G01*
%TO.C,SW8*%
X239316137Y-63633165D02*
X245655411Y-77227782D01*
X245171722Y-78556708D02*
X230670797Y-85318600D01*
X229341871Y-84834911D02*
X223002597Y-71240294D01*
X223486286Y-69911368D02*
X237987211Y-63149476D01*
X229421870Y-69626160D02*
X233953409Y-67513069D01*
X233953409Y-67513069D02*
X235263526Y-70322623D01*
X235263526Y-70322623D02*
X230731987Y-72435714D01*
X230731987Y-72435714D02*
X229421870Y-69626160D01*
X239316136Y-63633165D02*
G75*
G03*
X237987211Y-63149477I-906306J-422617D01*
G01*
X245171722Y-78556707D02*
G75*
G03*
X245655410Y-77227782I-422617J906306D01*
G01*
X229341871Y-84834911D02*
G75*
G03*
X230670797Y-85318600I906308J422619D01*
G01*
X223486286Y-69911368D02*
G75*
G03*
X223002597Y-71240294I422619J-906308D01*
G01*
%TO.C,SW3*%
X116808995Y-71047319D02*
X110469721Y-84641936D01*
X109140795Y-85125625D02*
X94639870Y-78363733D01*
X94156181Y-77034807D02*
X100495455Y-63440190D01*
X101824381Y-62956501D02*
X116325306Y-69718393D01*
X105858183Y-67320094D02*
X110389722Y-69433185D01*
X110389722Y-69433185D02*
X109079605Y-72242739D01*
X109079605Y-72242739D02*
X104548066Y-70129648D01*
X104548066Y-70129648D02*
X105858183Y-67320094D01*
X116808994Y-71047319D02*
G75*
G03*
X116325306Y-69718394I-906305J422619D01*
G01*
X109140795Y-85125624D02*
G75*
G03*
X110469720Y-84641936I422619J906305D01*
G01*
X101824381Y-62956501D02*
G75*
G03*
X100495455Y-63440190I-422618J-906308D01*
G01*
X94156181Y-77034807D02*
G75*
G03*
X94639870Y-78363733I906308J-422618D01*
G01*
%TO.C,SW1*%
X69329204Y-85318600D02*
X54828279Y-78556708D01*
X54344590Y-77227782D02*
X60683864Y-63633165D01*
X62012790Y-63149476D02*
X76513715Y-69911368D01*
X76997404Y-71240294D02*
X70658130Y-84834911D01*
X66046592Y-67513069D02*
X70578131Y-69626160D01*
X70578131Y-69626160D02*
X69268014Y-72435714D01*
X69268014Y-72435714D02*
X64736475Y-70322623D01*
X64736475Y-70322623D02*
X66046592Y-67513069D01*
X69329204Y-85318599D02*
G75*
G03*
X70658129Y-84834911I422619J906305D01*
G01*
X54344590Y-77227782D02*
G75*
G03*
X54828279Y-78556708I906308J-422618D01*
G01*
X76997403Y-71240294D02*
G75*
G03*
X76513715Y-69911369I-906305J422619D01*
G01*
X62012790Y-63149476D02*
G75*
G03*
X60683864Y-63633165I-422618J-906308D01*
G01*
D10*
%TO.C,J2*%
X157190000Y-105240000D02*
X157190000Y-99720000D01*
X165750000Y-109500000D02*
X127750000Y-109500000D01*
X127750000Y-97500000D02*
X165750000Y-97500000D01*
X134810000Y-99720000D02*
X157190000Y-99720000D01*
X163500000Y-97500000D02*
X163500000Y-109500000D01*
X134810000Y-105240000D02*
X157190000Y-105240000D01*
X134810000Y-99720000D02*
X134810000Y-105240000D01*
X127750000Y-97500000D02*
X127750000Y-109500000D01*
X165750000Y-97500000D02*
X165750000Y-109500000D01*
X133500000Y-97500000D02*
X133500000Y-109500000D01*
D11*
%TO.C,SW9*%
X114207928Y-110935249D02*
X128708853Y-117697141D01*
X121524342Y-133104373D02*
X107023417Y-126342481D01*
X129192542Y-119026067D02*
X122853268Y-132620684D01*
X106539728Y-125013555D02*
X112879002Y-111418938D01*
X118241730Y-115298842D02*
X122773269Y-117411933D01*
X122773269Y-117411933D02*
X121463152Y-120221487D01*
X121463152Y-120221487D02*
X116931613Y-118108396D01*
X116931613Y-118108396D02*
X118241730Y-115298842D01*
X114207928Y-110935249D02*
G75*
G03*
X112879002Y-111418938I-422618J-906308D01*
G01*
X106539728Y-125013555D02*
G75*
G03*
X107023417Y-126342481I906308J-422618D01*
G01*
X121524342Y-133104372D02*
G75*
G03*
X122853267Y-132620684I422619J906305D01*
G01*
X129192541Y-119026067D02*
G75*
G03*
X128708853Y-117697142I-906305J422619D01*
G01*
%TO.C,SW6*%
X189530280Y-84641936D02*
X183191006Y-71047319D01*
X183674695Y-69718393D02*
X198175620Y-62956501D01*
X205360131Y-78363733D02*
X190859206Y-85125625D01*
X199504546Y-63440190D02*
X205843820Y-77034807D01*
X189610279Y-69433185D02*
X194141818Y-67320094D01*
X194141818Y-67320094D02*
X195451935Y-70129648D01*
X195451935Y-70129648D02*
X190920396Y-72242739D01*
X190920396Y-72242739D02*
X189610279Y-69433185D01*
X183674695Y-69718393D02*
G75*
G03*
X183191006Y-71047319I422619J-906308D01*
G01*
X199504545Y-63440190D02*
G75*
G03*
X198175620Y-62956502I-906306J-422617D01*
G01*
X189530280Y-84641936D02*
G75*
G03*
X190859206Y-85125625I906308J422619D01*
G01*
X205360131Y-78363732D02*
G75*
G03*
X205843819Y-77034807I-422617J906306D01*
G01*
D10*
%TO.C,J1*%
X163970000Y-116970000D02*
X163970000Y-89030000D01*
X163970000Y-89030000D02*
X136030000Y-89030000D01*
X136030000Y-116970000D02*
X163970000Y-116970000D01*
X136030000Y-89030000D02*
X136030000Y-116970000D01*
%TD*%
M02*
