M48
; DRILL file {KiCad 7.0.5} date Sun 04 Jun 2023 03:54:45 PM EDT
; FORMAT={-:-/ absolute / metric / decimal}
; #@! TF.CreationDate,2023-06-04T15:54:45-04:00
; #@! TF.GenerationSoftware,Kicad,Pcbnew,7.0.5
; #@! TF.FileFunction,MixedPlating,1,2
FMAT,2
METRIC
; #@! TA.AperFunction,Plated,PTH,ViaDrill
T1C0.400
; #@! TA.AperFunction,Plated,PTH,ComponentDrill
T2C0.750
; #@! TA.AperFunction,Plated,PTH,ComponentDrill
T3C0.800
; #@! TA.AperFunction,Plated,PTH,ComponentDrill
T4C1.000
; #@! TA.AperFunction,Plated,PTH,ComponentDrill
T5C1.016
; #@! TA.AperFunction,Plated,PTH,ComponentDrill
T6C1.100
; #@! TA.AperFunction,Plated,PTH,ComponentDrill
T7C1.500
; #@! TA.AperFunction,NonPlated,NPTH,ComponentDrill
T8C1.700
; #@! TA.AperFunction,NonPlated,NPTH,ComponentDrill
T9C2.200
; #@! TA.AperFunction,NonPlated,NPTH,ComponentDrill
T10C3.000
; #@! TA.AperFunction,NonPlated,NPTH,ComponentDrill
T11C3.400
%
G90
G05
T1
X63.0Y-67.25
X65.704Y-71.463
X71.931Y-86.504
X74.495Y-73.907
X83.198Y-85.413
X85.0Y-63.0
X86.852Y-84.083
X90.835Y-70.218
X102.75Y-66.5
X106.564Y-93.275
X114.452Y-107.711
X115.024Y-99.979
X116.081Y-97.713
X116.567Y-107.318
X117.5Y-78.25
X118.25Y-114.5
X118.271Y-100.113
X118.364Y-107.605
X120.009Y-102.303
X121.944Y-107.619
X123.971Y-120.425
X131.25Y-118.75
X131.597Y-117.085
X131.75Y-106.75
X131.957Y-114.5
X133.303Y-114.019
X134.625Y-99.375
X136.25Y-100.5
X136.75Y-103.5
X142.75Y-118.0
X143.25Y-108.75
X143.25Y-107.5
X144.0Y-92.25
X146.0Y-95.75
X147.5Y-90.0
X150.5Y-91.25
X154.0Y-111.25
X154.75Y-112.75
X155.5Y-107.0
X157.5Y-110.0
X166.5Y-110.0
X168.865Y-111.314
X168.94Y-112.658
X169.122Y-110.091
X169.959Y-87.633
X174.789Y-114.411
X175.205Y-120.77
X184.187Y-116.515
X190.387Y-85.474
X192.46Y-95.07
X208.579Y-82.313
X208.864Y-88.248
X221.959Y-87.935
X226.39Y-69.042
X228.25Y-69.5
X229.345Y-83.663
T2
X134.5Y-125.2
X136.5Y-125.2
X138.5Y-125.2
T3
X148.0Y-126.953
X150.0Y-126.953
X152.0Y-126.953
T4
X129.35Y-99.68
X129.35Y-102.22
X129.35Y-104.76
X129.35Y-107.3
X142.38Y-85.88
X142.38Y-88.42
X142.38Y-90.96
X142.38Y-93.5
X142.38Y-96.04
X142.38Y-98.58
X142.38Y-101.12
X146.19Y-115.7
X148.73Y-115.7
X151.27Y-115.7
X153.81Y-115.7
X157.62Y-85.88
X157.62Y-88.42
X157.62Y-90.96
X157.62Y-93.5
X157.62Y-96.04
X157.62Y-98.58
X157.62Y-101.12
T5
X145.555Y-91.278
X145.555Y-93.183
X148.73Y-84.928
X148.73Y-87.468
X151.27Y-84.928
X151.27Y-87.468
X153.81Y-102.708
X155.715Y-102.708
T6
X160.75Y-122.25
X160.75Y-126.75
X167.25Y-122.25
X167.25Y-126.75
T7
X145.9Y-126.953
X154.1Y-126.953
T8
X60.686Y-71.91
X70.656Y-76.558
X82.388Y-67.961
X92.358Y-72.61
X100.498Y-71.717
X110.467Y-76.365
X112.881Y-119.695
X115.015Y-83.176
X122.851Y-124.344
X124.985Y-87.824
X175.015Y-87.824
X177.149Y-124.344
X184.985Y-83.176
X187.119Y-119.695
X189.533Y-76.365
X199.502Y-71.717
X207.642Y-72.61
X217.612Y-67.961
X229.344Y-76.558
X239.314Y-71.91
T9
X61.0Y-62.25
X105.5Y-126.0
X132.5Y-81.25
X167.5Y-81.25
X194.5Y-126.0
X239.0Y-62.25
T10
X59.534Y-75.565
X63.178Y-79.581
X81.235Y-71.617
X84.879Y-75.633
X99.345Y-75.372
X102.989Y-79.388
X111.729Y-123.351
X113.863Y-86.831
X115.373Y-127.367
X117.507Y-90.847
X177.074Y-91.057
X179.208Y-127.577
X182.493Y-90.847
X184.627Y-127.367
X191.592Y-79.598
X197.011Y-79.388
X209.701Y-75.843
X215.121Y-75.633
X231.403Y-79.791
X236.822Y-79.581
T11
X65.671Y-74.234
X87.373Y-70.286
X105.483Y-74.041
X117.866Y-122.02
X120.0Y-85.5
X180.0Y-85.5
X182.134Y-122.02
X194.517Y-74.041
X212.627Y-70.286
X234.329Y-74.234
T0
M30
