%TF.GenerationSoftware,KiCad,Pcbnew,7.0.5*%
%TF.CreationDate,2023-06-04T15:55:19-04:00*%
%TF.ProjectId,epsilon-kb,65707369-6c6f-46e2-9d6b-622e6b696361,rev?*%
%TF.SameCoordinates,Original*%
%TF.FileFunction,Legend,Top*%
%TF.FilePolarity,Positive*%
%FSLAX46Y46*%
G04 Gerber Fmt 4.6, Leading zero omitted, Abs format (unit mm)*
G04 Created by KiCad (PCBNEW 7.0.5) date 2023-06-04 15:55:19*
%MOMM*%
%LPD*%
G01*
G04 APERTURE LIST*
%ADD10C,0.000000*%
%ADD11C,0.150000*%
%ADD12C,0.120000*%
G04 APERTURE END LIST*
D10*
G36*
X107253758Y-97663684D02*
G01*
X107502628Y-97691123D01*
X107750294Y-97735463D01*
X107994381Y-97794992D01*
X108232512Y-97868000D01*
X108462307Y-97952778D01*
X108681392Y-98047612D01*
X108839312Y-98124299D01*
X109011047Y-98214324D01*
X109192449Y-98316958D01*
X109379368Y-98431471D01*
X109567657Y-98557130D01*
X109753168Y-98693209D01*
X109931753Y-98838976D01*
X110017153Y-98915265D01*
X110099264Y-98993701D01*
X110177571Y-99074195D01*
X110251552Y-99156654D01*
X110320692Y-99240989D01*
X110384471Y-99327106D01*
X110442369Y-99414916D01*
X110493870Y-99504327D01*
X110538453Y-99595247D01*
X110575602Y-99687585D01*
X110604797Y-99781250D01*
X110625521Y-99876152D01*
X110637252Y-99972197D01*
X110639475Y-100069296D01*
X110631671Y-100167358D01*
X110613319Y-100266289D01*
X110583904Y-100366001D01*
X110542905Y-100466401D01*
X110528340Y-100496113D01*
X110512842Y-100524806D01*
X110496435Y-100552452D01*
X110479147Y-100579026D01*
X110461001Y-100604504D01*
X110442025Y-100628858D01*
X110422243Y-100652063D01*
X110401682Y-100674093D01*
X110380367Y-100694924D01*
X110358322Y-100714529D01*
X110335575Y-100732882D01*
X110312151Y-100749958D01*
X110288076Y-100765732D01*
X110263375Y-100780176D01*
X110238073Y-100793268D01*
X110212197Y-100804978D01*
X110185772Y-100815284D01*
X110158825Y-100824158D01*
X110131378Y-100831576D01*
X110103461Y-100837512D01*
X110075098Y-100841939D01*
X110046313Y-100844832D01*
X110017134Y-100846166D01*
X109987585Y-100845915D01*
X109957694Y-100844053D01*
X109927484Y-100840554D01*
X109896981Y-100835394D01*
X109866212Y-100828546D01*
X109835202Y-100819983D01*
X109803976Y-100809682D01*
X109772561Y-100797616D01*
X109740982Y-100783760D01*
X109662753Y-100742136D01*
X109594480Y-100695302D01*
X109535439Y-100643577D01*
X109484908Y-100587281D01*
X109442161Y-100526732D01*
X109406475Y-100462252D01*
X109377126Y-100394157D01*
X109353393Y-100322769D01*
X109334548Y-100248406D01*
X109319871Y-100171389D01*
X109300120Y-100010665D01*
X109278777Y-99671413D01*
X109265604Y-99497992D01*
X109243045Y-99325450D01*
X109226436Y-99240306D01*
X109205310Y-99156340D01*
X109178942Y-99073872D01*
X109146610Y-98993219D01*
X109107589Y-98914703D01*
X109061155Y-98838642D01*
X109006586Y-98765354D01*
X108943157Y-98695161D01*
X108870145Y-98628382D01*
X108786825Y-98565336D01*
X108692475Y-98506342D01*
X108586369Y-98451719D01*
X108502119Y-98414981D01*
X108419152Y-98383848D01*
X108337485Y-98358185D01*
X108257137Y-98337862D01*
X108178124Y-98322745D01*
X108100463Y-98312703D01*
X108024172Y-98307603D01*
X107949268Y-98307314D01*
X107875768Y-98311703D01*
X107803688Y-98320637D01*
X107733047Y-98333985D01*
X107663862Y-98351614D01*
X107596149Y-98373392D01*
X107529927Y-98399186D01*
X107465211Y-98428865D01*
X107402020Y-98462296D01*
X107340370Y-98499347D01*
X107280280Y-98539886D01*
X107221765Y-98583780D01*
X107164843Y-98630897D01*
X107055848Y-98734273D01*
X106953431Y-98848954D01*
X106857730Y-98973883D01*
X106768884Y-99108002D01*
X106687028Y-99250253D01*
X106612302Y-99399578D01*
X106564612Y-99512177D01*
X106523914Y-99630444D01*
X106490794Y-99753121D01*
X106465838Y-99878949D01*
X106456606Y-99942651D01*
X106449635Y-100006668D01*
X106444997Y-100070844D01*
X106442770Y-100135021D01*
X106443022Y-100199041D01*
X106445830Y-100262746D01*
X106451266Y-100325981D01*
X106459403Y-100388587D01*
X106470317Y-100450407D01*
X106484077Y-100511283D01*
X106500760Y-100571059D01*
X106520438Y-100629577D01*
X106543185Y-100686679D01*
X106569073Y-100742207D01*
X106598176Y-100796007D01*
X106630568Y-100847918D01*
X106666323Y-100897784D01*
X106705512Y-100945449D01*
X106748211Y-100990753D01*
X106794491Y-101033541D01*
X106844428Y-101073653D01*
X106898093Y-101110935D01*
X106955560Y-101145227D01*
X107016903Y-101176372D01*
X107069789Y-101199747D01*
X107121981Y-101220335D01*
X107173492Y-101238306D01*
X107224332Y-101253830D01*
X107274509Y-101267075D01*
X107324035Y-101278208D01*
X107372921Y-101287402D01*
X107421175Y-101294823D01*
X107515831Y-101305024D01*
X107608085Y-101310164D01*
X107698018Y-101311593D01*
X107785712Y-101310667D01*
X107954706Y-101307143D01*
X108036170Y-101307251D01*
X108115719Y-101310408D01*
X108193435Y-101317964D01*
X108231630Y-101323816D01*
X108269399Y-101331273D01*
X108306750Y-101340506D01*
X108343694Y-101351685D01*
X108380239Y-101364977D01*
X108416399Y-101380552D01*
X108443215Y-101393818D01*
X108468980Y-101408095D01*
X108493682Y-101423348D01*
X108517307Y-101439539D01*
X108539841Y-101456631D01*
X108561272Y-101474586D01*
X108581584Y-101493368D01*
X108600766Y-101512941D01*
X108618802Y-101533265D01*
X108635682Y-101554305D01*
X108651389Y-101576024D01*
X108665911Y-101598383D01*
X108679234Y-101621348D01*
X108691345Y-101644879D01*
X108702230Y-101668940D01*
X108711877Y-101693495D01*
X108720270Y-101718505D01*
X108727398Y-101743934D01*
X108733247Y-101769745D01*
X108737802Y-101795901D01*
X108741050Y-101822364D01*
X108742978Y-101849097D01*
X108743573Y-101876064D01*
X108742820Y-101903228D01*
X108740707Y-101930551D01*
X108737220Y-101957996D01*
X108732346Y-101985526D01*
X108726069Y-102013105D01*
X108718378Y-102040693D01*
X108709260Y-102068257D01*
X108698700Y-102095757D01*
X108686685Y-102123156D01*
X108672789Y-102151321D01*
X108657959Y-102178264D01*
X108642223Y-102203978D01*
X108625614Y-102228455D01*
X108608159Y-102251691D01*
X108589891Y-102273678D01*
X108570842Y-102294411D01*
X108551037Y-102313882D01*
X108530511Y-102332086D01*
X108509291Y-102349017D01*
X108487412Y-102364666D01*
X108464899Y-102379030D01*
X108441785Y-102392100D01*
X108418100Y-102403871D01*
X108393875Y-102414335D01*
X108369140Y-102423489D01*
X108343925Y-102431323D01*
X108318259Y-102437832D01*
X108292175Y-102443011D01*
X108265702Y-102446851D01*
X108238871Y-102449347D01*
X108211711Y-102450493D01*
X108184253Y-102450282D01*
X108156528Y-102448709D01*
X108128565Y-102445766D01*
X108100396Y-102441446D01*
X108072051Y-102435744D01*
X108043559Y-102428654D01*
X108014951Y-102420169D01*
X107986259Y-102410282D01*
X107957511Y-102398987D01*
X107928738Y-102386278D01*
X106967932Y-101601935D01*
X106896002Y-101570619D01*
X106824139Y-101543706D01*
X106752422Y-101521117D01*
X106680930Y-101502772D01*
X106609739Y-101488591D01*
X106538929Y-101478495D01*
X106468578Y-101472403D01*
X106398765Y-101470237D01*
X106329567Y-101471915D01*
X106261063Y-101477359D01*
X106193331Y-101486487D01*
X106126448Y-101499222D01*
X106060496Y-101515481D01*
X105995550Y-101535187D01*
X105931688Y-101558260D01*
X105868991Y-101584617D01*
X105807534Y-101614182D01*
X105747399Y-101646873D01*
X105688661Y-101682612D01*
X105631400Y-101721317D01*
X105575693Y-101762909D01*
X105521620Y-101807308D01*
X105469258Y-101854436D01*
X105418685Y-101904210D01*
X105369981Y-101956552D01*
X105323223Y-102011383D01*
X105278488Y-102068622D01*
X105235858Y-102128189D01*
X105195408Y-102190005D01*
X105157216Y-102253989D01*
X105121363Y-102320063D01*
X105087926Y-102388145D01*
X105044673Y-102485813D01*
X105006148Y-102583093D01*
X104972337Y-102679903D01*
X104943228Y-102776160D01*
X104918806Y-102871785D01*
X104899059Y-102966696D01*
X104883973Y-103060811D01*
X104873535Y-103154048D01*
X104867732Y-103246327D01*
X104866550Y-103337565D01*
X104869975Y-103427682D01*
X104877996Y-103516594D01*
X104890598Y-103604223D01*
X104907767Y-103690485D01*
X104929491Y-103775298D01*
X104955757Y-103858584D01*
X104986550Y-103940258D01*
X105021859Y-104020240D01*
X105061668Y-104098448D01*
X105105966Y-104174801D01*
X105154739Y-104249218D01*
X105207973Y-104321616D01*
X105265655Y-104391915D01*
X105327771Y-104460033D01*
X105394309Y-104525888D01*
X105465255Y-104589400D01*
X105540596Y-104650485D01*
X105620319Y-104709064D01*
X105704409Y-104765055D01*
X105792854Y-104818375D01*
X105885642Y-104868944D01*
X105982756Y-104916680D01*
X106078504Y-104959525D01*
X106172983Y-104998187D01*
X106266239Y-105032705D01*
X106358318Y-105063125D01*
X106449265Y-105089485D01*
X106539126Y-105111830D01*
X106627945Y-105130200D01*
X106715771Y-105144636D01*
X106802646Y-105155181D01*
X106888617Y-105161876D01*
X106973729Y-105164764D01*
X107058028Y-105163886D01*
X107141560Y-105159282D01*
X107224370Y-105150997D01*
X107306502Y-105139071D01*
X107388005Y-105123546D01*
X107468922Y-105104463D01*
X107549299Y-105081866D01*
X107629180Y-105055794D01*
X107708614Y-105026291D01*
X107787645Y-104993396D01*
X107866316Y-104957154D01*
X108022770Y-104874791D01*
X108178338Y-104779535D01*
X108333386Y-104671720D01*
X108488277Y-104551680D01*
X108643375Y-104419750D01*
X108948324Y-104767478D01*
X108948311Y-104767505D01*
X108842873Y-104869321D01*
X108736720Y-104964549D01*
X108629851Y-105053286D01*
X108522267Y-105135628D01*
X108413967Y-105211669D01*
X108304950Y-105281506D01*
X108195217Y-105345233D01*
X108084769Y-105402948D01*
X107973603Y-105454745D01*
X107861721Y-105500721D01*
X107749122Y-105540971D01*
X107635807Y-105575590D01*
X107521773Y-105604675D01*
X107407022Y-105628321D01*
X107291554Y-105646625D01*
X107175369Y-105659680D01*
X106940844Y-105670433D01*
X106703447Y-105661345D01*
X106463176Y-105633182D01*
X106220030Y-105586708D01*
X105974007Y-105522692D01*
X105725107Y-105441897D01*
X105473329Y-105345091D01*
X105218669Y-105233038D01*
X104990499Y-105117618D01*
X104767963Y-104986597D01*
X104553412Y-104840798D01*
X104349199Y-104681046D01*
X104251705Y-104596194D01*
X104157678Y-104508162D01*
X104067411Y-104417054D01*
X103981200Y-104322972D01*
X103899339Y-104226018D01*
X103822121Y-104126297D01*
X103749840Y-104023911D01*
X103682791Y-103918963D01*
X103621268Y-103811555D01*
X103565565Y-103701792D01*
X103515976Y-103589775D01*
X103472794Y-103475608D01*
X103436315Y-103359392D01*
X103406832Y-103241234D01*
X103384640Y-103121233D01*
X103370032Y-102999494D01*
X103363303Y-102876118D01*
X103364746Y-102751210D01*
X103374657Y-102624873D01*
X103393328Y-102497208D01*
X103421055Y-102368321D01*
X103458130Y-102238310D01*
X103504849Y-102107283D01*
X103561506Y-101975341D01*
X103606667Y-101885347D01*
X103656148Y-101799505D01*
X103709763Y-101717787D01*
X103767321Y-101640162D01*
X103828637Y-101566603D01*
X103893521Y-101497078D01*
X103961784Y-101431557D01*
X104033241Y-101370013D01*
X104107701Y-101312416D01*
X104184977Y-101258734D01*
X104264882Y-101208939D01*
X104347226Y-101163003D01*
X104431822Y-101120894D01*
X104518482Y-101082584D01*
X104607018Y-101048043D01*
X104697242Y-101017241D01*
X104882000Y-100966737D01*
X105071252Y-100930837D01*
X105263491Y-100909303D01*
X105457217Y-100901900D01*
X105650922Y-100908390D01*
X105843104Y-100928540D01*
X106032256Y-100962110D01*
X106216874Y-101008866D01*
X106231200Y-100978144D01*
X106094826Y-100890503D01*
X105961063Y-100791161D01*
X105831445Y-100681053D01*
X105707505Y-100561112D01*
X105590781Y-100432275D01*
X105482805Y-100295474D01*
X105432576Y-100224380D01*
X105385112Y-100151646D01*
X105340601Y-100077389D01*
X105299238Y-100001724D01*
X105261212Y-99924771D01*
X105226716Y-99846644D01*
X105195942Y-99767462D01*
X105169083Y-99687340D01*
X105146328Y-99606397D01*
X105127872Y-99524747D01*
X105113904Y-99442509D01*
X105104618Y-99359799D01*
X105100205Y-99276735D01*
X105100857Y-99193431D01*
X105106765Y-99110007D01*
X105118122Y-99026578D01*
X105135118Y-98943261D01*
X105157948Y-98860173D01*
X105186801Y-98777432D01*
X105221870Y-98695153D01*
X105283979Y-98572971D01*
X105352026Y-98459504D01*
X105425717Y-98354538D01*
X105504752Y-98257861D01*
X105588834Y-98169257D01*
X105677668Y-98088514D01*
X105770955Y-98015417D01*
X105868397Y-97949753D01*
X105969701Y-97891308D01*
X106074565Y-97839866D01*
X106182694Y-97795217D01*
X106293792Y-97757145D01*
X106407561Y-97725435D01*
X106523702Y-97699875D01*
X106641921Y-97680252D01*
X106761918Y-97666349D01*
X107006061Y-97654856D01*
X107253758Y-97663684D01*
G37*
D11*
X139008458Y-86359580D02*
X138960839Y-86407200D01*
X138960839Y-86407200D02*
X138817982Y-86454819D01*
X138817982Y-86454819D02*
X138722744Y-86454819D01*
X138722744Y-86454819D02*
X138579887Y-86407200D01*
X138579887Y-86407200D02*
X138484649Y-86311961D01*
X138484649Y-86311961D02*
X138437030Y-86216723D01*
X138437030Y-86216723D02*
X138389411Y-86026247D01*
X138389411Y-86026247D02*
X138389411Y-85883390D01*
X138389411Y-85883390D02*
X138437030Y-85692914D01*
X138437030Y-85692914D02*
X138484649Y-85597676D01*
X138484649Y-85597676D02*
X138579887Y-85502438D01*
X138579887Y-85502438D02*
X138722744Y-85454819D01*
X138722744Y-85454819D02*
X138817982Y-85454819D01*
X138817982Y-85454819D02*
X138960839Y-85502438D01*
X138960839Y-85502438D02*
X139008458Y-85550057D01*
X139960839Y-86454819D02*
X139389411Y-86454819D01*
X139675125Y-86454819D02*
X139675125Y-85454819D01*
X139675125Y-85454819D02*
X139579887Y-85597676D01*
X139579887Y-85597676D02*
X139484649Y-85692914D01*
X139484649Y-85692914D02*
X139389411Y-85740533D01*
X139008458Y-88859580D02*
X138960839Y-88907200D01*
X138960839Y-88907200D02*
X138817982Y-88954819D01*
X138817982Y-88954819D02*
X138722744Y-88954819D01*
X138722744Y-88954819D02*
X138579887Y-88907200D01*
X138579887Y-88907200D02*
X138484649Y-88811961D01*
X138484649Y-88811961D02*
X138437030Y-88716723D01*
X138437030Y-88716723D02*
X138389411Y-88526247D01*
X138389411Y-88526247D02*
X138389411Y-88383390D01*
X138389411Y-88383390D02*
X138437030Y-88192914D01*
X138437030Y-88192914D02*
X138484649Y-88097676D01*
X138484649Y-88097676D02*
X138579887Y-88002438D01*
X138579887Y-88002438D02*
X138722744Y-87954819D01*
X138722744Y-87954819D02*
X138817982Y-87954819D01*
X138817982Y-87954819D02*
X138960839Y-88002438D01*
X138960839Y-88002438D02*
X139008458Y-88050057D01*
X139389411Y-88050057D02*
X139437030Y-88002438D01*
X139437030Y-88002438D02*
X139532268Y-87954819D01*
X139532268Y-87954819D02*
X139770363Y-87954819D01*
X139770363Y-87954819D02*
X139865601Y-88002438D01*
X139865601Y-88002438D02*
X139913220Y-88050057D01*
X139913220Y-88050057D02*
X139960839Y-88145295D01*
X139960839Y-88145295D02*
X139960839Y-88240533D01*
X139960839Y-88240533D02*
X139913220Y-88383390D01*
X139913220Y-88383390D02*
X139341792Y-88954819D01*
X139341792Y-88954819D02*
X139960839Y-88954819D01*
X146657200Y-119717731D02*
X146704819Y-119574874D01*
X146704819Y-119574874D02*
X146704819Y-119336779D01*
X146704819Y-119336779D02*
X146657200Y-119241541D01*
X146657200Y-119241541D02*
X146609580Y-119193922D01*
X146609580Y-119193922D02*
X146514342Y-119146303D01*
X146514342Y-119146303D02*
X146419104Y-119146303D01*
X146419104Y-119146303D02*
X146323866Y-119193922D01*
X146323866Y-119193922D02*
X146276247Y-119241541D01*
X146276247Y-119241541D02*
X146228628Y-119336779D01*
X146228628Y-119336779D02*
X146181009Y-119527255D01*
X146181009Y-119527255D02*
X146133390Y-119622493D01*
X146133390Y-119622493D02*
X146085771Y-119670112D01*
X146085771Y-119670112D02*
X145990533Y-119717731D01*
X145990533Y-119717731D02*
X145895295Y-119717731D01*
X145895295Y-119717731D02*
X145800057Y-119670112D01*
X145800057Y-119670112D02*
X145752438Y-119622493D01*
X145752438Y-119622493D02*
X145704819Y-119527255D01*
X145704819Y-119527255D02*
X145704819Y-119289160D01*
X145704819Y-119289160D02*
X145752438Y-119146303D01*
X146704819Y-118717731D02*
X145704819Y-118717731D01*
X145704819Y-118717731D02*
X145704819Y-118479636D01*
X145704819Y-118479636D02*
X145752438Y-118336779D01*
X145752438Y-118336779D02*
X145847676Y-118241541D01*
X145847676Y-118241541D02*
X145942914Y-118193922D01*
X145942914Y-118193922D02*
X146133390Y-118146303D01*
X146133390Y-118146303D02*
X146276247Y-118146303D01*
X146276247Y-118146303D02*
X146466723Y-118193922D01*
X146466723Y-118193922D02*
X146561961Y-118241541D01*
X146561961Y-118241541D02*
X146657200Y-118336779D01*
X146657200Y-118336779D02*
X146704819Y-118479636D01*
X146704819Y-118479636D02*
X146704819Y-118717731D01*
X146419104Y-117765350D02*
X146419104Y-117289160D01*
X146704819Y-117860588D02*
X145704819Y-117527255D01*
X145704819Y-117527255D02*
X146704819Y-117193922D01*
X160610588Y-88002438D02*
X160515350Y-87954819D01*
X160515350Y-87954819D02*
X160372493Y-87954819D01*
X160372493Y-87954819D02*
X160229636Y-88002438D01*
X160229636Y-88002438D02*
X160134398Y-88097676D01*
X160134398Y-88097676D02*
X160086779Y-88192914D01*
X160086779Y-88192914D02*
X160039160Y-88383390D01*
X160039160Y-88383390D02*
X160039160Y-88526247D01*
X160039160Y-88526247D02*
X160086779Y-88716723D01*
X160086779Y-88716723D02*
X160134398Y-88811961D01*
X160134398Y-88811961D02*
X160229636Y-88907200D01*
X160229636Y-88907200D02*
X160372493Y-88954819D01*
X160372493Y-88954819D02*
X160467731Y-88954819D01*
X160467731Y-88954819D02*
X160610588Y-88907200D01*
X160610588Y-88907200D02*
X160658207Y-88859580D01*
X160658207Y-88859580D02*
X160658207Y-88526247D01*
X160658207Y-88526247D02*
X160467731Y-88526247D01*
X161086779Y-88954819D02*
X161086779Y-87954819D01*
X161086779Y-87954819D02*
X161658207Y-88954819D01*
X161658207Y-88954819D02*
X161658207Y-87954819D01*
X162134398Y-88954819D02*
X162134398Y-87954819D01*
X162134398Y-87954819D02*
X162372493Y-87954819D01*
X162372493Y-87954819D02*
X162515350Y-88002438D01*
X162515350Y-88002438D02*
X162610588Y-88097676D01*
X162610588Y-88097676D02*
X162658207Y-88192914D01*
X162658207Y-88192914D02*
X162705826Y-88383390D01*
X162705826Y-88383390D02*
X162705826Y-88526247D01*
X162705826Y-88526247D02*
X162658207Y-88716723D01*
X162658207Y-88716723D02*
X162610588Y-88811961D01*
X162610588Y-88811961D02*
X162515350Y-88907200D01*
X162515350Y-88907200D02*
X162372493Y-88954819D01*
X162372493Y-88954819D02*
X162134398Y-88954819D01*
X160658207Y-101704819D02*
X160324874Y-101228628D01*
X160086779Y-101704819D02*
X160086779Y-100704819D01*
X160086779Y-100704819D02*
X160467731Y-100704819D01*
X160467731Y-100704819D02*
X160562969Y-100752438D01*
X160562969Y-100752438D02*
X160610588Y-100800057D01*
X160610588Y-100800057D02*
X160658207Y-100895295D01*
X160658207Y-100895295D02*
X160658207Y-101038152D01*
X160658207Y-101038152D02*
X160610588Y-101133390D01*
X160610588Y-101133390D02*
X160562969Y-101181009D01*
X160562969Y-101181009D02*
X160467731Y-101228628D01*
X160467731Y-101228628D02*
X160086779Y-101228628D01*
X161610588Y-101704819D02*
X161039160Y-101704819D01*
X161324874Y-101704819D02*
X161324874Y-100704819D01*
X161324874Y-100704819D02*
X161229636Y-100847676D01*
X161229636Y-100847676D02*
X161134398Y-100942914D01*
X161134398Y-100942914D02*
X161039160Y-100990533D01*
X160658207Y-98954819D02*
X160324874Y-98478628D01*
X160086779Y-98954819D02*
X160086779Y-97954819D01*
X160086779Y-97954819D02*
X160467731Y-97954819D01*
X160467731Y-97954819D02*
X160562969Y-98002438D01*
X160562969Y-98002438D02*
X160610588Y-98050057D01*
X160610588Y-98050057D02*
X160658207Y-98145295D01*
X160658207Y-98145295D02*
X160658207Y-98288152D01*
X160658207Y-98288152D02*
X160610588Y-98383390D01*
X160610588Y-98383390D02*
X160562969Y-98431009D01*
X160562969Y-98431009D02*
X160467731Y-98478628D01*
X160467731Y-98478628D02*
X160086779Y-98478628D01*
X161039160Y-98050057D02*
X161086779Y-98002438D01*
X161086779Y-98002438D02*
X161182017Y-97954819D01*
X161182017Y-97954819D02*
X161420112Y-97954819D01*
X161420112Y-97954819D02*
X161515350Y-98002438D01*
X161515350Y-98002438D02*
X161562969Y-98050057D01*
X161562969Y-98050057D02*
X161610588Y-98145295D01*
X161610588Y-98145295D02*
X161610588Y-98240533D01*
X161610588Y-98240533D02*
X161562969Y-98383390D01*
X161562969Y-98383390D02*
X160991541Y-98954819D01*
X160991541Y-98954819D02*
X161610588Y-98954819D01*
X145746553Y-87954819D02*
X145413220Y-87478628D01*
X145175125Y-87954819D02*
X145175125Y-86954819D01*
X145175125Y-86954819D02*
X145556077Y-86954819D01*
X145556077Y-86954819D02*
X145651315Y-87002438D01*
X145651315Y-87002438D02*
X145698934Y-87050057D01*
X145698934Y-87050057D02*
X145746553Y-87145295D01*
X145746553Y-87145295D02*
X145746553Y-87288152D01*
X145746553Y-87288152D02*
X145698934Y-87383390D01*
X145698934Y-87383390D02*
X145651315Y-87431009D01*
X145651315Y-87431009D02*
X145556077Y-87478628D01*
X145556077Y-87478628D02*
X145175125Y-87478628D01*
X146127506Y-87907200D02*
X146270363Y-87954819D01*
X146270363Y-87954819D02*
X146508458Y-87954819D01*
X146508458Y-87954819D02*
X146603696Y-87907200D01*
X146603696Y-87907200D02*
X146651315Y-87859580D01*
X146651315Y-87859580D02*
X146698934Y-87764342D01*
X146698934Y-87764342D02*
X146698934Y-87669104D01*
X146698934Y-87669104D02*
X146651315Y-87573866D01*
X146651315Y-87573866D02*
X146603696Y-87526247D01*
X146603696Y-87526247D02*
X146508458Y-87478628D01*
X146508458Y-87478628D02*
X146317982Y-87431009D01*
X146317982Y-87431009D02*
X146222744Y-87383390D01*
X146222744Y-87383390D02*
X146175125Y-87335771D01*
X146175125Y-87335771D02*
X146127506Y-87240533D01*
X146127506Y-87240533D02*
X146127506Y-87145295D01*
X146127506Y-87145295D02*
X146175125Y-87050057D01*
X146175125Y-87050057D02*
X146222744Y-87002438D01*
X146222744Y-87002438D02*
X146317982Y-86954819D01*
X146317982Y-86954819D02*
X146556077Y-86954819D01*
X146556077Y-86954819D02*
X146698934Y-87002438D01*
X146984649Y-86954819D02*
X147556077Y-86954819D01*
X147270363Y-87954819D02*
X147270363Y-86954819D01*
X125365601Y-107002438D02*
X125270363Y-106954819D01*
X125270363Y-106954819D02*
X125127506Y-106954819D01*
X125127506Y-106954819D02*
X124984649Y-107002438D01*
X124984649Y-107002438D02*
X124889411Y-107097676D01*
X124889411Y-107097676D02*
X124841792Y-107192914D01*
X124841792Y-107192914D02*
X124794173Y-107383390D01*
X124794173Y-107383390D02*
X124794173Y-107526247D01*
X124794173Y-107526247D02*
X124841792Y-107716723D01*
X124841792Y-107716723D02*
X124889411Y-107811961D01*
X124889411Y-107811961D02*
X124984649Y-107907200D01*
X124984649Y-107907200D02*
X125127506Y-107954819D01*
X125127506Y-107954819D02*
X125222744Y-107954819D01*
X125222744Y-107954819D02*
X125365601Y-107907200D01*
X125365601Y-107907200D02*
X125413220Y-107859580D01*
X125413220Y-107859580D02*
X125413220Y-107526247D01*
X125413220Y-107526247D02*
X125222744Y-107526247D01*
X125841792Y-107954819D02*
X125841792Y-106954819D01*
X125841792Y-106954819D02*
X126413220Y-107954819D01*
X126413220Y-107954819D02*
X126413220Y-106954819D01*
X126889411Y-107954819D02*
X126889411Y-106954819D01*
X126889411Y-106954819D02*
X127127506Y-106954819D01*
X127127506Y-106954819D02*
X127270363Y-107002438D01*
X127270363Y-107002438D02*
X127365601Y-107097676D01*
X127365601Y-107097676D02*
X127413220Y-107192914D01*
X127413220Y-107192914D02*
X127460839Y-107383390D01*
X127460839Y-107383390D02*
X127460839Y-107526247D01*
X127460839Y-107526247D02*
X127413220Y-107716723D01*
X127413220Y-107716723D02*
X127365601Y-107811961D01*
X127365601Y-107811961D02*
X127270363Y-107907200D01*
X127270363Y-107907200D02*
X127127506Y-107954819D01*
X127127506Y-107954819D02*
X126889411Y-107954819D01*
X147170112Y-93181009D02*
X147312969Y-93228628D01*
X147312969Y-93228628D02*
X147360588Y-93276247D01*
X147360588Y-93276247D02*
X147408207Y-93371485D01*
X147408207Y-93371485D02*
X147408207Y-93514342D01*
X147408207Y-93514342D02*
X147360588Y-93609580D01*
X147360588Y-93609580D02*
X147312969Y-93657200D01*
X147312969Y-93657200D02*
X147217731Y-93704819D01*
X147217731Y-93704819D02*
X146836779Y-93704819D01*
X146836779Y-93704819D02*
X146836779Y-92704819D01*
X146836779Y-92704819D02*
X147170112Y-92704819D01*
X147170112Y-92704819D02*
X147265350Y-92752438D01*
X147265350Y-92752438D02*
X147312969Y-92800057D01*
X147312969Y-92800057D02*
X147360588Y-92895295D01*
X147360588Y-92895295D02*
X147360588Y-92990533D01*
X147360588Y-92990533D02*
X147312969Y-93085771D01*
X147312969Y-93085771D02*
X147265350Y-93133390D01*
X147265350Y-93133390D02*
X147170112Y-93181009D01*
X147170112Y-93181009D02*
X146836779Y-93181009D01*
X147836779Y-93323866D02*
X148598684Y-93323866D01*
X148217731Y-93704819D02*
X148217731Y-92942914D01*
X147360588Y-90752438D02*
X147265350Y-90704819D01*
X147265350Y-90704819D02*
X147122493Y-90704819D01*
X147122493Y-90704819D02*
X146979636Y-90752438D01*
X146979636Y-90752438D02*
X146884398Y-90847676D01*
X146884398Y-90847676D02*
X146836779Y-90942914D01*
X146836779Y-90942914D02*
X146789160Y-91133390D01*
X146789160Y-91133390D02*
X146789160Y-91276247D01*
X146789160Y-91276247D02*
X146836779Y-91466723D01*
X146836779Y-91466723D02*
X146884398Y-91561961D01*
X146884398Y-91561961D02*
X146979636Y-91657200D01*
X146979636Y-91657200D02*
X147122493Y-91704819D01*
X147122493Y-91704819D02*
X147217731Y-91704819D01*
X147217731Y-91704819D02*
X147360588Y-91657200D01*
X147360588Y-91657200D02*
X147408207Y-91609580D01*
X147408207Y-91609580D02*
X147408207Y-91276247D01*
X147408207Y-91276247D02*
X147217731Y-91276247D01*
X147836779Y-91704819D02*
X147836779Y-90704819D01*
X147836779Y-90704819D02*
X148408207Y-91704819D01*
X148408207Y-91704819D02*
X148408207Y-90704819D01*
X148884398Y-91704819D02*
X148884398Y-90704819D01*
X148884398Y-90704819D02*
X149122493Y-90704819D01*
X149122493Y-90704819D02*
X149265350Y-90752438D01*
X149265350Y-90752438D02*
X149360588Y-90847676D01*
X149360588Y-90847676D02*
X149408207Y-90942914D01*
X149408207Y-90942914D02*
X149455826Y-91133390D01*
X149455826Y-91133390D02*
X149455826Y-91276247D01*
X149455826Y-91276247D02*
X149408207Y-91466723D01*
X149408207Y-91466723D02*
X149360588Y-91561961D01*
X149360588Y-91561961D02*
X149265350Y-91657200D01*
X149265350Y-91657200D02*
X149122493Y-91704819D01*
X149122493Y-91704819D02*
X148884398Y-91704819D01*
X137579887Y-99157200D02*
X137722744Y-99204819D01*
X137722744Y-99204819D02*
X137960839Y-99204819D01*
X137960839Y-99204819D02*
X138056077Y-99157200D01*
X138056077Y-99157200D02*
X138103696Y-99109580D01*
X138103696Y-99109580D02*
X138151315Y-99014342D01*
X138151315Y-99014342D02*
X138151315Y-98919104D01*
X138151315Y-98919104D02*
X138103696Y-98823866D01*
X138103696Y-98823866D02*
X138056077Y-98776247D01*
X138056077Y-98776247D02*
X137960839Y-98728628D01*
X137960839Y-98728628D02*
X137770363Y-98681009D01*
X137770363Y-98681009D02*
X137675125Y-98633390D01*
X137675125Y-98633390D02*
X137627506Y-98585771D01*
X137627506Y-98585771D02*
X137579887Y-98490533D01*
X137579887Y-98490533D02*
X137579887Y-98395295D01*
X137579887Y-98395295D02*
X137627506Y-98300057D01*
X137627506Y-98300057D02*
X137675125Y-98252438D01*
X137675125Y-98252438D02*
X137770363Y-98204819D01*
X137770363Y-98204819D02*
X138008458Y-98204819D01*
X138008458Y-98204819D02*
X138151315Y-98252438D01*
X139151315Y-99109580D02*
X139103696Y-99157200D01*
X139103696Y-99157200D02*
X138960839Y-99204819D01*
X138960839Y-99204819D02*
X138865601Y-99204819D01*
X138865601Y-99204819D02*
X138722744Y-99157200D01*
X138722744Y-99157200D02*
X138627506Y-99061961D01*
X138627506Y-99061961D02*
X138579887Y-98966723D01*
X138579887Y-98966723D02*
X138532268Y-98776247D01*
X138532268Y-98776247D02*
X138532268Y-98633390D01*
X138532268Y-98633390D02*
X138579887Y-98442914D01*
X138579887Y-98442914D02*
X138627506Y-98347676D01*
X138627506Y-98347676D02*
X138722744Y-98252438D01*
X138722744Y-98252438D02*
X138865601Y-98204819D01*
X138865601Y-98204819D02*
X138960839Y-98204819D01*
X138960839Y-98204819D02*
X139103696Y-98252438D01*
X139103696Y-98252438D02*
X139151315Y-98300057D01*
X140056077Y-99204819D02*
X139579887Y-99204819D01*
X139579887Y-99204819D02*
X139579887Y-98204819D01*
X162547618Y-129454819D02*
X162214285Y-128978628D01*
X161976190Y-129454819D02*
X161976190Y-128454819D01*
X161976190Y-128454819D02*
X162357142Y-128454819D01*
X162357142Y-128454819D02*
X162452380Y-128502438D01*
X162452380Y-128502438D02*
X162499999Y-128550057D01*
X162499999Y-128550057D02*
X162547618Y-128645295D01*
X162547618Y-128645295D02*
X162547618Y-128788152D01*
X162547618Y-128788152D02*
X162499999Y-128883390D01*
X162499999Y-128883390D02*
X162452380Y-128931009D01*
X162452380Y-128931009D02*
X162357142Y-128978628D01*
X162357142Y-128978628D02*
X161976190Y-128978628D01*
X162976190Y-128931009D02*
X163309523Y-128931009D01*
X163452380Y-129454819D02*
X162976190Y-129454819D01*
X162976190Y-129454819D02*
X162976190Y-128454819D01*
X162976190Y-128454819D02*
X163452380Y-128454819D01*
X163833333Y-129407200D02*
X163976190Y-129454819D01*
X163976190Y-129454819D02*
X164214285Y-129454819D01*
X164214285Y-129454819D02*
X164309523Y-129407200D01*
X164309523Y-129407200D02*
X164357142Y-129359580D01*
X164357142Y-129359580D02*
X164404761Y-129264342D01*
X164404761Y-129264342D02*
X164404761Y-129169104D01*
X164404761Y-129169104D02*
X164357142Y-129073866D01*
X164357142Y-129073866D02*
X164309523Y-129026247D01*
X164309523Y-129026247D02*
X164214285Y-128978628D01*
X164214285Y-128978628D02*
X164023809Y-128931009D01*
X164023809Y-128931009D02*
X163928571Y-128883390D01*
X163928571Y-128883390D02*
X163880952Y-128835771D01*
X163880952Y-128835771D02*
X163833333Y-128740533D01*
X163833333Y-128740533D02*
X163833333Y-128645295D01*
X163833333Y-128645295D02*
X163880952Y-128550057D01*
X163880952Y-128550057D02*
X163928571Y-128502438D01*
X163928571Y-128502438D02*
X164023809Y-128454819D01*
X164023809Y-128454819D02*
X164261904Y-128454819D01*
X164261904Y-128454819D02*
X164404761Y-128502438D01*
X164833333Y-128931009D02*
X165166666Y-128931009D01*
X165309523Y-129454819D02*
X164833333Y-129454819D01*
X164833333Y-129454819D02*
X164833333Y-128454819D01*
X164833333Y-128454819D02*
X165309523Y-128454819D01*
X165595238Y-128454819D02*
X166166666Y-128454819D01*
X165880952Y-129454819D02*
X165880952Y-128454819D01*
X153110588Y-87002438D02*
X153015350Y-86954819D01*
X153015350Y-86954819D02*
X152872493Y-86954819D01*
X152872493Y-86954819D02*
X152729636Y-87002438D01*
X152729636Y-87002438D02*
X152634398Y-87097676D01*
X152634398Y-87097676D02*
X152586779Y-87192914D01*
X152586779Y-87192914D02*
X152539160Y-87383390D01*
X152539160Y-87383390D02*
X152539160Y-87526247D01*
X152539160Y-87526247D02*
X152586779Y-87716723D01*
X152586779Y-87716723D02*
X152634398Y-87811961D01*
X152634398Y-87811961D02*
X152729636Y-87907200D01*
X152729636Y-87907200D02*
X152872493Y-87954819D01*
X152872493Y-87954819D02*
X152967731Y-87954819D01*
X152967731Y-87954819D02*
X153110588Y-87907200D01*
X153110588Y-87907200D02*
X153158207Y-87859580D01*
X153158207Y-87859580D02*
X153158207Y-87526247D01*
X153158207Y-87526247D02*
X152967731Y-87526247D01*
X153586779Y-87954819D02*
X153586779Y-86954819D01*
X153586779Y-86954819D02*
X154158207Y-87954819D01*
X154158207Y-87954819D02*
X154158207Y-86954819D01*
X154634398Y-87954819D02*
X154634398Y-86954819D01*
X154634398Y-86954819D02*
X154872493Y-86954819D01*
X154872493Y-86954819D02*
X155015350Y-87002438D01*
X155015350Y-87002438D02*
X155110588Y-87097676D01*
X155110588Y-87097676D02*
X155158207Y-87192914D01*
X155158207Y-87192914D02*
X155205826Y-87383390D01*
X155205826Y-87383390D02*
X155205826Y-87526247D01*
X155205826Y-87526247D02*
X155158207Y-87716723D01*
X155158207Y-87716723D02*
X155110588Y-87811961D01*
X155110588Y-87811961D02*
X155015350Y-87907200D01*
X155015350Y-87907200D02*
X154872493Y-87954819D01*
X154872493Y-87954819D02*
X154634398Y-87954819D01*
X124889411Y-104204819D02*
X125222744Y-105204819D01*
X125222744Y-105204819D02*
X125556077Y-104204819D01*
X126460839Y-105109580D02*
X126413220Y-105157200D01*
X126413220Y-105157200D02*
X126270363Y-105204819D01*
X126270363Y-105204819D02*
X126175125Y-105204819D01*
X126175125Y-105204819D02*
X126032268Y-105157200D01*
X126032268Y-105157200D02*
X125937030Y-105061961D01*
X125937030Y-105061961D02*
X125889411Y-104966723D01*
X125889411Y-104966723D02*
X125841792Y-104776247D01*
X125841792Y-104776247D02*
X125841792Y-104633390D01*
X125841792Y-104633390D02*
X125889411Y-104442914D01*
X125889411Y-104442914D02*
X125937030Y-104347676D01*
X125937030Y-104347676D02*
X126032268Y-104252438D01*
X126032268Y-104252438D02*
X126175125Y-104204819D01*
X126175125Y-104204819D02*
X126270363Y-104204819D01*
X126270363Y-104204819D02*
X126413220Y-104252438D01*
X126413220Y-104252438D02*
X126460839Y-104300057D01*
X127460839Y-105109580D02*
X127413220Y-105157200D01*
X127413220Y-105157200D02*
X127270363Y-105204819D01*
X127270363Y-105204819D02*
X127175125Y-105204819D01*
X127175125Y-105204819D02*
X127032268Y-105157200D01*
X127032268Y-105157200D02*
X126937030Y-105061961D01*
X126937030Y-105061961D02*
X126889411Y-104966723D01*
X126889411Y-104966723D02*
X126841792Y-104776247D01*
X126841792Y-104776247D02*
X126841792Y-104633390D01*
X126841792Y-104633390D02*
X126889411Y-104442914D01*
X126889411Y-104442914D02*
X126937030Y-104347676D01*
X126937030Y-104347676D02*
X127032268Y-104252438D01*
X127032268Y-104252438D02*
X127175125Y-104204819D01*
X127175125Y-104204819D02*
X127270363Y-104204819D01*
X127270363Y-104204819D02*
X127413220Y-104252438D01*
X127413220Y-104252438D02*
X127460839Y-104300057D01*
X138119048Y-128073866D02*
X138880953Y-128073866D01*
X160562969Y-85204819D02*
X160086779Y-85204819D01*
X160086779Y-85204819D02*
X160039160Y-85681009D01*
X160039160Y-85681009D02*
X160086779Y-85633390D01*
X160086779Y-85633390D02*
X160182017Y-85585771D01*
X160182017Y-85585771D02*
X160420112Y-85585771D01*
X160420112Y-85585771D02*
X160515350Y-85633390D01*
X160515350Y-85633390D02*
X160562969Y-85681009D01*
X160562969Y-85681009D02*
X160610588Y-85776247D01*
X160610588Y-85776247D02*
X160610588Y-86014342D01*
X160610588Y-86014342D02*
X160562969Y-86109580D01*
X160562969Y-86109580D02*
X160515350Y-86157200D01*
X160515350Y-86157200D02*
X160420112Y-86204819D01*
X160420112Y-86204819D02*
X160182017Y-86204819D01*
X160182017Y-86204819D02*
X160086779Y-86157200D01*
X160086779Y-86157200D02*
X160039160Y-86109580D01*
X160896303Y-85204819D02*
X161229636Y-86204819D01*
X161229636Y-86204819D02*
X161562969Y-85204819D01*
X139008458Y-91359580D02*
X138960839Y-91407200D01*
X138960839Y-91407200D02*
X138817982Y-91454819D01*
X138817982Y-91454819D02*
X138722744Y-91454819D01*
X138722744Y-91454819D02*
X138579887Y-91407200D01*
X138579887Y-91407200D02*
X138484649Y-91311961D01*
X138484649Y-91311961D02*
X138437030Y-91216723D01*
X138437030Y-91216723D02*
X138389411Y-91026247D01*
X138389411Y-91026247D02*
X138389411Y-90883390D01*
X138389411Y-90883390D02*
X138437030Y-90692914D01*
X138437030Y-90692914D02*
X138484649Y-90597676D01*
X138484649Y-90597676D02*
X138579887Y-90502438D01*
X138579887Y-90502438D02*
X138722744Y-90454819D01*
X138722744Y-90454819D02*
X138817982Y-90454819D01*
X138817982Y-90454819D02*
X138960839Y-90502438D01*
X138960839Y-90502438D02*
X139008458Y-90550057D01*
X139341792Y-90454819D02*
X139960839Y-90454819D01*
X139960839Y-90454819D02*
X139627506Y-90835771D01*
X139627506Y-90835771D02*
X139770363Y-90835771D01*
X139770363Y-90835771D02*
X139865601Y-90883390D01*
X139865601Y-90883390D02*
X139913220Y-90931009D01*
X139913220Y-90931009D02*
X139960839Y-91026247D01*
X139960839Y-91026247D02*
X139960839Y-91264342D01*
X139960839Y-91264342D02*
X139913220Y-91359580D01*
X139913220Y-91359580D02*
X139865601Y-91407200D01*
X139865601Y-91407200D02*
X139770363Y-91454819D01*
X139770363Y-91454819D02*
X139484649Y-91454819D01*
X139484649Y-91454819D02*
X139389411Y-91407200D01*
X139389411Y-91407200D02*
X139341792Y-91359580D01*
X125032268Y-100157200D02*
X125175125Y-100204819D01*
X125175125Y-100204819D02*
X125413220Y-100204819D01*
X125413220Y-100204819D02*
X125508458Y-100157200D01*
X125508458Y-100157200D02*
X125556077Y-100109580D01*
X125556077Y-100109580D02*
X125603696Y-100014342D01*
X125603696Y-100014342D02*
X125603696Y-99919104D01*
X125603696Y-99919104D02*
X125556077Y-99823866D01*
X125556077Y-99823866D02*
X125508458Y-99776247D01*
X125508458Y-99776247D02*
X125413220Y-99728628D01*
X125413220Y-99728628D02*
X125222744Y-99681009D01*
X125222744Y-99681009D02*
X125127506Y-99633390D01*
X125127506Y-99633390D02*
X125079887Y-99585771D01*
X125079887Y-99585771D02*
X125032268Y-99490533D01*
X125032268Y-99490533D02*
X125032268Y-99395295D01*
X125032268Y-99395295D02*
X125079887Y-99300057D01*
X125079887Y-99300057D02*
X125127506Y-99252438D01*
X125127506Y-99252438D02*
X125222744Y-99204819D01*
X125222744Y-99204819D02*
X125460839Y-99204819D01*
X125460839Y-99204819D02*
X125603696Y-99252438D01*
X126032268Y-100204819D02*
X126032268Y-99204819D01*
X126032268Y-99204819D02*
X126270363Y-99204819D01*
X126270363Y-99204819D02*
X126413220Y-99252438D01*
X126413220Y-99252438D02*
X126508458Y-99347676D01*
X126508458Y-99347676D02*
X126556077Y-99442914D01*
X126556077Y-99442914D02*
X126603696Y-99633390D01*
X126603696Y-99633390D02*
X126603696Y-99776247D01*
X126603696Y-99776247D02*
X126556077Y-99966723D01*
X126556077Y-99966723D02*
X126508458Y-100061961D01*
X126508458Y-100061961D02*
X126413220Y-100157200D01*
X126413220Y-100157200D02*
X126270363Y-100204819D01*
X126270363Y-100204819D02*
X126032268Y-100204819D01*
X126984649Y-99919104D02*
X127460839Y-99919104D01*
X126889411Y-100204819D02*
X127222744Y-99204819D01*
X127222744Y-99204819D02*
X127556077Y-100204819D01*
X138151315Y-101704819D02*
X137675125Y-101704819D01*
X137675125Y-101704819D02*
X137675125Y-100704819D01*
X138484649Y-101181009D02*
X138817982Y-101181009D01*
X138960839Y-101704819D02*
X138484649Y-101704819D01*
X138484649Y-101704819D02*
X138484649Y-100704819D01*
X138484649Y-100704819D02*
X138960839Y-100704819D01*
X139389411Y-101704819D02*
X139389411Y-100704819D01*
X139389411Y-100704819D02*
X139627506Y-100704819D01*
X139627506Y-100704819D02*
X139770363Y-100752438D01*
X139770363Y-100752438D02*
X139865601Y-100847676D01*
X139865601Y-100847676D02*
X139913220Y-100942914D01*
X139913220Y-100942914D02*
X139960839Y-101133390D01*
X139960839Y-101133390D02*
X139960839Y-101276247D01*
X139960839Y-101276247D02*
X139913220Y-101466723D01*
X139913220Y-101466723D02*
X139865601Y-101561961D01*
X139865601Y-101561961D02*
X139770363Y-101657200D01*
X139770363Y-101657200D02*
X139627506Y-101704819D01*
X139627506Y-101704819D02*
X139389411Y-101704819D01*
X159991541Y-93954819D02*
X160515350Y-93288152D01*
X159991541Y-93288152D02*
X160515350Y-93954819D01*
X139008458Y-93859580D02*
X138960839Y-93907200D01*
X138960839Y-93907200D02*
X138817982Y-93954819D01*
X138817982Y-93954819D02*
X138722744Y-93954819D01*
X138722744Y-93954819D02*
X138579887Y-93907200D01*
X138579887Y-93907200D02*
X138484649Y-93811961D01*
X138484649Y-93811961D02*
X138437030Y-93716723D01*
X138437030Y-93716723D02*
X138389411Y-93526247D01*
X138389411Y-93526247D02*
X138389411Y-93383390D01*
X138389411Y-93383390D02*
X138437030Y-93192914D01*
X138437030Y-93192914D02*
X138484649Y-93097676D01*
X138484649Y-93097676D02*
X138579887Y-93002438D01*
X138579887Y-93002438D02*
X138722744Y-92954819D01*
X138722744Y-92954819D02*
X138817982Y-92954819D01*
X138817982Y-92954819D02*
X138960839Y-93002438D01*
X138960839Y-93002438D02*
X139008458Y-93050057D01*
X139865601Y-93288152D02*
X139865601Y-93954819D01*
X139627506Y-92907200D02*
X139389411Y-93621485D01*
X139389411Y-93621485D02*
X140008458Y-93621485D01*
X137532268Y-96657200D02*
X137675125Y-96704819D01*
X137675125Y-96704819D02*
X137913220Y-96704819D01*
X137913220Y-96704819D02*
X138008458Y-96657200D01*
X138008458Y-96657200D02*
X138056077Y-96609580D01*
X138056077Y-96609580D02*
X138103696Y-96514342D01*
X138103696Y-96514342D02*
X138103696Y-96419104D01*
X138103696Y-96419104D02*
X138056077Y-96323866D01*
X138056077Y-96323866D02*
X138008458Y-96276247D01*
X138008458Y-96276247D02*
X137913220Y-96228628D01*
X137913220Y-96228628D02*
X137722744Y-96181009D01*
X137722744Y-96181009D02*
X137627506Y-96133390D01*
X137627506Y-96133390D02*
X137579887Y-96085771D01*
X137579887Y-96085771D02*
X137532268Y-95990533D01*
X137532268Y-95990533D02*
X137532268Y-95895295D01*
X137532268Y-95895295D02*
X137579887Y-95800057D01*
X137579887Y-95800057D02*
X137627506Y-95752438D01*
X137627506Y-95752438D02*
X137722744Y-95704819D01*
X137722744Y-95704819D02*
X137960839Y-95704819D01*
X137960839Y-95704819D02*
X138103696Y-95752438D01*
X138532268Y-96704819D02*
X138532268Y-95704819D01*
X138532268Y-95704819D02*
X138770363Y-95704819D01*
X138770363Y-95704819D02*
X138913220Y-95752438D01*
X138913220Y-95752438D02*
X139008458Y-95847676D01*
X139008458Y-95847676D02*
X139056077Y-95942914D01*
X139056077Y-95942914D02*
X139103696Y-96133390D01*
X139103696Y-96133390D02*
X139103696Y-96276247D01*
X139103696Y-96276247D02*
X139056077Y-96466723D01*
X139056077Y-96466723D02*
X139008458Y-96561961D01*
X139008458Y-96561961D02*
X138913220Y-96657200D01*
X138913220Y-96657200D02*
X138770363Y-96704819D01*
X138770363Y-96704819D02*
X138532268Y-96704819D01*
X139484649Y-96419104D02*
X139960839Y-96419104D01*
X139389411Y-96704819D02*
X139722744Y-95704819D01*
X139722744Y-95704819D02*
X140056077Y-96704819D01*
X149157200Y-119670112D02*
X149204819Y-119527255D01*
X149204819Y-119527255D02*
X149204819Y-119289160D01*
X149204819Y-119289160D02*
X149157200Y-119193922D01*
X149157200Y-119193922D02*
X149109580Y-119146303D01*
X149109580Y-119146303D02*
X149014342Y-119098684D01*
X149014342Y-119098684D02*
X148919104Y-119098684D01*
X148919104Y-119098684D02*
X148823866Y-119146303D01*
X148823866Y-119146303D02*
X148776247Y-119193922D01*
X148776247Y-119193922D02*
X148728628Y-119289160D01*
X148728628Y-119289160D02*
X148681009Y-119479636D01*
X148681009Y-119479636D02*
X148633390Y-119574874D01*
X148633390Y-119574874D02*
X148585771Y-119622493D01*
X148585771Y-119622493D02*
X148490533Y-119670112D01*
X148490533Y-119670112D02*
X148395295Y-119670112D01*
X148395295Y-119670112D02*
X148300057Y-119622493D01*
X148300057Y-119622493D02*
X148252438Y-119574874D01*
X148252438Y-119574874D02*
X148204819Y-119479636D01*
X148204819Y-119479636D02*
X148204819Y-119241541D01*
X148204819Y-119241541D02*
X148252438Y-119098684D01*
X149109580Y-118098684D02*
X149157200Y-118146303D01*
X149157200Y-118146303D02*
X149204819Y-118289160D01*
X149204819Y-118289160D02*
X149204819Y-118384398D01*
X149204819Y-118384398D02*
X149157200Y-118527255D01*
X149157200Y-118527255D02*
X149061961Y-118622493D01*
X149061961Y-118622493D02*
X148966723Y-118670112D01*
X148966723Y-118670112D02*
X148776247Y-118717731D01*
X148776247Y-118717731D02*
X148633390Y-118717731D01*
X148633390Y-118717731D02*
X148442914Y-118670112D01*
X148442914Y-118670112D02*
X148347676Y-118622493D01*
X148347676Y-118622493D02*
X148252438Y-118527255D01*
X148252438Y-118527255D02*
X148204819Y-118384398D01*
X148204819Y-118384398D02*
X148204819Y-118289160D01*
X148204819Y-118289160D02*
X148252438Y-118146303D01*
X148252438Y-118146303D02*
X148300057Y-118098684D01*
X149204819Y-117193922D02*
X149204819Y-117670112D01*
X149204819Y-117670112D02*
X148204819Y-117670112D01*
X150704819Y-119860588D02*
X151704819Y-119527255D01*
X151704819Y-119527255D02*
X150704819Y-119193922D01*
X151609580Y-118289160D02*
X151657200Y-118336779D01*
X151657200Y-118336779D02*
X151704819Y-118479636D01*
X151704819Y-118479636D02*
X151704819Y-118574874D01*
X151704819Y-118574874D02*
X151657200Y-118717731D01*
X151657200Y-118717731D02*
X151561961Y-118812969D01*
X151561961Y-118812969D02*
X151466723Y-118860588D01*
X151466723Y-118860588D02*
X151276247Y-118908207D01*
X151276247Y-118908207D02*
X151133390Y-118908207D01*
X151133390Y-118908207D02*
X150942914Y-118860588D01*
X150942914Y-118860588D02*
X150847676Y-118812969D01*
X150847676Y-118812969D02*
X150752438Y-118717731D01*
X150752438Y-118717731D02*
X150704819Y-118574874D01*
X150704819Y-118574874D02*
X150704819Y-118479636D01*
X150704819Y-118479636D02*
X150752438Y-118336779D01*
X150752438Y-118336779D02*
X150800057Y-118289160D01*
X151609580Y-117289160D02*
X151657200Y-117336779D01*
X151657200Y-117336779D02*
X151704819Y-117479636D01*
X151704819Y-117479636D02*
X151704819Y-117574874D01*
X151704819Y-117574874D02*
X151657200Y-117717731D01*
X151657200Y-117717731D02*
X151561961Y-117812969D01*
X151561961Y-117812969D02*
X151466723Y-117860588D01*
X151466723Y-117860588D02*
X151276247Y-117908207D01*
X151276247Y-117908207D02*
X151133390Y-117908207D01*
X151133390Y-117908207D02*
X150942914Y-117860588D01*
X150942914Y-117860588D02*
X150847676Y-117812969D01*
X150847676Y-117812969D02*
X150752438Y-117717731D01*
X150752438Y-117717731D02*
X150704819Y-117574874D01*
X150704819Y-117574874D02*
X150704819Y-117479636D01*
X150704819Y-117479636D02*
X150752438Y-117336779D01*
X150752438Y-117336779D02*
X150800057Y-117289160D01*
X136119048Y-128073866D02*
X136880953Y-128073866D01*
X136500000Y-128454819D02*
X136500000Y-127692914D01*
X125079887Y-102657200D02*
X125222744Y-102704819D01*
X125222744Y-102704819D02*
X125460839Y-102704819D01*
X125460839Y-102704819D02*
X125556077Y-102657200D01*
X125556077Y-102657200D02*
X125603696Y-102609580D01*
X125603696Y-102609580D02*
X125651315Y-102514342D01*
X125651315Y-102514342D02*
X125651315Y-102419104D01*
X125651315Y-102419104D02*
X125603696Y-102323866D01*
X125603696Y-102323866D02*
X125556077Y-102276247D01*
X125556077Y-102276247D02*
X125460839Y-102228628D01*
X125460839Y-102228628D02*
X125270363Y-102181009D01*
X125270363Y-102181009D02*
X125175125Y-102133390D01*
X125175125Y-102133390D02*
X125127506Y-102085771D01*
X125127506Y-102085771D02*
X125079887Y-101990533D01*
X125079887Y-101990533D02*
X125079887Y-101895295D01*
X125079887Y-101895295D02*
X125127506Y-101800057D01*
X125127506Y-101800057D02*
X125175125Y-101752438D01*
X125175125Y-101752438D02*
X125270363Y-101704819D01*
X125270363Y-101704819D02*
X125508458Y-101704819D01*
X125508458Y-101704819D02*
X125651315Y-101752438D01*
X126651315Y-102609580D02*
X126603696Y-102657200D01*
X126603696Y-102657200D02*
X126460839Y-102704819D01*
X126460839Y-102704819D02*
X126365601Y-102704819D01*
X126365601Y-102704819D02*
X126222744Y-102657200D01*
X126222744Y-102657200D02*
X126127506Y-102561961D01*
X126127506Y-102561961D02*
X126079887Y-102466723D01*
X126079887Y-102466723D02*
X126032268Y-102276247D01*
X126032268Y-102276247D02*
X126032268Y-102133390D01*
X126032268Y-102133390D02*
X126079887Y-101942914D01*
X126079887Y-101942914D02*
X126127506Y-101847676D01*
X126127506Y-101847676D02*
X126222744Y-101752438D01*
X126222744Y-101752438D02*
X126365601Y-101704819D01*
X126365601Y-101704819D02*
X126460839Y-101704819D01*
X126460839Y-101704819D02*
X126603696Y-101752438D01*
X126603696Y-101752438D02*
X126651315Y-101800057D01*
X127556077Y-102704819D02*
X127079887Y-102704819D01*
X127079887Y-102704819D02*
X127079887Y-101704819D01*
X134119048Y-128073866D02*
X134880953Y-128073866D01*
X159991541Y-90454819D02*
X160610588Y-90454819D01*
X160610588Y-90454819D02*
X160277255Y-90835771D01*
X160277255Y-90835771D02*
X160420112Y-90835771D01*
X160420112Y-90835771D02*
X160515350Y-90883390D01*
X160515350Y-90883390D02*
X160562969Y-90931009D01*
X160562969Y-90931009D02*
X160610588Y-91026247D01*
X160610588Y-91026247D02*
X160610588Y-91264342D01*
X160610588Y-91264342D02*
X160562969Y-91359580D01*
X160562969Y-91359580D02*
X160515350Y-91407200D01*
X160515350Y-91407200D02*
X160420112Y-91454819D01*
X160420112Y-91454819D02*
X160134398Y-91454819D01*
X160134398Y-91454819D02*
X160039160Y-91407200D01*
X160039160Y-91407200D02*
X159991541Y-91359580D01*
X160896303Y-90454819D02*
X161229636Y-91454819D01*
X161229636Y-91454819D02*
X161562969Y-90454819D01*
X161801065Y-90454819D02*
X162420112Y-90454819D01*
X162420112Y-90454819D02*
X162086779Y-90835771D01*
X162086779Y-90835771D02*
X162229636Y-90835771D01*
X162229636Y-90835771D02*
X162324874Y-90883390D01*
X162324874Y-90883390D02*
X162372493Y-90931009D01*
X162372493Y-90931009D02*
X162420112Y-91026247D01*
X162420112Y-91026247D02*
X162420112Y-91264342D01*
X162420112Y-91264342D02*
X162372493Y-91359580D01*
X162372493Y-91359580D02*
X162324874Y-91407200D01*
X162324874Y-91407200D02*
X162229636Y-91454819D01*
X162229636Y-91454819D02*
X161943922Y-91454819D01*
X161943922Y-91454819D02*
X161848684Y-91407200D01*
X161848684Y-91407200D02*
X161801065Y-91359580D01*
X160658207Y-96454819D02*
X160324874Y-95978628D01*
X160086779Y-96454819D02*
X160086779Y-95454819D01*
X160086779Y-95454819D02*
X160467731Y-95454819D01*
X160467731Y-95454819D02*
X160562969Y-95502438D01*
X160562969Y-95502438D02*
X160610588Y-95550057D01*
X160610588Y-95550057D02*
X160658207Y-95645295D01*
X160658207Y-95645295D02*
X160658207Y-95788152D01*
X160658207Y-95788152D02*
X160610588Y-95883390D01*
X160610588Y-95883390D02*
X160562969Y-95931009D01*
X160562969Y-95931009D02*
X160467731Y-95978628D01*
X160467731Y-95978628D02*
X160086779Y-95978628D01*
X160991541Y-95454819D02*
X161610588Y-95454819D01*
X161610588Y-95454819D02*
X161277255Y-95835771D01*
X161277255Y-95835771D02*
X161420112Y-95835771D01*
X161420112Y-95835771D02*
X161515350Y-95883390D01*
X161515350Y-95883390D02*
X161562969Y-95931009D01*
X161562969Y-95931009D02*
X161610588Y-96026247D01*
X161610588Y-96026247D02*
X161610588Y-96264342D01*
X161610588Y-96264342D02*
X161562969Y-96359580D01*
X161562969Y-96359580D02*
X161515350Y-96407200D01*
X161515350Y-96407200D02*
X161420112Y-96454819D01*
X161420112Y-96454819D02*
X161134398Y-96454819D01*
X161134398Y-96454819D02*
X161039160Y-96407200D01*
X161039160Y-96407200D02*
X160991541Y-96359580D01*
X153252438Y-119384398D02*
X153204819Y-119479636D01*
X153204819Y-119479636D02*
X153204819Y-119622493D01*
X153204819Y-119622493D02*
X153252438Y-119765350D01*
X153252438Y-119765350D02*
X153347676Y-119860588D01*
X153347676Y-119860588D02*
X153442914Y-119908207D01*
X153442914Y-119908207D02*
X153633390Y-119955826D01*
X153633390Y-119955826D02*
X153776247Y-119955826D01*
X153776247Y-119955826D02*
X153966723Y-119908207D01*
X153966723Y-119908207D02*
X154061961Y-119860588D01*
X154061961Y-119860588D02*
X154157200Y-119765350D01*
X154157200Y-119765350D02*
X154204819Y-119622493D01*
X154204819Y-119622493D02*
X154204819Y-119527255D01*
X154204819Y-119527255D02*
X154157200Y-119384398D01*
X154157200Y-119384398D02*
X154109580Y-119336779D01*
X154109580Y-119336779D02*
X153776247Y-119336779D01*
X153776247Y-119336779D02*
X153776247Y-119527255D01*
X154204819Y-118908207D02*
X153204819Y-118908207D01*
X153204819Y-118908207D02*
X154204819Y-118336779D01*
X154204819Y-118336779D02*
X153204819Y-118336779D01*
X154204819Y-117860588D02*
X153204819Y-117860588D01*
X153204819Y-117860588D02*
X153204819Y-117622493D01*
X153204819Y-117622493D02*
X153252438Y-117479636D01*
X153252438Y-117479636D02*
X153347676Y-117384398D01*
X153347676Y-117384398D02*
X153442914Y-117336779D01*
X153442914Y-117336779D02*
X153633390Y-117289160D01*
X153633390Y-117289160D02*
X153776247Y-117289160D01*
X153776247Y-117289160D02*
X153966723Y-117336779D01*
X153966723Y-117336779D02*
X154061961Y-117384398D01*
X154061961Y-117384398D02*
X154157200Y-117479636D01*
X154157200Y-117479636D02*
X154204819Y-117622493D01*
X154204819Y-117622493D02*
X154204819Y-117860588D01*
D12*
%TO.C,SW11*%
X154410002Y-129212500D02*
X145590002Y-129212500D01*
X154410002Y-124692500D02*
X154410002Y-125002500D01*
X145590002Y-124692500D02*
X145590002Y-125002500D01*
X154410002Y-128902500D02*
X154410002Y-129212500D01*
X145590002Y-129212500D02*
X145590002Y-128902500D01*
X152500002Y-129912500D02*
X152000002Y-129412500D01*
X152000002Y-129412500D02*
X151500002Y-129912500D01*
X145590002Y-124692500D02*
X154410002Y-124692500D01*
X151500002Y-129912500D02*
X152500002Y-129912500D01*
%TO.C,SW12*%
X161750000Y-127750001D02*
X166250000Y-127750001D01*
X167500000Y-125250001D02*
X167500000Y-123750001D01*
X160500000Y-123750001D02*
X160500000Y-125250001D01*
X166250000Y-121250001D02*
X161750000Y-121250001D01*
%TO.C,BT1*%
X140560000Y-126660000D02*
X140560000Y-118840000D01*
X139300000Y-121100000D02*
X139300000Y-118840000D01*
X133200000Y-122700000D02*
X133200000Y-121100000D01*
X132440000Y-126660000D02*
X133360000Y-126660000D01*
X133360000Y-125060000D02*
X133640000Y-125060000D01*
X140560000Y-125060000D02*
X139640000Y-125060000D01*
X139360000Y-125060000D02*
X139360000Y-126275000D01*
X138000000Y-118840000D02*
X138000000Y-123200000D01*
X139640000Y-125060000D02*
X139640000Y-126660000D01*
X140560000Y-118840000D02*
X132440000Y-118840000D01*
X132440000Y-125060000D02*
X133360000Y-125060000D01*
X138800000Y-121100000D02*
X138800000Y-122700000D01*
X133200000Y-121100000D02*
X134200000Y-121100000D01*
X139800000Y-121100000D02*
X138800000Y-121100000D01*
X139640000Y-126660000D02*
X140560000Y-126660000D01*
X139800000Y-122700000D02*
X139800000Y-121100000D01*
X132440000Y-118840000D02*
X132440000Y-126660000D01*
X135000000Y-123200000D02*
X135000000Y-118840000D01*
X134200000Y-122700000D02*
X133200000Y-122700000D01*
X134200000Y-121100000D02*
X134200000Y-122700000D01*
X138000000Y-123200000D02*
X135000000Y-123200000D01*
X133360000Y-126660000D02*
X133360000Y-125060000D01*
X138800000Y-122700000D02*
X139800000Y-122700000D01*
X139360000Y-125060000D02*
X139640000Y-125060000D01*
X138800000Y-121100000D02*
X138800000Y-118840000D01*
%TD*%
M02*
